<svg xmlns="http://www.w3.org/2000/svg" viewBox="0 0 480 320" shape-rendering="crispEdges">
  <title>Bedroom three memory fragment (apartment three) - multiple periods of life softly overlapping</title>
  <desc>A warm tea-stained room caught between several time periods at once. A low walnut dresser carries a wind-up alarm clock from one decade, a stack of vinyl, a cassette, a CD, a smartphone with a glowing screen from another, and a small wooden rocking-horse toy from another still. A soft amber lamp pools light over them. A small framed mirror on the wall holds a silhouette that lags slightly behind. To the left, a window cropped at the edge looks out onto a season that quietly cycles. To the right, the corner of a bed holds a patchwork quilt sewn from several different eras. Stacked cardboard boxes lean nearby. A faint ghost outline on the wall remembers a piece of furniture that no longer lives here. The whole scene is washed warm but distant, like a memory growing softer as several lifetimes settle on top of each other.</desc>

  <defs>
    <linearGradient id="b3Wall" x1="0" y1="0" x2="0" y2="1">
      <stop offset="0%"   stop-color="#ecd6b8"/>
      <stop offset="55%"  stop-color="#d8b890"/>
      <stop offset="100%" stop-color="#a87c5c"/>
    </linearGradient>
    <linearGradient id="b3Floor" x1="0" y1="0" x2="0" y2="1">
      <stop offset="0%"   stop-color="#a37854"/>
      <stop offset="100%" stop-color="#5c3a24"/>
    </linearGradient>
    <linearGradient id="b3Dresser" x1="0" y1="0" x2="0" y2="1">
      <stop offset="0%"   stop-color="#8c5a38"/>
      <stop offset="100%" stop-color="#4a2c18"/>
    </linearGradient>
    <linearGradient id="b3DresserTop" x1="0" y1="0" x2="0" y2="1">
      <stop offset="0%"   stop-color="#b8855c"/>
      <stop offset="100%" stop-color="#7a4c30"/>
    </linearGradient>
    <linearGradient id="b3LampShade" x1="0" y1="0" x2="0" y2="1">
      <stop offset="0%"   stop-color="#f4dca0"/>
      <stop offset="100%" stop-color="#b08054"/>
    </linearGradient>
    <radialGradient id="b3LampPool" cx="50%" cy="50%" r="60%">
      <stop offset="0%"   stop-color="#fde8b8" stop-opacity="0.40"/>
      <stop offset="55%"  stop-color="#e8b878" stop-opacity="0.13"/>
      <stop offset="100%" stop-color="#e8b878" stop-opacity="0"/>
    </radialGradient>

    <linearGradient id="b3Mattress" x1="0" y1="0" x2="0" y2="1">
      <stop offset="0%"   stop-color="#e8d2b4"/>
      <stop offset="100%" stop-color="#a07854"/>
    </linearGradient>
    <linearGradient id="b3Pillow" x1="0" y1="0" x2="0" y2="1">
      <stop offset="0%"   stop-color="#f4d8c0"/>
      <stop offset="100%" stop-color="#c89890"/>
    </linearGradient>
    <linearGradient id="b3BedFrame" x1="0" y1="0" x2="0" y2="1">
      <stop offset="0%"   stop-color="#704830"/>
      <stop offset="100%" stop-color="#3a2218"/>
    </linearGradient>

    <!-- three quietly cycling window scenes (different years) -->
    <linearGradient id="b3SkySpring" x1="0" y1="0" x2="0" y2="1">
      <stop offset="0%"   stop-color="#bfe4f4"/>
      <stop offset="100%" stop-color="#f4e4c4"/>
    </linearGradient>
    <linearGradient id="b3SkyNight" x1="0" y1="0" x2="0" y2="1">
      <stop offset="0%"   stop-color="#1a2240"/>
      <stop offset="100%" stop-color="#3a3458"/>
    </linearGradient>
    <linearGradient id="b3SkyDusk" x1="0" y1="0" x2="0" y2="1">
      <stop offset="0%"   stop-color="#e0a8b0"/>
      <stop offset="100%" stop-color="#a87890"/>
    </linearGradient>

    <linearGradient id="b3SidesL" x1="0" y1="0" x2="1" y2="0">
      <stop offset="0%"   stop-color="#3a1c10" stop-opacity="0.32"/>
      <stop offset="100%" stop-color="#3a1c10" stop-opacity="0"/>
    </linearGradient>
    <linearGradient id="b3SidesR" x1="1" y1="0" x2="0" y2="0">
      <stop offset="0%"   stop-color="#3a1c10" stop-opacity="0.32"/>
      <stop offset="100%" stop-color="#3a1c10" stop-opacity="0"/>
    </linearGradient>

    <radialGradient id="b3Vignette" cx="50%" cy="55%" r="70%">
      <stop offset="55%"  stop-color="#000000" stop-opacity="0"/>
      <stop offset="100%" stop-color="#1a0c08" stop-opacity="0.55"/>
    </radialGradient>

    <clipPath id="b3WindowClip">
      <rect x="28" y="62" width="120" height="124"/>
    </clipPath>

    <!-- soft blur for the unnaturally-soft shadows + mirror silhouette -->
    <filter id="b3SoftShadow" x="-30%" y="-30%" width="160%" height="160%">
      <feGaussianBlur stdDeviation="1.4"/>
    </filter>
    <!-- shared silhouette blur: matches the bathroom standard - the edges
         on the reflection are softened so it reads as a half-formed shadow. -->
    <filter id="b3SilhouetteBlur" x="-50%" y="-50%" width="200%" height="200%">
      <feGaussianBlur stdDeviation="1.6"/>
    </filter>
  </defs>

  <!-- ============= WALL ============= -->
  <rect width="480" height="320" fill="url(#b3Wall)"/>

  <!-- subtle vertical wallpaper striping -->
  <g pointer-events="none" opacity="0.18">
    <rect x="44"  y="0" width="1" height="238" fill="#a07852"/>
    <rect x="92"  y="0" width="1" height="238" fill="#a07852"/>
    <rect x="140" y="0" width="1" height="238" fill="#a07852"/>
    <rect x="188" y="0" width="1" height="238" fill="#a07852"/>
    <rect x="236" y="0" width="1" height="238" fill="#a07852"/>
    <rect x="284" y="0" width="1" height="238" fill="#a07852"/>
    <rect x="332" y="0" width="1" height="238" fill="#a07852"/>
    <rect x="380" y="0" width="1" height="238" fill="#a07852"/>
    <rect x="428" y="0" width="1" height="238" fill="#a07852"/>
  </g>
  <!-- tiny floral motif scattered on wallpaper -->
  <g pointer-events="none" opacity="0.16">
    <rect x="68"  y="34"  width="2" height="2" fill="#a86878"/>
    <rect x="116" y="20"  width="2" height="2" fill="#a86878"/>
    <rect x="164" y="44"  width="2" height="2" fill="#a86878"/>
    <rect x="212" y="22"  width="2" height="2" fill="#a86878"/>
    <rect x="260" y="38"  width="2" height="2" fill="#a86878"/>
    <rect x="308" y="18"  width="2" height="2" fill="#a86878"/>
    <rect x="356" y="36"  width="2" height="2" fill="#a86878"/>
    <rect x="404" y="22"  width="2" height="2" fill="#a86878"/>
    <rect x="76"  y="92"  width="2" height="2" fill="#a86878"/>
    <rect x="124" y="108" width="2" height="2" fill="#a86878"/>
    <rect x="172" y="96"  width="2" height="2" fill="#a86878"/>
    <rect x="316" y="104" width="2" height="2" fill="#a86878"/>
    <rect x="364" y="112" width="2" height="2" fill="#a86878"/>
    <rect x="412" y="92"  width="2" height="2" fill="#a86878"/>
    <rect x="84"  y="156" width="2" height="2" fill="#a86878"/>
    <rect x="132" y="170" width="2" height="2" fill="#a86878"/>
    <rect x="324" y="160" width="2" height="2" fill="#a86878"/>
    <rect x="372" y="174" width="2" height="2" fill="#a86878"/>
    <rect x="420" y="158" width="2" height="2" fill="#a86878"/>
  </g>
  <!-- ceiling line -->
  <rect x="0" y="0" width="480" height="3" fill="#704428" opacity="0.55"/>

  <!-- ============= FADED PAINT MARKS (overlapping eras hung here) ============= -->
  <g id="b3-paint" pointer-events="none">
    <!-- a tall calendar shape -->
    <rect x="200" y="40" width="38" height="50" fill="#f0dec0" opacity="0.55"/>
    <rect x="200" y="40" width="38" height="50" fill="none" stroke="#7a5232" stroke-width="1" opacity="0.30"/>
    <!-- a small landscape (pulled down years ago) -->
    <rect x="246" y="56" width="50" height="34" fill="#f0dec0" opacity="0.55"/>
    <rect x="246" y="56" width="50" height="34" fill="none" stroke="#7a5232" stroke-width="1" opacity="0.30"/>
    <!-- a tiny child's drawing (taped, no frame) -->
    <rect x="304" y="48" width="26" height="34" fill="#f0dec0" opacity="0.55"/>
    <rect x="304" y="48" width="26" height="34" fill="none" stroke="#7a5232" stroke-width="1" opacity="0.30"/>
    <!-- pin / nail marks where decorations from other years used to anchor -->
    <rect x="218" y="46"  width="2" height="2" fill="#3a1f10" opacity="0.65"/>
    <rect x="270" y="62"  width="2" height="2" fill="#3a1f10" opacity="0.55"/>
    <rect x="316" y="54"  width="2" height="2" fill="#3a1f10" opacity="0.55"/>
    <rect x="190" y="100" width="2" height="2" fill="#3a1f10" opacity="0.45"/>
    <rect x="294" y="110" width="2" height="2" fill="#3a1f10" opacity="0.45"/>
    <rect x="156" y="124" width="2" height="2" fill="#3a1f10" opacity="0.40"/>
    <!-- tape ghost (yellowed) -->
    <rect x="306" y="48" width="22" height="3" fill="#e8c280" opacity="0.45"/>
    <rect x="306" y="80" width="22" height="3" fill="#e8c280" opacity="0.35"/>
  </g>

  <!-- ============= GHOST OF FURNITURE THAT NO LONGER LIVES HERE ============= -->
  <!-- only one of these three is visible per visit (rotating per-visit). they
       are very low opacity so the room itself remains the focal point. -->
  <g id="b3-ghost-a" pointer-events="none" opacity="0.18" visibility="visible">
    <!-- ghost of a small wall calendar (squarer than the paint mark) -->
    <rect x="396" y="92"  width="36" height="46" fill="none" stroke="#5a3818" stroke-width="1" stroke-dasharray="2 3"/>
    <rect x="396" y="92"  width="36" height="10" fill="#5a3818" opacity="0.20"/>
    <rect x="402" y="106" width="6"  height="4"  fill="#5a3818" opacity="0.18"/>
    <rect x="412" y="106" width="6"  height="4"  fill="#5a3818" opacity="0.18"/>
    <rect x="422" y="106" width="6"  height="4"  fill="#5a3818" opacity="0.18"/>
    <rect x="402" y="114" width="6"  height="4"  fill="#5a3818" opacity="0.18"/>
    <rect x="412" y="114" width="6"  height="4"  fill="#5a3818" opacity="0.18"/>
    <rect x="422" y="114" width="6"  height="4"  fill="#5a3818" opacity="0.18"/>
    <rect x="402" y="122" width="6"  height="4"  fill="#5a3818" opacity="0.18"/>
    <rect x="412" y="122" width="6"  height="4"  fill="#5a3818" opacity="0.18"/>
    <rect x="422" y="122" width="6"  height="4"  fill="#5a3818" opacity="0.18"/>
  </g>
  <g id="b3-ghost-b" pointer-events="none" opacity="0.18" visibility="hidden">
    <!-- ghost of a tall narrow bookshelf that used to sit against the wall -->
    <rect x="392" y="98"  width="44" height="138" fill="none" stroke="#5a3818" stroke-width="1" stroke-dasharray="2 3"/>
    <rect x="392" y="124" width="44" height="1" fill="#5a3818" opacity="0.28"/>
    <rect x="392" y="156" width="44" height="1" fill="#5a3818" opacity="0.28"/>
    <rect x="392" y="188" width="44" height="1" fill="#5a3818" opacity="0.28"/>
    <rect x="396" y="100" width="3"  height="22" fill="#5a3818" opacity="0.22"/>
    <rect x="402" y="100" width="3"  height="22" fill="#5a3818" opacity="0.22"/>
    <rect x="410" y="100" width="3"  height="22" fill="#5a3818" opacity="0.22"/>
    <rect x="418" y="128" width="3"  height="26" fill="#5a3818" opacity="0.22"/>
    <rect x="424" y="128" width="3"  height="26" fill="#5a3818" opacity="0.22"/>
    <rect x="396" y="160" width="3"  height="26" fill="#5a3818" opacity="0.22"/>
    <rect x="402" y="160" width="3"  height="26" fill="#5a3818" opacity="0.22"/>
    <rect x="408" y="160" width="3"  height="26" fill="#5a3818" opacity="0.22"/>
  </g>
  <g id="b3-ghost-c" pointer-events="none" opacity="0.20" visibility="hidden">
    <!-- ghost of a small wooden chair that used to sit here -->
    <rect x="396" y="142" width="40" height="3"  fill="#5a3818" opacity="0.45"/>
    <rect x="394" y="140" width="44" height="2"  fill="#5a3818" opacity="0.35"/>
    <rect x="396" y="100" width="40" height="3"  fill="#5a3818" opacity="0.40"/>
    <rect x="396" y="103" width="3"  height="42" fill="#5a3818" opacity="0.35"/>
    <rect x="433" y="103" width="3"  height="42" fill="#5a3818" opacity="0.35"/>
    <rect x="398" y="145" width="3"  height="42" fill="#5a3818" opacity="0.40"/>
    <rect x="431" y="145" width="3"  height="42" fill="#5a3818" opacity="0.40"/>
    <rect x="402" y="116" width="28" height="2"  fill="#5a3818" opacity="0.22"/>
    <rect x="402" y="124" width="28" height="2"  fill="#5a3818" opacity="0.22"/>
  </g>

  <!-- ============= WINDOW (cropped at the left edge) ============= -->
  <g id="b3-window-frame" pointer-events="none">
    <rect x="22" y="56"  width="130" height="138" fill="#5a3818"/>
    <rect x="24" y="58"  width="126" height="134" fill="#7a5436"/>
  </g>

  <!-- glass area, with three rotating year scenes -->
  <g clip-path="url(#b3WindowClip)">
    <!-- A: bright spring afternoon -->
    <g id="b3-window-a" visibility="visible">
      <rect x="28" y="62" width="120" height="124" fill="url(#b3SkySpring)"/>
      <!-- distant low building -->
      <rect x="28"  y="148" width="44" height="38" fill="#c8b88c"/>
      <rect x="28"  y="148" width="44" height="3"  fill="#a89868"/>
      <rect x="34"  y="158" width="6"  height="6"  fill="#8c7a48" opacity="0.7"/>
      <rect x="48"  y="158" width="6"  height="6"  fill="#8c7a48" opacity="0.7"/>
      <rect x="62"  y="158" width="6"  height="6"  fill="#8c7a48" opacity="0.7"/>
      <!-- a tree silhouette in soft new leaf -->
      <rect x="92"  y="158" width="2"  height="28" fill="#5a4028"/>
      <ellipse cx="93" cy="146" rx="14" ry="16" fill="#7ea884" opacity="0.85"/>
      <ellipse cx="93" cy="142" rx="10" ry="10" fill="#a4c498" opacity="0.7"/>
      <!-- soft cloud -->
      <ellipse cx="62" cy="86" rx="20" ry="6" fill="#ffffff" opacity="0.62"/>
      <ellipse cx="118" cy="76" rx="14" ry="5" fill="#ffffff" opacity="0.55"/>
      <!-- sun glow -->
      <circle cx="124" cy="98" r="10" fill="#fbe6a8" opacity="0.55"/>
      <circle cx="124" cy="98" r="5"  fill="#ffffff" opacity="0.65"/>
    </g>

    <!-- B: teen-years night with city lights -->
    <g id="b3-window-b" visibility="hidden">
      <rect x="28" y="62" width="120" height="124" fill="url(#b3SkyNight)"/>
      <!-- skyline silhouette -->
      <rect x="28" y="146" width="22" height="40" fill="#0c0e1a"/>
      <rect x="46" y="138" width="14" height="48" fill="#0c0e1a"/>
      <rect x="58" y="152" width="20" height="34" fill="#0c0e1a"/>
      <rect x="76" y="130" width="16" height="56" fill="#0c0e1a"/>
      <rect x="90" y="146" width="22" height="40" fill="#0c0e1a"/>
      <rect x="108" y="138" width="18" height="48" fill="#0c0e1a"/>
      <rect x="124" y="150" width="22" height="36" fill="#0c0e1a"/>
      <!-- distant lit windows (apartments across the way) -->
      <rect x="32"  y="158" width="2" height="2" fill="#ffe6a4"/>
      <rect x="40"  y="166" width="2" height="2" fill="#ffe6a4" opacity="0.78"/>
      <rect x="50"  y="148" width="2" height="2" fill="#ffe6a4"/>
      <rect x="64"  y="160" width="2" height="2" fill="#ffd896" opacity="0.7"/>
      <rect x="78"  y="142" width="2" height="2" fill="#ffe6a4"/>
      <rect x="84"  y="156" width="2" height="2" fill="#ffe6a4" opacity="0.7"/>
      <rect x="98"  y="156" width="2" height="2" fill="#ffd896" opacity="0.85"/>
      <rect x="106" y="148" width="2" height="2" fill="#ffe6a4"/>
      <rect x="116" y="160" width="2" height="2" fill="#ffd896" opacity="0.7"/>
      <rect x="130" y="160" width="2" height="2" fill="#ffe6a4"/>
      <rect x="138" y="170" width="2" height="2" fill="#ffd896" opacity="0.7"/>
      <!-- moon -->
      <circle cx="116" cy="80" r="8" fill="#f4ecd8" opacity="0.85"/>
      <circle cx="118" cy="78" r="6" fill="#fff8e6" opacity="0.85"/>
      <!-- a few stars -->
      <rect x="44" y="74" width="1" height="1" fill="#ffffff"/>
      <rect x="62" y="86" width="1" height="1" fill="#ffffff"/>
      <rect x="82" y="68" width="1" height="1" fill="#ffffff"/>
      <rect x="138" y="92" width="1" height="1" fill="#ffffff"/>
    </g>

    <!-- C: recent dusk (lavender / soft pink) -->
    <g id="b3-window-c" visibility="hidden">
      <rect x="28" y="62" width="120" height="124" fill="url(#b3SkyDusk)"/>
      <!-- horizon strip -->
      <rect x="28" y="150" width="120" height="3" fill="#7a5078" opacity="0.6"/>
      <rect x="28" y="153" width="120" height="33" fill="#5a3858"/>
      <!-- soft tree silhouette (leaves gone) -->
      <rect x="46" y="138" width="2" height="14" fill="#3a2438"/>
      <rect x="44" y="142" width="6" height="2" fill="#3a2438"/>
      <rect x="40" y="148" width="4" height="2" fill="#3a2438"/>
      <rect x="50" y="146" width="4" height="2" fill="#3a2438"/>
      <!-- distant low buildings, a few warm lit windows -->
      <rect x="80"  y="146" width="48" height="40" fill="#3a2438"/>
      <rect x="86"  y="156" width="2"  height="2"  fill="#ffd896" opacity="0.85"/>
      <rect x="100" y="158" width="2"  height="2"  fill="#ffd896" opacity="0.7"/>
      <rect x="116" y="156" width="2"  height="2"  fill="#ffd896" opacity="0.85"/>
      <rect x="124" y="166" width="2"  height="2"  fill="#ffd896" opacity="0.7"/>
      <!-- a single distant warm star/planet -->
      <rect x="94" y="78" width="2" height="2" fill="#ffe8c8" opacity="0.95"/>
    </g>
  </g>

  <!-- window mullion + two-panel curtain pulled back at the sides -->
  <g pointer-events="none">
    <rect x="22" y="120" width="130" height="3" fill="#5a3818"/>
    <rect x="84" y="56"  width="3"   height="138" fill="#5a3818"/>
  </g>
  <!-- soft sheers (always slightly drawn back; gentle) -->
  <g pointer-events="none" opacity="0.55">
    <rect x="24" y="58" width="20" height="134" fill="#fce8c8"/>
    <rect x="24" y="58" width="2"  height="134" fill="#f4d8a8"/>
    <rect x="42" y="58" width="2"  height="134" fill="#a88858" opacity="0.40"/>
    <rect x="130" y="58" width="20" height="134" fill="#fce8c8"/>
    <rect x="148" y="58" width="2"  height="134" fill="#f4d8a8"/>
    <rect x="130" y="58" width="2"  height="134" fill="#a88858" opacity="0.40"/>
  </g>
  <!-- window-sill -->
  <rect x="20" y="194" width="134" height="4" fill="#5a3818" pointer-events="none"/>
  <rect x="20" y="198" width="134" height="2" fill="#3a2010" pointer-events="none"/>

  <!-- ============= SMALL FRAMED MIRROR ON THE WALL ============= -->
  <!-- a small mirror above the dresser; the silhouette inside lags a beat
       behind the room, suggested by a soft slow pulse. -->
  <g id="b3-mirror" pointer-events="none">
    <!-- frame (brass) -->
    <rect x="246" y="86"  width="56" height="62" fill="#a88454"/>
    <rect x="246" y="86"  width="56" height="2"  fill="#d8b070"/>
    <rect x="246" y="146" width="56" height="2"  fill="#5a4020"/>
    <rect x="246" y="86"  width="2"  height="62" fill="#d8b070"/>
    <rect x="300" y="86"  width="2"  height="62" fill="#5a4020"/>
    <!-- inner glass -->
    <rect x="250" y="90" width="48" height="54" fill="#3a4258"/>
    <rect x="250" y="90" width="48" height="2"  fill="#5a6478" opacity="0.85"/>
    <!-- a soft silhouette inside the mirror, lagging behind via a slow pulse -->
    <g filter="url(#b3SilhouetteBlur)" opacity="0.7">
      <ellipse cx="274" cy="118" rx="8" ry="9" fill="#1a1a26"/>
      <rect x="266" y="124" width="16" height="20" fill="#1a1a26"/>
    </g>
    <!-- the silhouette gently breathes - barely-perceptible scale pulse from
         centre, simulating a reflection that lags behind movement -->
    <g>
      <ellipse cx="274" cy="118" rx="8" ry="9" fill="#252538" opacity="0.55">
        <animate attributeName="opacity" values="0.55;0.18;0.55" dur="6s" repeatCount="indefinite"/>
      </ellipse>
    </g>
    <!-- light glare on glass -->
    <rect x="252" y="92" width="3" height="20" fill="#ffffff" opacity="0.18"/>
  </g>

  <!-- ============= SMALL DUSTY DECORATIONS ON THE WALL ============= -->
  <g pointer-events="none">
    <!-- a thumb-tacked photograph (faded, slightly askew) -->
    <g transform="rotate(-3 372 100)">
      <rect x="354" y="84"  width="38" height="32" fill="#f0e0c4"/>
      <rect x="356" y="86"  width="34" height="22" fill="#9c7858"/>
      <rect x="362" y="92"  width="6"  height="6"  fill="#3a2418" opacity="0.55"/>
      <rect x="376" y="92"  width="6"  height="6"  fill="#3a2418" opacity="0.55"/>
      <rect x="358" y="100" width="28" height="2"  fill="#3a2418" opacity="0.40"/>
      <rect x="372" y="86"  width="2"  height="2"  fill="#7a4830"/>
    </g>
  </g>

  <!-- ============= FLOOR ============= -->
  <rect x="0" y="238" width="480" height="82" fill="url(#b3Floor)"/>
  <rect x="0" y="238" width="480" height="2"  fill="#5a3a22"/>
  <!-- wood plank seams -->
  <g pointer-events="none" opacity="0.35">
    <rect x="0"   y="238" width="480" height="1" fill="#3a2010"/>
    <rect x="0"   y="262" width="480" height="1" fill="#3a2010"/>
    <rect x="0"   y="286" width="480" height="1" fill="#3a2010"/>
    <rect x="0"   y="310" width="480" height="1" fill="#3a2010"/>
    <rect x="68"  y="238" width="1"   height="82" fill="#3a2010" opacity="0.6"/>
    <rect x="172" y="238" width="1"   height="82" fill="#3a2010" opacity="0.6"/>
    <rect x="278" y="238" width="1"   height="82" fill="#3a2010" opacity="0.6"/>
    <rect x="384" y="238" width="1"   height="82" fill="#3a2010" opacity="0.6"/>
  </g>

  <!-- ============= LOW DRESSER / SIDEBOARD ============= -->
  <g id="b3-dresser" pointer-events="none">
    <!-- soft unnaturally-blurred shadow under the dresser -->
    <ellipse cx="252" cy="262" rx="98" ry="6" fill="#1a0c08" opacity="0.50" filter="url(#b3SoftShadow)"/>

    <!-- dresser top surface -->
    <rect x="166" y="172" width="180" height="3" fill="url(#b3DresserTop)"/>
    <rect x="166" y="175" width="180" height="2" fill="#5a3618"/>
    <!-- dresser body -->
    <rect x="166" y="177" width="180" height="62" fill="url(#b3Dresser)"/>
    <rect x="166" y="177" width="2"   height="62" fill="#a06840"/>
    <rect x="344" y="177" width="2"   height="62" fill="#2a1810"/>
    <rect x="166" y="237" width="180" height="2"  fill="#2a1810"/>
    <!-- horizontal seam between two drawer rows -->
    <rect x="168" y="206" width="176" height="1" fill="#3a1c10" opacity="0.7"/>
    <!-- vertical seam splitting each drawer row in half -->
    <rect x="256" y="178" width="1" height="60" fill="#3a1c10" opacity="0.6"/>

    <!-- four drawer pulls (small brass rings) -->
    <g>
      <ellipse cx="208" cy="194" rx="4" ry="2" fill="#c8a060"/>
      <ellipse cx="208" cy="194" rx="2" ry="1" fill="#5a3a18"/>
      <ellipse cx="304" cy="194" rx="4" ry="2" fill="#c8a060"/>
      <ellipse cx="304" cy="194" rx="2" ry="1" fill="#5a3a18"/>
      <ellipse cx="208" cy="222" rx="4" ry="2" fill="#c8a060"/>
      <ellipse cx="208" cy="222" rx="2" ry="1" fill="#5a3a18"/>
      <ellipse cx="304" cy="222" rx="4" ry="2" fill="#c8a060"/>
      <ellipse cx="304" cy="222" rx="2" ry="1" fill="#5a3a18"/>
    </g>

    <!-- legs -->
    <rect x="170" y="239" width="6" height="14" fill="#4a2c18"/>
    <rect x="170" y="239" width="2" height="14" fill="#7a4c30"/>
    <rect x="338" y="239" width="6" height="14" fill="#4a2c18"/>
    <rect x="338" y="239" width="2" height="14" fill="#7a4c30"/>
  </g>

  <!-- ============= LAMP (warm pool of light over the dresser) ============= -->
  <!-- glow under everything else on the dresser top so it pools warmly -->
  <ellipse cx="200" cy="172" rx="62" ry="18" fill="url(#b3LampPool)" pointer-events="none"/>

  <g id="b3-lamp" pointer-events="none">
    <!-- shade (trapezoid) -->
    <polygon points="178,116 222,116 230,148 170,148" fill="url(#b3LampShade)"/>
    <polygon points="178,116 222,116 230,148 170,148" fill="none" stroke="#7a5230" stroke-width="1"/>
    <!-- shade rim -->
    <rect x="170" y="148" width="60" height="2" fill="#5a3618"/>
    <!-- inner warm glow at shade base -->
    <rect x="174" y="146" width="52" height="2" fill="#fbe6a8" opacity="0.85"/>
    <!-- post -->
    <rect x="198" y="148" width="4" height="20" fill="#5a3618"/>
    <rect x="198" y="148" width="1" height="20" fill="#a87650"/>
    <!-- base -->
    <ellipse cx="200" cy="170" rx="14" ry="3" fill="#3a1f10"/>
    <ellipse cx="200" cy="169" rx="13" ry="2" fill="#7a5230"/>
  </g>

  <!-- ============= MIXED-ERA OBJECTS ON THE DRESSER TOP ============= -->
  <!-- rocking-horse toy (childhood era) -->
  <g id="b3-toy" pointer-events="none">
    <!-- rocker base -->
    <path d="M 226 168 Q 240 174 254 168 L 254 170 Q 240 176 226 170 Z" fill="#7a4830"/>
    <!-- body -->
    <rect x="232" y="156" width="16" height="9" fill="#a07050"/>
    <rect x="232" y="156" width="16" height="2" fill="#c89878"/>
    <!-- legs to rocker -->
    <rect x="234" y="164" width="2" height="5" fill="#7a4830"/>
    <rect x="244" y="164" width="2" height="5" fill="#7a4830"/>
    <!-- head -->
    <rect x="246" y="150" width="6" height="8" fill="#a07050"/>
    <rect x="246" y="150" width="6" height="2" fill="#c89878"/>
    <rect x="252" y="152" width="2" height="2" fill="#a07050"/>
    <!-- mane -->
    <rect x="244" y="150" width="2" height="6" fill="#3a1f10"/>
    <rect x="244" y="156" width="2" height="2" fill="#3a1f10"/>
    <!-- eye -->
    <rect x="250" y="153" width="1" height="1" fill="#1a0c08"/>
  </g>

  <!-- stack of music media: vinyl + cassette + CD (different decades) -->
  <g id="b3-records" pointer-events="none">
    <!-- vinyl record bottom -->
    <ellipse cx="270" cy="170" rx="15" ry="3" fill="#1a1a1a"/>
    <ellipse cx="270" cy="170" rx="15" ry="3" fill="none" stroke="#3a3a3a" stroke-width="1" opacity="0.6"/>
    <ellipse cx="270" cy="170" rx="5"  ry="1" fill="#a83838"/>
    <!-- cassette tape on top -->
    <rect x="258" y="160" width="24" height="9" fill="#7a5030"/>
    <rect x="258" y="160" width="24" height="2" fill="#a07654"/>
    <rect x="260" y="163" width="20" height="3" fill="#1a1410"/>
    <rect x="262" y="164" width="6"  height="1" fill="#a07654"/>
    <rect x="272" y="164" width="6"  height="1" fill="#a07654"/>
    <rect x="266" y="164" width="2"  height="1" fill="#a07654" opacity="0.7"/>
    <rect x="272" y="164" width="2"  height="1" fill="#a07654" opacity="0.7"/>
    <!-- a thin label slip on cassette -->
    <rect x="260" y="160" width="20" height="2" fill="#e8d8a8"/>
    <!-- CD jewel case standing on its edge to the side -->
    <rect x="285" y="154" width="14" height="16" fill="#e8e8ec"/>
    <rect x="285" y="154" width="14" height="2"  fill="#c8c8cc"/>
    <rect x="285" y="168" width="14" height="2"  fill="#a8a8ac"/>
    <rect x="287" y="156" width="10" height="12" fill="#5a78a8"/>
    <rect x="287" y="156" width="10" height="2"  fill="#7a98c8" opacity="0.85"/>
  </g>

  <!-- wind-up alarm clock (mid-century brass/bell era) -->
  <g id="b3-clock" pointer-events="none">
    <!-- bells -->
    <ellipse cx="305" cy="151" rx="3" ry="2" fill="#c8a060"/>
    <ellipse cx="318" cy="151" rx="3" ry="2" fill="#c8a060"/>
    <!-- top bridge -->
    <rect x="307" y="150" width="9" height="2" fill="#a88454"/>
    <!-- body (round) -->
    <ellipse cx="311" cy="162" rx="9" ry="9" fill="#c8a060"/>
    <ellipse cx="311" cy="162" rx="9" ry="9" fill="none" stroke="#5a3818" stroke-width="1"/>
    <ellipse cx="311" cy="162" rx="6" ry="6" fill="#f0e0bc"/>
    <ellipse cx="311" cy="162" rx="6" ry="6" fill="none" stroke="#5a3818" stroke-width="1"/>
    <!-- hands -->
    <rect x="311" y="158" width="1" height="5" fill="#3a1f10"/>
    <rect x="311" y="162" width="4" height="1" fill="#3a1f10"/>
    <!-- center dot -->
    <rect x="310" y="161" width="2" height="2" fill="#3a1f10"/>
    <!-- twelve mark -->
    <rect x="310" y="157" width="1" height="1" fill="#3a1f10"/>
    <!-- six mark -->
    <rect x="310" y="167" width="1" height="1" fill="#3a1f10"/>
    <!-- legs -->
    <rect x="305" y="170" width="2" height="2" fill="#5a3818"/>
    <rect x="316" y="170" width="2" height="2" fill="#5a3818"/>
  </g>

  <!-- smartphone with a softly glowing screen (recent era), face up on top -->
  <g id="b3-phone" pointer-events="none">
    <rect x="324" y="162" width="18" height="10" fill="#1a1a1e"/>
    <rect x="324" y="162" width="18" height="1"  fill="#3a3a3e"/>
    <rect x="324" y="171" width="18" height="1"  fill="#0a0a0e"/>
    <rect x="324" y="162" width="1"  height="10" fill="#3a3a3e"/>
    <rect x="341" y="162" width="1"  height="10" fill="#0a0a0e"/>
    <!-- glowing screen content -->
    <rect x="326" y="164" width="14" height="6" fill="#3a5878"/>
    <rect x="326" y="164" width="14" height="1" fill="#5a78a8" opacity="0.85"/>
    <!-- two tiny app rectangles -->
    <rect x="328" y="166" width="2" height="2" fill="#fbe6a8" opacity="0.85"/>
    <rect x="332" y="166" width="2" height="2" fill="#a4d4a4" opacity="0.85"/>
    <rect x="336" y="166" width="2" height="2" fill="#e88c8c" opacity="0.85"/>
    <!-- soft glow halo -->
    <rect x="324" y="160" width="18" height="2" fill="#7898c8" opacity="0.30"/>
  </g>

  <!-- a small recent paperback book leaning on the right edge of the dresser -->
  <g id="b3-book" pointer-events="none">
    <rect x="328" y="142" width="14" height="20" fill="#5a3a58"/>
    <rect x="328" y="142" width="14" height="2"  fill="#7a4878"/>
    <rect x="328" y="160" width="14" height="2"  fill="#3a2238"/>
    <rect x="328" y="142" width="2"  height="20" fill="#3a2238"/>
    <rect x="340" y="142" width="2"  height="20" fill="#7a4878"/>
    <!-- title bar -->
    <rect x="330" y="148" width="10" height="1" fill="#e8c878" opacity="0.85"/>
    <rect x="330" y="151" width="6"  height="1" fill="#e8c878" opacity="0.65"/>
    <rect x="330" y="154" width="8"  height="1" fill="#e8c878" opacity="0.55"/>
  </g>

  <!-- ============= STACKED STORAGE BOXES (lower-right of dresser) ============= -->
  <g id="b3-boxes" pointer-events="none">
    <!-- soft shadow -->
    <ellipse cx="380" cy="288" rx="40" ry="4" fill="#1a0c08" opacity="0.45" filter="url(#b3SoftShadow)"/>

    <!-- bottom box -->
    <rect x="346" y="252" width="68" height="34" fill="#b88c5c"/>
    <rect x="346" y="252" width="68" height="3"  fill="#d8a878"/>
    <rect x="346" y="283" width="68" height="3"  fill="#7a5836"/>
    <rect x="346" y="252" width="2"  height="34" fill="#7a5836"/>
    <rect x="412" y="252" width="2"  height="34" fill="#5a3a20"/>
    <!-- tape across the top -->
    <rect x="346" y="262" width="68" height="3"  fill="#a88458"/>
    <!-- a faded label (year worn off) -->
    <rect x="362" y="268" width="34" height="10" fill="#f0dec0" opacity="0.85"/>
    <rect x="362" y="268" width="34" height="1"  fill="#a07854" opacity="0.6"/>
    <rect x="367" y="271" width="2" height="4" fill="#5a3818" opacity="0.55"/>
    <rect x="371" y="271" width="2" height="4" fill="#5a3818" opacity="0.55"/>
    <rect x="375" y="271" width="2" height="4" fill="#5a3818" opacity="0.45"/>
    <rect x="379" y="271" width="2" height="4" fill="#5a3818" opacity="0.40"/>
    <rect x="386" y="271" width="2" height="4" fill="#5a3818" opacity="0.30"/>
    <rect x="390" y="271" width="2" height="4" fill="#5a3818" opacity="0.20"/>

    <!-- middle box (slightly offset, leaning) -->
    <rect x="352" y="220" width="62" height="32" fill="#b88c5c"/>
    <rect x="352" y="220" width="62" height="3"  fill="#d8a878"/>
    <rect x="352" y="249" width="62" height="3"  fill="#7a5836"/>
    <rect x="352" y="220" width="2"  height="32" fill="#7a5836"/>
    <rect x="412" y="220" width="2"  height="32" fill="#5a3a20"/>
    <rect x="352" y="230" width="62" height="3"  fill="#a88458"/>
    <!-- a partial label -->
    <rect x="362" y="236" width="32" height="9" fill="#f0dec0" opacity="0.85"/>
    <rect x="365" y="239" width="2" height="3" fill="#5a3818" opacity="0.65"/>
    <rect x="369" y="239" width="2" height="3" fill="#5a3818" opacity="0.65"/>
    <rect x="373" y="239" width="2" height="3" fill="#5a3818" opacity="0.55"/>
    <rect x="377" y="239" width="2" height="3" fill="#5a3818" opacity="0.45"/>

    <!-- top small box, opened slightly with a flap -->
    <rect x="358" y="194" width="50" height="26" fill="#b88c5c"/>
    <rect x="358" y="194" width="50" height="3"  fill="#d8a878"/>
    <rect x="358" y="217" width="50" height="3"  fill="#7a5836"/>
    <rect x="358" y="194" width="2"  height="26" fill="#7a5836"/>
    <rect x="406" y="194" width="2"  height="26" fill="#5a3a20"/>
    <!-- open flap (one side up) -->
    <polygon points="358,194 384,194 380,184 360,184" fill="#a07852" opacity="0.95"/>
    <polygon points="358,194 384,194 380,184 360,184" fill="none" stroke="#5a3818" stroke-width="1" opacity="0.6"/>
    <!-- contents glimpse: corner of an old book and a wrapped frame -->
    <rect x="372" y="186" width="14" height="6" fill="#5a3a58" opacity="0.85"/>
    <rect x="372" y="186" width="14" height="1" fill="#7a4878" opacity="0.85"/>
    <rect x="386" y="187" width="6"  height="6" fill="#e8d2b4" opacity="0.85"/>
  </g>

  <!-- ============= BED CORNER (cropped at the right edge) ============= -->
  <g id="b3-bed" pointer-events="none">
    <!-- bed frame side -->
    <rect x="416" y="218" width="64" height="40" fill="url(#b3BedFrame)"/>
    <rect x="416" y="218" width="64" height="2"  fill="#a07050"/>

    <!-- mattress -->
    <rect x="420" y="194" width="60" height="24" fill="url(#b3Mattress)"/>
    <rect x="420" y="194" width="60" height="2"  fill="#f4e0c4"/>
    <rect x="420" y="216" width="60" height="2"  fill="#7a5436"/>

    <!-- patchwork quilt draping off the edge (different eras stitched together) -->
    <g id="b3-quilt">
      <!-- top corner of quilt visible -->
      <rect x="422" y="200" width="58" height="14" fill="#c89880"/>
      <!-- patches across the top -->
      <rect x="422" y="200" width="14" height="14" fill="#b07868"/>
      <rect x="436" y="200" width="14" height="14" fill="#d4a888"/>
      <rect x="450" y="200" width="14" height="14" fill="#7a8884"/>
      <rect x="464" y="200" width="16" height="14" fill="#a88468"/>
      <!-- stitch lines -->
      <rect x="436" y="200" width="1" height="14" fill="#3a2018" opacity="0.5"/>
      <rect x="450" y="200" width="1" height="14" fill="#3a2018" opacity="0.5"/>
      <rect x="464" y="200" width="1" height="14" fill="#3a2018" opacity="0.5"/>
      <!-- drape down the side of the bed -->
      <rect x="422" y="214" width="58" height="42" fill="#b07868"/>
      <rect x="422" y="214" width="58" height="2"  fill="#3a2018" opacity="0.55"/>
      <!-- patch column drape -->
      <rect x="430" y="214" width="14" height="42" fill="#d4a888"/>
      <rect x="444" y="214" width="14" height="42" fill="#7a8884"/>
      <rect x="458" y="214" width="22" height="42" fill="#a88468"/>
      <rect x="430" y="214" width="1"  height="42" fill="#3a2018" opacity="0.5"/>
      <rect x="444" y="214" width="1"  height="42" fill="#3a2018" opacity="0.5"/>
      <rect x="458" y="214" width="1"  height="42" fill="#3a2018" opacity="0.5"/>
      <!-- a few small embroidered flowers on the patches (subtle) -->
      <rect x="428" y="206" width="2" height="2" fill="#e8c878" opacity="0.85"/>
      <rect x="442" y="208" width="2" height="2" fill="#e8c878" opacity="0.85"/>
      <rect x="456" y="206" width="2" height="2" fill="#e8c878" opacity="0.7"/>
      <rect x="470" y="208" width="2" height="2" fill="#e8c878" opacity="0.7"/>
    </g>

    <!-- pillow cresting at the back -->
    <g id="b3-pillow">
      <rect x="422" y="178" width="58" height="20" fill="url(#b3Pillow)"/>
      <rect x="422" y="178" width="58" height="2"  fill="#fceadc"/>
      <rect x="422" y="196" width="58" height="2"  fill="#a87060"/>
      <rect x="424" y="180" width="2"  height="16" fill="#fceadc" opacity="0.85"/>
    </g>

    <!-- bed leg visible at the far right corner (peeking out below quilt drape) -->
    <rect x="470" y="256" width="6" height="14" fill="#3a2218"/>
    <rect x="470" y="256" width="2" height="14" fill="#7a4830"/>
  </g>

  <!-- ============= AMBIENT WARM DUST MOTES ============= -->
  <g pointer-events="none">
    <ellipse cx="92"  cy="124" rx="1.4" ry="1.4" fill="#fce8c8" opacity="0.7">
      <animate attributeName="opacity" values="0.7;0.18;0.7" dur="6s" repeatCount="indefinite"/>
    </ellipse>
    <ellipse cx="118" cy="160" rx="1.2" ry="1.2" fill="#fce8c8" opacity="0.6">
      <animate attributeName="opacity" values="0.6;0.16;0.6" dur="7.4s" repeatCount="indefinite"/>
    </ellipse>
    <ellipse cx="156" cy="138" rx="1.4" ry="1.4" fill="#fce8c8" opacity="0.65">
      <animate attributeName="opacity" values="0.65;0.20;0.65" dur="5.8s" repeatCount="indefinite"/>
    </ellipse>
    <ellipse cx="206" cy="106" rx="1.6" ry="1.6" fill="#fce8c8" opacity="0.7">
      <animate attributeName="opacity" values="0.7;0.22;0.7" dur="6.4s" repeatCount="indefinite"/>
    </ellipse>
    <ellipse cx="252" cy="138" rx="1.4" ry="1.4" fill="#fce8c8" opacity="0.65">
      <animate attributeName="opacity" values="0.65;0.18;0.65" dur="7s" repeatCount="indefinite"/>
    </ellipse>
    <ellipse cx="304" cy="118" rx="1.2" ry="1.2" fill="#fce8c8" opacity="0.6">
      <animate attributeName="opacity" values="0.6;0.18;0.6" dur="6.2s" repeatCount="indefinite"/>
    </ellipse>
    <ellipse cx="350" cy="146" rx="1.4" ry="1.4" fill="#fce8c8" opacity="0.65">
      <animate attributeName="opacity" values="0.65;0.20;0.65" dur="7.2s" repeatCount="indefinite"/>
    </ellipse>
    <ellipse cx="402" cy="166" rx="1.4" ry="1.4" fill="#fce8c8" opacity="0.65">
      <animate attributeName="opacity" values="0.65;0.20;0.65" dur="6.6s" repeatCount="indefinite"/>
    </ellipse>
    <ellipse cx="78"  cy="216" rx="1.2" ry="1.2" fill="#fce8c8" opacity="0.55">
      <animate attributeName="opacity" values="0.55;0.16;0.55" dur="5.6s" repeatCount="indefinite"/>
    </ellipse>
    <ellipse cx="148" cy="226" rx="1.4" ry="1.4" fill="#fce8c8" opacity="0.65">
      <animate attributeName="opacity" values="0.65;0.18;0.65" dur="6.8s" repeatCount="indefinite"/>
    </ellipse>
    <ellipse cx="224" cy="220" rx="1.2" ry="1.2" fill="#fce8c8" opacity="0.55">
      <animate attributeName="opacity" values="0.55;0.16;0.55" dur="7.4s" repeatCount="indefinite"/>
    </ellipse>
  </g>

  <!-- soft warm light drift overlay (apt 3 tone: faded warmth, slowest, dissolving) -->
  <rect width="480" height="320" fill="#ecd8c0" opacity="0.04" pointer-events="none">
    <animate attributeName="opacity" values="0.03;0.07;0.03" dur="22s" repeatCount="indefinite"/>
  </rect>

  <!-- side darkening (warmer than B2's) -->
  <rect x="0"   y="0" width="42" height="320" fill="url(#b3SidesL)" pointer-events="none"/>
  <rect x="438" y="0" width="42" height="320" fill="url(#b3SidesR)" pointer-events="none"/>

  <!-- soft outer vignette -->
  <rect x="0" y="0" width="480" height="320" fill="url(#b3Vignette)" pointer-events="none"/>

  <!-- ============= INTERACTIVE HOTSPOTS (transparent) ============= -->
  <!-- placed last so they sit on top, with cursor: pointer set in JS -->
  <g id="b3-hotspots" fill="transparent" stroke="none">
    <rect id="hit-window"  x="22"  y="56"  width="132" height="142"/>
    <rect id="hit-paint"   x="196" y="36"  width="138" height="86"/>
    <rect id="hit-ghost"   x="392" y="92"  width="48"  height="148"/>
    <rect id="hit-mirror"  x="244" y="84"  width="60"  height="66"/>
    <rect id="hit-photo"   x="350" y="80"  width="44"  height="40"/>
    <rect id="hit-lamp"    x="166" y="112" width="68"  height="60"/>
    <rect id="hit-toy"     x="226" y="148" width="32"  height="26"/>
    <rect id="hit-records" x="256" y="152" width="48"  height="22"/>
    <rect id="hit-clock"   x="298" y="146" width="24"  height="28"/>
    <rect id="hit-phone"   x="322" y="160" width="22"  height="14"/>
    <rect id="hit-book"    x="326" y="140" width="18"  height="22"/>
    <rect id="hit-dresser" x="166" y="174" width="180" height="80"/>
    <rect id="hit-boxes"   x="346" y="184" width="70"  height="104"/>
    <rect id="hit-pillow"  x="420" y="178" width="60"  height="22"/>
    <rect id="hit-quilt"   x="420" y="200" width="60"  height="58"/>
    <rect id="hit-bed"     x="416" y="218" width="64"  height="92"/>
    <rect id="hit-floor"   x="0"   y="252" width="346" height="68"/>
  </g>
</svg>
