<svg xmlns="http://www.w3.org/2000/svg" viewBox="0 0 480 320" shape-rendering="crispEdges">
  <title>Bedroom one memory fragment (apartment three) - softening at the edges</title>
  <desc>A warm bedroom that is slowly forgetting itself. Faded paint marks where things used to hang. The corner of a bed, cropped on the left: cream pillow, a small stack of folded clothes only half-folded, a faded dusty-rose duvet. A small nightstand with a dim peach-shaded lamp; behind the lamp, a framed photograph leans on the wall, but only its right edge is visible past the shade. An old pedestal fan to the right, blades turning slowly. A window past the fan with a soft afternoon view; the view changes between visits. The whole scene is washed slightly toward warm pale beige, like a photograph left out in the sun.</desc>

  <defs>
    <linearGradient id="b1Wall" x1="0" y1="0" x2="0" y2="1">
      <stop offset="0%"   stop-color="#e8d0bc"/>
      <stop offset="60%"  stop-color="#d8b8a0"/>
      <stop offset="100%" stop-color="#c0a090"/>
    </linearGradient>
    <linearGradient id="b1Floor" x1="0" y1="0" x2="0" y2="1">
      <stop offset="0%"   stop-color="#c0a080"/>
      <stop offset="100%" stop-color="#785838"/>
    </linearGradient>
    <radialGradient id="b1LampPool" cx="50%" cy="50%" r="60%">
      <stop offset="0%"   stop-color="#fde0a8" stop-opacity="0.40"/>
      <stop offset="55%"  stop-color="#f0a878" stop-opacity="0.14"/>
      <stop offset="100%" stop-color="#f0a878" stop-opacity="0"/>
    </radialGradient>
    <radialGradient id="b1LampShade" cx="50%" cy="20%" r="80%">
      <stop offset="0%"   stop-color="#fde8c8"/>
      <stop offset="100%" stop-color="#d09868"/>
    </radialGradient>
    <linearGradient id="b1Duvet" x1="0" y1="0" x2="0" y2="1">
      <stop offset="0%"   stop-color="#dca8a8"/>
      <stop offset="100%" stop-color="#985868"/>
    </linearGradient>
    <linearGradient id="b1Nightstand" x1="0" y1="0" x2="0" y2="1">
      <stop offset="0%"   stop-color="#a07858"/>
      <stop offset="100%" stop-color="#604030"/>
    </linearGradient>
    <linearGradient id="b1Frame" x1="0" y1="0" x2="0" y2="1">
      <stop offset="0%"   stop-color="#785838"/>
      <stop offset="100%" stop-color="#3a2818"/>
    </linearGradient>

    <!-- the three soft window scenes (the same view, gently relit) -->
    <linearGradient id="b1SkyAfternoon" x1="0" y1="0" x2="0" y2="1">
      <stop offset="0%"   stop-color="#f0e0c0"/>
      <stop offset="100%" stop-color="#e0b890"/>
    </linearGradient>
    <linearGradient id="b1SkyGolden" x1="0" y1="0" x2="0" y2="1">
      <stop offset="0%"   stop-color="#f8c898"/>
      <stop offset="100%" stop-color="#d8806b"/>
    </linearGradient>
    <linearGradient id="b1SkyDusk" x1="0" y1="0" x2="0" y2="1">
      <stop offset="0%"   stop-color="#d8b0c0"/>
      <stop offset="100%" stop-color="#886878"/>
    </linearGradient>

    <linearGradient id="b1SidesL" x1="0" y1="0" x2="1" y2="0">
      <stop offset="0%"   stop-color="#3a2818" stop-opacity="0.40"/>
      <stop offset="100%" stop-color="#3a2818" stop-opacity="0"/>
    </linearGradient>
    <linearGradient id="b1SidesR" x1="1" y1="0" x2="0" y2="0">
      <stop offset="0%"   stop-color="#3a2818" stop-opacity="0.40"/>
      <stop offset="100%" stop-color="#3a2818" stop-opacity="0"/>
    </linearGradient>

    <clipPath id="b1WindowClip">
      <rect x="356" y="46" width="98" height="128"/>
    </clipPath>
  </defs>

  <!-- ============= WALL ============= -->
  <rect width="480" height="320" fill="url(#b1Wall)"/>
  <!-- soft ceiling line -->
  <rect x="0" y="0" width="480" height="3" fill="#a87858" opacity="0.55"/>

  <!-- ============= FADED PAINT MARKS (rectangles where things used to hang) ============= -->
  <g id="b1-paint" pointer-events="none">
    <!-- portrait-shaped (a poster used to be here) -->
    <rect x="22" y="42" width="60" height="76" fill="#f0dcc8" opacity="0.55"/>
    <rect x="22" y="42" width="60" height="76" fill="none" stroke="#a87858" stroke-width="1" opacity="0.32"/>
    <!-- two tape strips at the top corners -->
    <rect x="24" y="44" width="14" height="3" fill="#dcc4ac" opacity="0.6"/>
    <rect x="66" y="44" width="14" height="3" fill="#dcc4ac" opacity="0.6"/>

    <!-- smaller landscape (a small frame hung beside it) -->
    <rect x="100" y="64" width="50" height="36" fill="#f0dcc8" opacity="0.50"/>
    <rect x="100" y="64" width="50" height="36" fill="none" stroke="#a87858" stroke-width="1" opacity="0.30"/>

    <!-- single nail holes -->
    <rect x="125" y="56" width="2" height="2" fill="#3a2818" opacity="0.55"/>
    <rect x="170" y="50" width="2" height="2" fill="#3a2818" opacity="0.55"/>
    <rect x="200" y="80" width="2" height="2" fill="#3a2818" opacity="0.45"/>
  </g>

  <!-- ============= WINDOW (right side; 3 rotating scenes; sheer curtain on left edge) ============= -->
  <!-- frame -->
  <g id="b1-window-frame" pointer-events="none">
    <rect x="350" y="40" width="110" height="140" fill="#684838"/>
    <rect x="350" y="40" width="110" height="2"   fill="#a87858"/>
    <rect x="350" y="40" width="2"   height="140" fill="#a87858"/>
    <rect x="458" y="40" width="2"   height="140" fill="#382818"/>
    <rect x="350" y="178" width="110" height="2"  fill="#382818"/>
    <!-- inner sill -->
    <rect x="352" y="174" width="106" height="4" fill="#a87858"/>
  </g>

  <!-- the three rotating scenes, clipped to the inner pane -->
  <g clip-path="url(#b1WindowClip)">
    <!-- A: quiet afternoon (warm cream sky + soft building rooftops) -->
    <g id="b1-window-a" pointer-events="none">
      <rect x="356" y="46" width="98" height="128" fill="url(#b1SkyAfternoon)"/>
      <!-- distant warm building outlines -->
      <rect x="356" y="148" width="22" height="26" fill="#a87060"/>
      <rect x="378" y="138" width="14" height="36" fill="#9c685c"/>
      <rect x="392" y="152" width="20" height="22" fill="#a87060"/>
      <rect x="412" y="142" width="14" height="32" fill="#9c685c"/>
      <rect x="426" y="156" width="20" height="18" fill="#a87060"/>
      <!-- a tiny lit window -->
      <rect x="384" y="150" width="2" height="2" fill="#fde8a8"/>
      <rect x="416" y="156" width="2" height="2" fill="#fde8a8"/>
    </g>
    <!-- B: golden hour (warm orange-amber, building silhouettes deeper) -->
    <g id="b1-window-b" pointer-events="none" visibility="hidden">
      <rect x="356" y="46" width="98" height="128" fill="url(#b1SkyGolden)"/>
      <!-- low warm sun glow -->
      <ellipse cx="392" cy="148" rx="46" ry="14" fill="#fde0a8" opacity="0.5"/>
      <rect x="356" y="148" width="22" height="26" fill="#5a3828"/>
      <rect x="378" y="138" width="14" height="36" fill="#4a2a20"/>
      <rect x="392" y="152" width="20" height="22" fill="#5a3828"/>
      <rect x="412" y="142" width="14" height="32" fill="#4a2a20"/>
      <rect x="426" y="156" width="20" height="18" fill="#5a3828"/>
      <rect x="384" y="150" width="2" height="2" fill="#fde8a8"/>
      <rect x="416" y="156" width="2" height="2" fill="#fde8a8"/>
    </g>
    <!-- C: dusk (soft pink-purple, warmer windows in distance) -->
    <g id="b1-window-c" pointer-events="none" visibility="hidden">
      <rect x="356" y="46" width="98" height="128" fill="url(#b1SkyDusk)"/>
      <!-- distant lit windows speckled across the silhouettes -->
      <rect x="356" y="148" width="22" height="26" fill="#3a2838"/>
      <rect x="378" y="138" width="14" height="36" fill="#2a1828"/>
      <rect x="392" y="152" width="20" height="22" fill="#3a2838"/>
      <rect x="412" y="142" width="14" height="32" fill="#2a1828"/>
      <rect x="426" y="156" width="20" height="18" fill="#3a2838"/>
      <!-- many small lit windows -->
      <rect x="362" y="156" width="2" height="2" fill="#fde8a8"/>
      <rect x="368" y="162" width="2" height="2" fill="#fde8a8"/>
      <rect x="384" y="148" width="2" height="2" fill="#fde8a8"/>
      <rect x="384" y="158" width="2" height="2" fill="#fde8a8"/>
      <rect x="398" y="160" width="2" height="2" fill="#fde8a8"/>
      <rect x="416" y="150" width="2" height="2" fill="#fde8a8"/>
      <rect x="418" y="158" width="2" height="2" fill="#fde8a8"/>
      <rect x="430" y="162" width="2" height="2" fill="#fde8a8"/>
      <rect x="438" y="164" width="2" height="2" fill="#fde8a8"/>
    </g>
  </g>

  <!-- mullions over the scene -->
  <g pointer-events="none">
    <rect x="356" y="108" width="98" height="2" fill="#684838"/>
    <rect x="402" y="46"  width="2"  height="128" fill="#684838"/>
  </g>

  <!-- curtain rod (static) -->
  <g id="b1-curtain-rod" pointer-events="none">
    <rect x="334" y="36" width="138" height="2" fill="#684838"/>
    <rect x="332" y="34" width="3"   height="6" fill="#a87858"/>
    <rect x="473" y="34" width="3"   height="6" fill="#a87858"/>
  </g>

  <!-- two sliding curtain panels - start CLOSED (covering the window glass).
       javascript triggers the left + right panels to slide apart when the
       vignette opens, mirroring the master-bedroom curtain pattern in
       apartment one. each panel slides via Web Animations API; the closed
       state (transform: translate(0,0)) is the default. -->
  <g id="b1-curtain-left" pointer-events="none">
    <rect x="350" y="38" width="58" height="148" fill="#f4ecd8" opacity="0.88"/>
    <rect x="350" y="38" width="58" height="148" fill="#f4ecd8" opacity="0.25"/>
    <rect x="354" y="38" width="1"  height="148" fill="#d8c8b0" opacity="0.55"/>
    <rect x="362" y="38" width="1"  height="148" fill="#d8c8b0" opacity="0.45"/>
    <rect x="372" y="38" width="1"  height="148" fill="#d8c8b0" opacity="0.50"/>
    <rect x="382" y="38" width="1"  height="148" fill="#d8c8b0" opacity="0.45"/>
    <rect x="392" y="38" width="1"  height="148" fill="#d8c8b0" opacity="0.50"/>
    <rect x="400" y="38" width="1"  height="148" fill="#d8c8b0" opacity="0.55"/>
    <rect x="350" y="184" width="58" height="2" fill="#d8c8b0" opacity="0.6"/>
  </g>
  <g id="b1-curtain-right" pointer-events="none">
    <rect x="408" y="38" width="58" height="148" fill="#f4ecd8" opacity="0.88"/>
    <rect x="408" y="38" width="58" height="148" fill="#f4ecd8" opacity="0.25"/>
    <rect x="412" y="38" width="1"  height="148" fill="#d8c8b0" opacity="0.55"/>
    <rect x="420" y="38" width="1"  height="148" fill="#d8c8b0" opacity="0.45"/>
    <rect x="430" y="38" width="1"  height="148" fill="#d8c8b0" opacity="0.50"/>
    <rect x="440" y="38" width="1"  height="148" fill="#d8c8b0" opacity="0.45"/>
    <rect x="452" y="38" width="1"  height="148" fill="#d8c8b0" opacity="0.50"/>
    <rect x="460" y="38" width="1"  height="148" fill="#d8c8b0" opacity="0.55"/>
    <rect x="408" y="184" width="58" height="2" fill="#d8c8b0" opacity="0.6"/>
  </g>

  <!-- ============= SOFT LAMP POOL across the central area ============= -->
  <ellipse cx="240" cy="200" rx="200" ry="100" fill="url(#b1LampPool)" pointer-events="none">
    <!-- "lighting shifts gently between moments" - slow warm swell -->
    <animate attributeName="opacity" values="0.85;1;0.78;1;0.88" dur="14s" repeatCount="indefinite"/>
  </ellipse>

  <!-- ============= FLOOR ============= -->
  <rect x="0" y="225" width="480" height="3"  fill="#684838"/>
  <rect x="0" y="225" width="480" height="1"  fill="#a87858"/>
  <rect x="0" y="228" width="480" height="92" fill="url(#b1Floor)"/>
  <!-- floorboard seams -->
  <rect x="0"   y="282" width="480" height="1" fill="#3a2818" opacity="0.55"/>
  <rect x="80"  y="228" width="1"   height="92" fill="#3a2818" opacity="0.45"/>
  <rect x="200" y="228" width="1"   height="92" fill="#3a2818" opacity="0.45"/>
  <rect x="320" y="228" width="1"   height="92" fill="#3a2818" opacity="0.45"/>
  <rect x="420" y="228" width="1"   height="92" fill="#3a2818" opacity="0.45"/>

  <!-- ============= BED (left edge cropped; pillow, folded clothes, faded duvet) ============= -->
  <g id="b1-bed" pointer-events="none">
    <!-- headboard fragment peeking from off-screen left -->
    <rect x="-4" y="108" width="14" height="76" fill="#785030"/>
    <rect x="-4" y="108" width="14" height="2"  fill="#a87858"/>
    <rect x="8"  y="108" width="2"  height="76" fill="#382818"/>

    <!-- bed frame / base -->
    <rect x="-4" y="225" width="210" height="34" fill="#785030"/>
    <rect x="-4" y="225" width="210" height="2"  fill="#a87858"/>
    <rect x="-4" y="257" width="210" height="2"  fill="#382818"/>
    <!-- legs -->
    <rect x="0"   y="259" width="6" height="14" fill="#382818"/>
    <rect x="198" y="259" width="6" height="14" fill="#382818"/>

    <!-- mattress (cream) -->
    <rect x="-4" y="178" width="210" height="22" fill="#f4e8d0"/>
    <rect x="-4" y="178" width="210" height="2"  fill="#fdf6e6"/>
    <rect x="-4" y="198" width="210" height="2"  fill="#c8b894"/>
    <!-- a few quilted-stitch dots on the mattress -->
    <rect x="50"  y="190" width="2" height="2" fill="#c8b894" opacity="0.7"/>
    <rect x="100" y="190" width="2" height="2" fill="#c8b894" opacity="0.7"/>
    <rect x="150" y="190" width="2" height="2" fill="#c8b894" opacity="0.7"/>

    <!-- pillow -->
    <rect x="10" y="148" width="80" height="32" fill="#f8eedc"/>
    <rect x="10" y="148" width="80" height="2"  fill="#fdf6e6"/>
    <rect x="10" y="178" width="80" height="2"  fill="#c8b8a0"/>
    <rect x="10" y="148" width="2"  height="32" fill="#fdf6e6"/>
    <rect x="88" y="148" width="2"  height="32" fill="#c8b8a0"/>
    <!-- a faint fold line down the middle -->
    <rect x="48" y="152" width="1" height="24" fill="#c8b8a0" opacity="0.5"/>

    <!-- duvet (faded dusty rose) covering the bottom of the bed -->
    <rect x="-4" y="200" width="210" height="28" fill="url(#b1Duvet)"/>
    <rect x="-4" y="200" width="210" height="2"  fill="#e8b8b8"/>
    <!-- subtle wrinkle lines -->
    <rect x="20"  y="208" width="40" height="1" fill="#88485c" opacity="0.55"/>
    <rect x="80"  y="214" width="50" height="1" fill="#88485c" opacity="0.55"/>
    <rect x="140" y="206" width="40" height="1" fill="#88485c" opacity="0.55"/>
    <rect x="60"  y="220" width="120" height="1" fill="#88485c" opacity="0.4"/>
  </g>

  <!-- folded clothes on the bed (small stack of three half-folded items) -->
  <g id="b1-folded" pointer-events="none">
    <!-- bottom item (soft sage) -->
    <rect x="108" y="170" width="64" height="10" fill="#a8b890"/>
    <rect x="108" y="170" width="64" height="1"  fill="#c8d8a8"/>
    <rect x="108" y="178" width="64" height="2"  fill="#687848"/>
    <rect x="138" y="170" width="1"  height="10" fill="#687848" opacity="0.6"/>
    <!-- middle item (soft lavender) -->
    <rect x="112" y="162" width="58" height="8"  fill="#b8a8c8"/>
    <rect x="112" y="162" width="58" height="1"  fill="#d0c0e0"/>
    <rect x="112" y="169" width="58" height="1"  fill="#7a6888"/>
    <rect x="140" y="162" width="1"  height="8"  fill="#7a6888" opacity="0.6"/>
    <!-- top item (soft butter yellow), slightly askew -->
    <g transform="rotate(-2 138 158)">
      <rect x="116" y="155" width="48" height="7" fill="#e8d8a0"/>
      <rect x="116" y="155" width="48" height="1" fill="#fdedb8"/>
      <rect x="116" y="161" width="48" height="1" fill="#988830"/>
      <rect x="138" y="155" width="1"  height="7" fill="#988830" opacity="0.6"/>
    </g>
  </g>

  <!-- ============= FRAMED PHOTO (on the floor leaning against the wall behind the nightstand.
       drawn BEFORE the nightstand so the nightstand body naturally covers the frame's lower
       middle - the floor connection stays visible as a right-edge sliver past the nightstand.) ============= -->
  <g id="b1-frame" pointer-events="none">
    <!-- soft contact shadow on the floor where the frame's right edge rests -->
    <ellipse cx="296" cy="226" rx="14" ry="2.5" fill="#3a2818" opacity="0.55"/>

    <!-- frame body (extends from the wall down to the floor at y=225) -->
    <rect x="232" y="128" width="76" height="97" fill="url(#b1Frame)"/>
    <rect x="232" y="128" width="76" height="2"  fill="#a87858"/>
    <rect x="232" y="128" width="2"  height="97" fill="#a87858"/>
    <rect x="306" y="128" width="2"  height="97" fill="#382818"/>
    <rect x="232" y="223" width="76" height="2"  fill="#382818"/>
    <!-- inner matte / paper -->
    <rect x="235" y="131" width="70" height="92" fill="#f4e0d0"/>

    <!-- the photo content (3 visit-rotating variants; sized to fill the frame) -->
    <g id="b1-photo-a">
      <!-- a person from behind: dark hair + warm shirt against a soft warm wall -->
      <rect x="235" y="131" width="70" height="55" fill="#e8d4c0"/>
      <rect x="235" y="186" width="70" height="37" fill="#f4e8d8"/>
      <rect x="235" y="185" width="70" height="1"  fill="#c8b09c"/>
      <!-- hair -->
      <rect x="256" y="148" width="30" height="22" fill="#3a2018"/>
      <rect x="260" y="144" width="22" height="4"  fill="#3a2018"/>
      <!-- neck -->
      <rect x="263" y="170" width="16" height="6"  fill="#a87858"/>
      <!-- shoulders/back (warm brown shirt) -->
      <rect x="246" y="176" width="50" height="47" fill="#a86848"/>
      <rect x="246" y="176" width="50" height="2"  fill="#c88860"/>
    </g>
    <g id="b1-photo-b" visibility="hidden">
      <!-- a tree against pale sky -->
      <rect x="235" y="131" width="70" height="62" fill="#a8c8d8"/>
      <rect x="235" y="193" width="70" height="30" fill="#88a878"/>
      <rect x="235" y="193" width="70" height="2"  fill="#5a7038"/>
      <!-- low sun glow -->
      <ellipse cx="262" cy="148" rx="10" ry="4" fill="#fde8b8" opacity="0.6"/>
      <!-- distant tree -->
      <rect x="244" y="178" width="2"  height="15" fill="#384818"/>
      <rect x="241" y="172" width="8"  height="8"  fill="#384818"/>
      <!-- main tree -->
      <rect x="276" y="160" width="4"  height="33" fill="#384818"/>
      <rect x="266" y="142" width="24" height="20" fill="#384818"/>
      <rect x="262" y="150" width="32" height="12" fill="#384818"/>
      <!-- a tiny bird -->
      <rect x="292" y="138" width="2" height="1" fill="#3a2018"/>
      <rect x="294" y="137" width="1" height="1" fill="#3a2018"/>
    </g>
    <g id="b1-photo-c" visibility="hidden">
      <!-- a profile silhouette of another person from a different year -->
      <rect x="235" y="131" width="70" height="92" fill="#f4e8d8"/>
      <!-- hair -->
      <rect x="258" y="146" width="22" height="4"  fill="#3a2018"/>
      <rect x="256" y="150" width="24" height="14" fill="#3a2018"/>
      <!-- face profile (warm tan) -->
      <rect x="280" y="152" width="4"  height="6"  fill="#a87858"/>
      <rect x="283" y="158" width="4"  height="4"  fill="#a87858"/>
      <rect x="286" y="162" width="2"  height="2"  fill="#a87858"/>
      <rect x="283" y="164" width="4"  height="3"  fill="#a87858"/>
      <rect x="283" y="168" width="4"  height="4"  fill="#a87858"/>
      <!-- neck -->
      <rect x="278" y="172" width="10" height="8"  fill="#a87858"/>
      <!-- shoulder + shirt -->
      <rect x="252" y="180" width="48" height="43" fill="#785838"/>
      <rect x="252" y="180" width="48" height="2"  fill="#a87858"/>
    </g>
  </g>

  <!-- ============= NIGHTSTAND ============= -->
  <g id="b1-nightstand" pointer-events="none">
    <rect x="215" y="205" width="70" height="58" fill="url(#b1Nightstand)"/>
    <rect x="215" y="205" width="70" height="2"  fill="#c8a888"/>
    <rect x="215" y="261" width="70" height="2"  fill="#3a2818"/>
    <rect x="215" y="205" width="2"  height="58" fill="#c8a888"/>
    <rect x="283" y="205" width="2"  height="58" fill="#3a2818"/>
    <!-- one drawer -->
    <rect x="219" y="216" width="62" height="18" fill="#785030"/>
    <rect x="219" y="216" width="62" height="2"  fill="#a07858"/>
    <rect x="219" y="232" width="62" height="2"  fill="#3a2818"/>
    <rect x="244" y="222" width="12" height="3"  fill="#d8b878"/>
    <!-- second drawer -->
    <rect x="219" y="238" width="62" height="18" fill="#785030"/>
    <rect x="219" y="238" width="62" height="2"  fill="#a07858"/>
    <rect x="219" y="254" width="62" height="2"  fill="#3a2818"/>
    <rect x="244" y="244" width="12" height="3"  fill="#d8b878"/>
    <!-- legs -->
    <rect x="217" y="263" width="4" height="10" fill="#3a2818"/>
    <rect x="279" y="263" width="4" height="10" fill="#3a2818"/>
  </g>

  <!-- ============= LAMP (on top of the nightstand) ============= -->
  <g id="b1-lamp">
    <!-- a small under-shade glow sliver -->
    <ellipse cx="250" cy="200" rx="30" ry="8" fill="#fde8b8" opacity="0.45" pointer-events="none"/>
    <!-- shade (trapezoid) -->
    <polygon points="225,160 275,160 282,200 218,200" fill="url(#b1LampShade)" pointer-events="none"/>
    <polygon points="225,160 275,160 282,200 218,200" fill="none" stroke="#a87838" stroke-width="1" pointer-events="none"/>
    <!-- cream trim at the bottom of the shade -->
    <rect x="218" y="196" width="64" height="3" fill="#fde8b8" pointer-events="none"/>
    <!-- pole -->
    <rect x="247" y="200" width="6" height="8" fill="#a87838" pointer-events="none"/>
    <!-- base -->
    <rect x="240" y="208" width="20" height="3" fill="#684838" pointer-events="none"/>
    <rect x="240" y="208" width="20" height="1" fill="#a87858" pointer-events="none"/>
  </g>

  <!-- ============= OLD PEDESTAL FAN (right of the nightstand; 3 rotation states per visit) ============= -->
  <g id="b1-fan">
    <!-- soft contact shadow under the base -->
    <ellipse cx="345" cy="270" rx="26" ry="3" fill="#3a2818" opacity="0.45" pointer-events="none"/>

    <!-- outer grille ring -->
    <ellipse cx="345" cy="190" rx="35" ry="35" fill="#d8c8a8" pointer-events="none"/>
    <ellipse cx="345" cy="190" rx="35" ry="35" fill="none" stroke="#3a2818" stroke-width="1" pointer-events="none"/>
    <!-- concentric grille lines -->
    <ellipse cx="345" cy="190" rx="28" ry="28" fill="none" stroke="#684838" stroke-width="1" opacity="0.55" pointer-events="none"/>
    <ellipse cx="345" cy="190" rx="20" ry="20" fill="none" stroke="#684838" stroke-width="1" opacity="0.55" pointer-events="none"/>
    <ellipse cx="345" cy="190" rx="12" ry="12" fill="none" stroke="#684838" stroke-width="1" opacity="0.55" pointer-events="none"/>

    <!-- BLADE STATE A: turns at a normal slow pace.
         we nest a second <g> so the animateTransform's rotate doesn't wipe
         out the parent's translate(345 190). -->
    <g id="b1-fan-a" pointer-events="none">
      <g transform="translate(345 190)">
        <g>
          <polygon points="0,-22 6,-2 -6,-2" fill="#684838"/>
          <polygon points="0,22 6,2 -6,2"    fill="#684838"/>
          <polygon points="-22,0 -2,-6 -2,6" fill="#684838"/>
          <polygon points="22,0 2,-6 2,6"    fill="#684838"/>
          <ellipse cx="0" cy="0" rx="4" ry="4" fill="#3a2818"/>
          <animateTransform attributeName="transform" type="rotate" from="0" to="360" dur="2.6s" repeatCount="indefinite"/>
        </g>
      </g>
    </g>
    <!-- BLADE STATE B: turns slowly, dragging - "reflections lag slightly behind" -->
    <g id="b1-fan-b" pointer-events="none" visibility="hidden">
      <g transform="translate(345 190)">
        <g>
          <polygon points="0,-22 6,-2 -6,-2" fill="#684838"/>
          <polygon points="0,22 6,2 -6,2"    fill="#684838"/>
          <polygon points="-22,0 -2,-6 -2,6" fill="#684838"/>
          <polygon points="22,0 2,-6 2,6"    fill="#684838"/>
          <ellipse cx="0" cy="0" rx="4" ry="4" fill="#3a2818"/>
          <animateTransform attributeName="transform" type="rotate" from="0" to="360" dur="9s" repeatCount="indefinite"/>
        </g>
      </g>
    </g>
    <!-- BLADE STATE C: stopped (the fan is off this visit) -->
    <g id="b1-fan-c" pointer-events="none" visibility="hidden">
      <g transform="translate(345 190) rotate(45)">
        <polygon points="0,-22 6,-2 -6,-2" fill="#684838"/>
        <polygon points="0,22 6,2 -6,2"    fill="#684838"/>
        <polygon points="-22,0 -2,-6 -2,6" fill="#684838"/>
        <polygon points="22,0 2,-6 2,6"    fill="#684838"/>
        <ellipse cx="0" cy="0" rx="4" ry="4" fill="#3a2818"/>
      </g>
    </g>

    <!-- center axle visible above the blades -->
    <ellipse cx="345" cy="190" rx="4" ry="4" fill="#3a2818" pointer-events="none"/>

    <!-- stem / pedestal -->
    <rect x="341" y="225" width="8" height="40" fill="#684838" pointer-events="none"/>
    <rect x="341" y="225" width="2" height="40" fill="#a87858" pointer-events="none"/>
    <!-- base disk -->
    <ellipse cx="345" cy="266" rx="22" ry="4" fill="#684838" pointer-events="none"/>
    <ellipse cx="345" cy="264" rx="22" ry="4" fill="#a87858" pointer-events="none"/>
  </g>

  <!-- ============= DUST MOTES (sparse, drifting through the warm afternoon air) ============= -->
  <g id="b1-dust" pointer-events="none">
    <rect x="180" y="120" width="2" height="2" fill="#fde8b8" opacity="0">
      <animate attributeName="y"       values="120;240;120" dur="14s" repeatCount="indefinite"/>
      <animate attributeName="opacity" values="0;0.55;0"    dur="14s" repeatCount="indefinite"/>
    </rect>
    <rect x="280" y="80"  width="1" height="1" fill="#fde8b8" opacity="0">
      <animate attributeName="y"       values="80;240;80"   dur="22s" repeatCount="indefinite"/>
      <animate attributeName="opacity" values="0;0.55;0"    dur="22s" repeatCount="indefinite"/>
    </rect>
    <rect x="220" y="140" width="1" height="1" fill="#fde8b8" opacity="0">
      <animate attributeName="y"       values="140;240;140" dur="18s" repeatCount="indefinite"/>
      <animate attributeName="opacity" values="0;0.65;0"    dur="18s" repeatCount="indefinite"/>
    </rect>
    <rect x="148" y="100" width="1" height="1" fill="#fde8b8" opacity="0">
      <animate attributeName="y"       values="100;240;100" dur="20s" repeatCount="indefinite"/>
      <animate attributeName="opacity" values="0;0.55;0"    dur="20s" repeatCount="indefinite"/>
    </rect>
  </g>

  <!-- side darkening -->
  <rect x="0"   y="0" width="34" height="320" fill="url(#b1SidesL)" pointer-events="none"/>
  <rect x="446" y="0" width="34" height="320" fill="url(#b1SidesR)" pointer-events="none"/>

  <!-- soft outer vignette (sun-faded edges) -->
  <rect width="480" height="320" fill="none" stroke="#3a2818" stroke-width="20" opacity="0.40" pointer-events="none"/>

  <!-- ============= INTERACTION HOTSPOTS (broadest first; specific objects later so clicks resolve correctly) ============= -->
  <g id="b1-hotspots">
    <rect id="hit-floor"      x="0"   y="225" width="480" height="95"  fill="transparent" pointer-events="all"/>
    <rect id="hit-paint"      x="18"  y="38"  width="170" height="86"  fill="transparent" pointer-events="all"/>
    <rect id="hit-window"     x="338" y="34"  width="138" height="152" fill="transparent" pointer-events="all"/>
    <rect id="hit-bed"        x="0"   y="148" width="210" height="116" fill="transparent" pointer-events="all"/>
    <rect id="hit-pillow"     x="10"  y="148" width="82"  height="32"  fill="transparent" pointer-events="all"/>
    <rect id="hit-folded"     x="106" y="152" width="68"  height="32"  fill="transparent" pointer-events="all"/>
    <rect id="hit-duvet"      x="0"   y="200" width="210" height="60"  fill="transparent" pointer-events="all"/>
    <rect id="hit-nightstand" x="215" y="205" width="70"  height="60"  fill="transparent" pointer-events="all"/>
    <rect id="hit-lamp"       x="216" y="158" width="68"  height="54"  fill="transparent" pointer-events="all"/>
    <rect id="hit-photo"      x="232" y="128" width="76"  height="97"  fill="transparent" pointer-events="all"/>
    <rect id="hit-fan"        x="308" y="155" width="76"  height="120" fill="transparent" pointer-events="all"/>
  </g>
</svg>
