<svg width="612" height="759" viewBox="0 0 612 759" fill="none" xmlns="http://www.w3.org/2000/svg">
<rect x="1" y="4" width="602" height="752" fill="white" stroke="#A1E1FC" stroke-width="2"/>
<rect x="1" y="4" width="602" height="240" fill="#F5F5F5" stroke="#A1E1FC" stroke-width="2"/>
<rect x="129" y="244" width="150" height="246" fill="#F5F5F5" stroke="#A1E1FC" stroke-width="2"/>
<rect x="1" y="244" width="128" height="124" fill="#F5F5F5" stroke="#A1E1FC" stroke-width="2"/>
<rect x="1" y="366" width="128" height="124" fill="#F5F5F5" stroke="#A1E1FC" stroke-width="2"/>
<rect x="279" y="244" width="324" height="174" fill="#F5F5F5" stroke="#A1E1FC" stroke-width="2"/>
<rect x="1" y="654" width="118" height="102" fill="#F5F5F5" stroke="#A1E1FC" stroke-width="2"/>
<rect x="117" y="654" width="486" height="102" fill="#F5F5F5" stroke="#A1E1FC" stroke-width="2"/>
<rect x="441" y="536" width="162" height="118" fill="#F5F5F5" stroke="#A1E1FC" stroke-width="2"/>
<mask id="path-10-inside-1_1_49" fill="white">
<path d="M604 417V538H446V655.001H0.0185547V485.804H278.007V417H604Z"/>
</mask>
<path d="M604 417V538H446V655.001H0.0185547V485.804H278.007V417H604Z" fill="#F5F5F5"/>
<path d="M604 417H606V415H604V417ZM604 538V540H606V538H604ZM446 538V536H444V538H446ZM446 655.001V657.001H448V655.001H446ZM0.0185547 655.001H-1.98145V657.001H0.0185547V655.001ZM0.0185547 485.804V483.804H-1.98145V485.804H0.0185547ZM278.007 485.804V487.804H280.007V485.804H278.007ZM278.007 417V415H276.007V417H278.007ZM604 417H602V538H604H606V417H604ZM604 538V536H446V538V540H604V538ZM446 538H444V655.001H446H448V538H446ZM446 655.001V653.001H0.0185547V655.001V657.001H446V655.001ZM0.0185547 655.001H2.01855V485.804H0.0185547H-1.98145V655.001H0.0185547ZM0.0185547 485.804V487.804H278.007V485.804V483.804H0.0185547V485.804ZM278.007 485.804H280.007V417H278.007H276.007V485.804H278.007ZM278.007 417V419H604V417V415H278.007V417Z" fill="#A1E1FC" mask="url(#path-10-inside-1_1_49)"/>
<line x1="153" y1="244" x2="257" y2="244" stroke="#54CCFF" stroke-width="8" stroke-linecap="round"/>
<line x1="481" y1="755" x2="585" y2="755" stroke="#54CCFF" stroke-width="8" stroke-linecap="round"/>
<line x1="280" y1="279" x2="280" y2="383" stroke="#54CCFF" stroke-width="8" stroke-linecap="round"/>
<line x1="21" y1="244" x2="107" y2="244" stroke="#54CCFF" stroke-width="8" stroke-linecap="round"/>
<line x1="143" y1="654" x2="229" y2="654" stroke="url(#paint0_linear_1_49)" stroke-width="8" stroke-linecap="round"/>
<line x1="445" y1="553" x2="445" y2="639" stroke="url(#paint1_linear_1_49)" stroke-width="8" stroke-linecap="round"/>
<line x1="128" y1="384" x2="128" y2="470" stroke="#54CCFF" stroke-width="8" stroke-linecap="round"/>
<line x1="117" y1="667" x2="117" y2="743" stroke="#54CCFF" stroke-width="8" stroke-linecap="round"/>
<g filter="url(#filter0_d_1_49)">
<line x1="366" y1="4" x2="482" y2="4" stroke="#00B3FF" stroke-width="8" stroke-linecap="square"/>
</g>
<g filter="url(#filter1_d_1_49)">
<line x1="604" y1="279" x2="604" y2="363" stroke="#00B3FF" stroke-width="8" stroke-linecap="square"/>
</g>
<g filter="url(#filter2_d_1_49)">
<line x1="604" y1="435" x2="604" y2="519" stroke="#00B3FF" stroke-width="8" stroke-linecap="square"/>
</g>
<g filter="url(#filter3_d_1_49)">
<line x1="604" y1="554" x2="604" y2="638" stroke="#00B3FF" stroke-width="8" stroke-linecap="square"/>
</g>
<g filter="url(#filter4_d_1_49)">
<line x1="128" y1="4" x2="244" y2="4" stroke="#00B3FF" stroke-width="8" stroke-linecap="square"/>
</g>
<defs>
<filter id="filter0_d_1_49" x="358" y="0" width="132" height="16" filterUnits="userSpaceOnUse" color-interpolation-filters="sRGB">
<feFlood flood-opacity="0" result="BackgroundImageFix"/>
<feColorMatrix in="SourceAlpha" type="matrix" values="0 0 0 0 0 0 0 0 0 0 0 0 0 0 0 0 0 0 127 0" result="hardAlpha"/>
<feOffset dy="4"/>
<feGaussianBlur stdDeviation="2"/>
<feComposite in2="hardAlpha" operator="out"/>
<feColorMatrix type="matrix" values="0 0 0 0 0 0 0 0 0 0 0 0 0 0 0 0 0 0 0.25 0"/>
<feBlend mode="normal" in2="BackgroundImageFix" result="effect1_dropShadow_1_49"/>
<feBlend mode="normal" in="SourceGraphic" in2="effect1_dropShadow_1_49" result="shape"/>
</filter>
<filter id="filter1_d_1_49" x="596" y="275" width="16" height="100" filterUnits="userSpaceOnUse" color-interpolation-filters="sRGB">
<feFlood flood-opacity="0" result="BackgroundImageFix"/>
<feColorMatrix in="SourceAlpha" type="matrix" values="0 0 0 0 0 0 0 0 0 0 0 0 0 0 0 0 0 0 127 0" result="hardAlpha"/>
<feOffset dy="4"/>
<feGaussianBlur stdDeviation="2"/>
<feComposite in2="hardAlpha" operator="out"/>
<feColorMatrix type="matrix" values="0 0 0 0 0 0 0 0 0 0 0 0 0 0 0 0 0 0 0.25 0"/>
<feBlend mode="normal" in2="BackgroundImageFix" result="effect1_dropShadow_1_49"/>
<feBlend mode="normal" in="SourceGraphic" in2="effect1_dropShadow_1_49" result="shape"/>
</filter>
<filter id="filter2_d_1_49" x="596" y="431" width="16" height="100" filterUnits="userSpaceOnUse" color-interpolation-filters="sRGB">
<feFlood flood-opacity="0" result="BackgroundImageFix"/>
<feColorMatrix in="SourceAlpha" type="matrix" values="0 0 0 0 0 0 0 0 0 0 0 0 0 0 0 0 0 0 127 0" result="hardAlpha"/>
<feOffset dy="4"/>
<feGaussianBlur stdDeviation="2"/>
<feComposite in2="hardAlpha" operator="out"/>
<feColorMatrix type="matrix" values="0 0 0 0 0 0 0 0 0 0 0 0 0 0 0 0 0 0 0.25 0"/>
<feBlend mode="normal" in2="BackgroundImageFix" result="effect1_dropShadow_1_49"/>
<feBlend mode="normal" in="SourceGraphic" in2="effect1_dropShadow_1_49" result="shape"/>
</filter>
<filter id="filter3_d_1_49" x="596" y="550" width="16" height="100" filterUnits="userSpaceOnUse" color-interpolation-filters="sRGB">
<feFlood flood-opacity="0" result="BackgroundImageFix"/>
<feColorMatrix in="SourceAlpha" type="matrix" values="0 0 0 0 0 0 0 0 0 0 0 0 0 0 0 0 0 0 127 0" result="hardAlpha"/>
<feOffset dy="4"/>
<feGaussianBlur stdDeviation="2"/>
<feComposite in2="hardAlpha" operator="out"/>
<feColorMatrix type="matrix" values="0 0 0 0 0 0 0 0 0 0 0 0 0 0 0 0 0 0 0.25 0"/>
<feBlend mode="normal" in2="BackgroundImageFix" result="effect1_dropShadow_1_49"/>
<feBlend mode="normal" in="SourceGraphic" in2="effect1_dropShadow_1_49" result="shape"/>
</filter>
<filter id="filter4_d_1_49" x="120" y="0" width="132" height="16" filterUnits="userSpaceOnUse" color-interpolation-filters="sRGB">
<feFlood flood-opacity="0" result="BackgroundImageFix"/>
<feColorMatrix in="SourceAlpha" type="matrix" values="0 0 0 0 0 0 0 0 0 0 0 0 0 0 0 0 0 0 127 0" result="hardAlpha"/>
<feOffset dy="4"/>
<feGaussianBlur stdDeviation="2"/>
<feComposite in2="hardAlpha" operator="out"/>
<feColorMatrix type="matrix" values="0 0 0 0 0 0 0 0 0 0 0 0 0 0 0 0 0 0 0.25 0"/>
<feBlend mode="normal" in2="BackgroundImageFix" result="effect1_dropShadow_1_49"/>
<feBlend mode="normal" in="SourceGraphic" in2="effect1_dropShadow_1_49" result="shape"/>
</filter>
<linearGradient id="paint0_linear_1_49" x1="139" y1="658.5" x2="233" y2="658.5" gradientUnits="userSpaceOnUse">
<stop stop-color="#00B3FF"/>
<stop offset="1" stop-color="#006C99"/>
</linearGradient>
<linearGradient id="paint1_linear_1_49" x1="440.5" y1="549" x2="440.5" y2="643" gradientUnits="userSpaceOnUse">
<stop stop-color="#00B3FF"/>
<stop offset="1" stop-color="#006C99"/>
</linearGradient>
</defs>
</svg>
