<svg xmlns="http://www.w3.org/2000/svg" viewBox="0 0 480 320" shape-rendering="crispEdges">
  <title>Kitchen memory fragment</title>
  <desc>Cropped vignette: open refrigerator at night, butter tub of beans, leftovers, magnets and notes on the freezer door.</desc>

  <defs>
    <linearGradient id="kWall" x1="0" y1="0" x2="0" y2="1">
      <stop offset="0%" stop-color="#4c3a2e"/>
      <stop offset="50%" stop-color="#3c2c20"/>
      <stop offset="100%" stop-color="#281c14"/>
    </linearGradient>
    <linearGradient id="kFloor" x1="0" y1="0" x2="0" y2="1">
      <stop offset="0%" stop-color="#3a2a1c"/>
      <stop offset="100%" stop-color="#19110a"/>
    </linearGradient>
    <linearGradient id="kFridgeBody" x1="0" y1="0" x2="1" y2="0">
      <stop offset="0%" stop-color="#d4c8b0"/>
      <stop offset="50%" stop-color="#c8bca4"/>
      <stop offset="100%" stop-color="#a89e8a"/>
    </linearGradient>
    <linearGradient id="kInnerDoor" x1="0" y1="0" x2="1" y2="0">
      <stop offset="0%" stop-color="#aea692"/>
      <stop offset="100%" stop-color="#928a78"/>
    </linearGradient>
    <linearGradient id="kInteriorWall" x1="0" y1="0" x2="0" y2="1">
      <stop offset="0%" stop-color="#d8d2bc"/>
      <stop offset="100%" stop-color="#a0a09a"/>
    </linearGradient>
    <radialGradient id="kInteriorDepth" cx="58%" cy="44%" r="62%">
      <stop offset="0%" stop-color="#1a1810" stop-opacity="0"/>
      <stop offset="55%" stop-color="#10100a" stop-opacity="0.40"/>
      <stop offset="100%" stop-color="#000000" stop-opacity="0.78"/>
    </radialGradient>
    <radialGradient id="kFridgeSpill" cx="34%" cy="40%" r="68%">
      <stop offset="0%" stop-color="#f4e6c0" stop-opacity="0.32"/>
      <stop offset="55%" stop-color="#d8b87c" stop-opacity="0.10"/>
      <stop offset="100%" stop-color="#000000" stop-opacity="0"/>
    </radialGradient>
    <radialGradient id="kColdFog" cx="50%" cy="100%" r="78%">
      <stop offset="0%" stop-color="#d8e6ec" stop-opacity="0.34"/>
      <stop offset="60%" stop-color="#a0b8c4" stop-opacity="0.12"/>
      <stop offset="100%" stop-color="#000000" stop-opacity="0"/>
    </radialGradient>
    <linearGradient id="kSidesL" x1="0" y1="0" x2="1" y2="0">
      <stop offset="0%" stop-color="#000000" stop-opacity="0.45"/>
      <stop offset="100%" stop-color="#000000" stop-opacity="0"/>
    </linearGradient>
    <linearGradient id="kSidesR" x1="1" y1="0" x2="0" y2="0">
      <stop offset="0%" stop-color="#000000" stop-opacity="0.45"/>
      <stop offset="100%" stop-color="#000000" stop-opacity="0"/>
    </linearGradient>
    <filter id="kSoftGlow" x="-30%" y="-30%" width="160%" height="160%">
      <feGaussianBlur stdDeviation="1.4" result="b"/>
      <feMerge>
        <feMergeNode in="b"/>
        <feMergeNode in="SourceGraphic"/>
      </feMerge>
    </filter>
  </defs>

  <!-- ============= -->
  <!-- WALL & FLOOR -->
  <!-- ============= -->
  <rect width="480" height="320" fill="url(#kWall)"/>

  <!-- subtle wall tile lines -->
  <g id="kWallTexture" pointer-events="none" opacity="0.35">
    <rect x="0" y="60" width="480" height="1" fill="#5a4634"/>
    <rect x="0" y="120" width="480" height="1" fill="#5a4634"/>
    <rect x="0" y="180" width="480" height="1" fill="#5a4634"/>
    <rect x="120" y="0" width="1" height="290" fill="#5a4634" opacity="0.6"/>
    <rect x="240" y="0" width="1" height="290" fill="#5a4634" opacity="0.6"/>
    <rect x="360" y="0" width="1" height="290" fill="#5a4634" opacity="0.6"/>
  </g>

  <!-- side darkening to enforce tight cinematic crop -->
  <rect x="0" y="0" width="40" height="320" fill="url(#kSidesL)"/>
  <rect x="440" y="0" width="40" height="320" fill="url(#kSidesR)"/>

  <!-- baseboard + floor -->
  <rect x="0" y="288" width="480" height="4" fill="#5a4434"/>
  <rect x="0" y="288" width="480" height="2" fill="#7a5e44"/>
  <rect x="0" y="292" width="480" height="28" fill="url(#kFloor)"/>
  <rect x="0" y="304" width="480" height="1" fill="#0e0a06" opacity="0.55"/>
  <rect x="120" y="292" width="1" height="28" fill="#0e0a06" opacity="0.5"/>
  <rect x="280" y="292" width="1" height="28" fill="#0e0a06" opacity="0.5"/>
  <rect x="400" y="292" width="1" height="28" fill="#0e0a06" opacity="0.5"/>

  <!-- ============= -->
  <!-- COUNTER EDGE (right slice, partially visible) -->
  <!-- ============= -->
  <g id="counter-edge">
    <!-- counter top -->
    <rect x="350" y="180" width="130" height="10" fill="#6a5440"/>
    <rect x="350" y="180" width="130" height="2" fill="#8a7560"/>
    <rect x="350" y="188" width="130" height="2" fill="#3a2a1e"/>
    <!-- speckles on counter -->
    <rect x="362" y="184" width="2" height="1" fill="#5a4434" opacity="0.7"/>
    <rect x="380" y="183" width="2" height="1" fill="#5a4434" opacity="0.7"/>
    <rect x="408" y="185" width="2" height="1" fill="#5a4434" opacity="0.7"/>
    <rect x="430" y="184" width="2" height="1" fill="#5a4434" opacity="0.7"/>
    <rect x="452" y="183" width="2" height="1" fill="#5a4434" opacity="0.7"/>
    <!-- cabinet front -->
    <rect x="350" y="190" width="130" height="98" fill="#3a2c1e"/>
    <rect x="356" y="196" width="118" height="86" fill="#3a2c1e" stroke="#1a120c" stroke-width="2"/>
    <rect x="358" y="198" width="114" height="2" fill="#5a4434" opacity="0.55"/>
    <rect x="358" y="280" width="114" height="2" fill="#1a120c" opacity="0.6"/>
    <!-- cabinet handle -->
    <rect x="442" y="232" width="3" height="14" fill="#8a7050"/>
    <rect x="442" y="232" width="1" height="14" fill="#c8a878"/>
    <!-- a small cork coaster the moka pot rests on -->
    <g id="counter-coaster" pointer-events="none">
      <rect x="378" y="176" width="32" height="4" fill="#a87848"/>
      <rect x="378" y="176" width="32" height="1" fill="#c89860"/>
      <rect x="378" y="179" width="32" height="1" fill="#785432"/>
      <!-- bevelled side caps -->
      <rect x="376" y="177" width="2" height="2" fill="#785432"/>
      <rect x="410" y="177" width="2" height="2" fill="#785432"/>
      <!-- cork speckle texture -->
      <rect x="382" y="177" width="1" height="1" fill="#785432"/>
      <rect x="388" y="178" width="1" height="1" fill="#785432"/>
      <rect x="396" y="177" width="1" height="1" fill="#785432"/>
      <rect x="402" y="178" width="1" height="1" fill="#785432"/>
      <rect x="384" y="178" width="1" height="1" fill="#c89860"/>
      <rect x="392" y="177" width="1" height="1" fill="#c89860"/>
      <rect x="406" y="177" width="1" height="1" fill="#c89860"/>
    </g>

    <!-- a small moka pot on the counter (Bialetti-style, faceted aluminum) — lifted 4px so it visibly sits on the coaster -->
    <g id="counter-moka" pointer-events="none" transform="translate(0, -4)">
      <!-- spout (small pour on left of top chamber) -->
      <rect x="384" y="154" width="2" height="3" fill="#888888"/>
      <rect x="383" y="155" width="1" height="2" fill="#a0a0a0"/>

      <!-- bottom chamber (wider, faceted, sits on counter) -->
      <rect x="384" y="166" width="20" height="14" fill="#b8b8b8"/>
      <rect x="384" y="166" width="20" height="2" fill="#d8d8d8"/>
      <rect x="384" y="178" width="20" height="2" fill="#585858"/>
      <!-- side shadow strips (octagonal facet hint) -->
      <rect x="384" y="168" width="2" height="10" fill="#888888"/>
      <rect x="402" y="168" width="2" height="10" fill="#888888"/>
      <rect x="388" y="168" width="1" height="10" fill="#d8d8d8" opacity="0.6"/>
      <rect x="394" y="168" width="1" height="10" fill="#d8d8d8" opacity="0.5"/>
      <rect x="400" y="168" width="1" height="10" fill="#888888" opacity="0.7"/>

      <!-- pinch ring (joint between bottom and top chamber) -->
      <rect x="384" y="164" width="20" height="2" fill="#585858"/>
      <rect x="386" y="163" width="16" height="1" fill="#888888"/>

      <!-- top chamber (narrower, faceted) -->
      <rect x="386" y="152" width="16" height="12" fill="#b8b8b8"/>
      <rect x="386" y="152" width="16" height="2" fill="#d8d8d8"/>
      <rect x="386" y="162" width="16" height="2" fill="#888888"/>
      <rect x="386" y="154" width="2" height="8" fill="#888888"/>
      <rect x="400" y="154" width="2" height="8" fill="#888888"/>
      <rect x="390" y="154" width="1" height="8" fill="#d8d8d8" opacity="0.6"/>
      <rect x="396" y="154" width="1" height="8" fill="#888888" opacity="0.6"/>

      <!-- lid -->
      <rect x="388" y="150" width="12" height="2" fill="#a0a0a0"/>
      <rect x="388" y="150" width="12" height="1" fill="#c8c8c8"/>

      <!-- knob (black plastic) -->
      <rect x="392" y="146" width="4" height="4" fill="#1a1a1a"/>
      <rect x="392" y="146" width="2" height="1" fill="#3a3a3a"/>

      <!-- handle (black plastic, classic angular Bialetti shape, on right) -->
      <rect x="404" y="166" width="3" height="14" fill="#1a1a1a"/>
      <rect x="407" y="166" width="6" height="3" fill="#1a1a1a"/>
      <rect x="407" y="176" width="6" height="3" fill="#1a1a1a"/>
      <rect x="411" y="169" width="2" height="7" fill="#1a1a1a"/>
      <rect x="404" y="166" width="1" height="14" fill="#3a3a3a" opacity="0.7"/>

      <!-- faint warm glint from fridge spill on the polished aluminum -->
      <rect x="388" y="170" width="1" height="6" fill="#f4e6c0" opacity="0.45"/>
      <rect x="389" y="156" width="1" height="4" fill="#f4e6c0" opacity="0.35"/>
    </g>
    <!-- steam wisps drifting out of the moka pot lid (warm, off-white) -->
    <g id="moka-steam" pointer-events="none">
      <rect x="393" y="138" width="2" height="2" fill="#f4e8d0" opacity="0">
        <animate attributeName="y" values="140;130;118" dur="4.5s" begin="0s" repeatCount="indefinite"/>
        <animate attributeName="x" values="393;391;395;393" dur="4.5s" begin="0s" repeatCount="indefinite"/>
        <animate attributeName="opacity" values="0;0.7;0.45;0" dur="4.5s" begin="0s" repeatCount="indefinite"/>
      </rect>
      <rect x="395" y="138" width="2" height="2" fill="#f4e8d0" opacity="0">
        <animate attributeName="y" values="140;128;116" dur="5s" begin="1.6s" repeatCount="indefinite"/>
        <animate attributeName="x" values="395;397;393;395" dur="5s" begin="1.6s" repeatCount="indefinite"/>
        <animate attributeName="opacity" values="0;0.65;0.4;0" dur="5s" begin="1.6s" repeatCount="indefinite"/>
      </rect>
      <rect x="392" y="138" width="1" height="2" fill="#f4e8d0" opacity="0">
        <animate attributeName="y" values="140;132;120" dur="4s" begin="3.2s" repeatCount="indefinite"/>
        <animate attributeName="opacity" values="0;0.6;0.4;0" dur="4s" begin="3.2s" repeatCount="indefinite"/>
      </rect>
      <rect x="394" y="138" width="2" height="1" fill="#f4e8d0" opacity="0">
        <animate attributeName="y" values="138;126;114" dur="5.5s" begin="2.4s" repeatCount="indefinite"/>
        <animate attributeName="x" values="394;392;396;394" dur="5.5s" begin="2.4s" repeatCount="indefinite"/>
        <animate attributeName="opacity" values="0;0.55;0.35;0" dur="5.5s" begin="2.4s" repeatCount="indefinite"/>
      </rect>
    </g>

    <!-- a small chipped ceramic mug on the counter, just right of the moka — handle faces away from the moka -->
    <g id="counter-mug" pointer-events="none">
      <!-- mug body (cream ceramic) -->
      <rect x="418" y="164" width="18" height="16" fill="#e8d8c0"/>
      <!-- rim outer edge -->
      <rect x="418" y="164" width="18" height="1" fill="#f4e8d0"/>
      <!-- interior dark peek + coffee surface -->
      <rect x="420" y="165" width="14" height="1" fill="#2a1d10"/>
      <rect x="420" y="166" width="14" height="1" fill="#4a2818"/>
      <!-- chip on the rim -->
      <rect x="426" y="164" width="2" height="2" fill="#3a2818"/>
      <!-- left highlight (warm light from fridge spill) -->
      <rect x="418" y="167" width="2" height="11" fill="#f4e8d0" opacity="0.55"/>
      <!-- right shadow -->
      <rect x="434" y="167" width="2" height="13" fill="#c8b8a0"/>
      <!-- bottom shadow -->
      <rect x="418" y="178" width="18" height="2" fill="#a89880"/>
      <!-- decorative terracotta band around the middle -->
      <rect x="418" y="172" width="18" height="2" fill="#a85040"/>
      <rect x="418" y="172" width="18" height="1" fill="#c87060"/>
      <rect x="418" y="173" width="18" height="1" fill="#7a3424" opacity="0.4"/>
      <!-- subtle warm glint -->
      <rect x="420" y="169" width="1" height="3" fill="#f4e8d0" opacity="0.65"/>

      <!-- handle (cream C-shape on right side) -->
      <rect x="436" y="168" width="4" height="2" fill="#e8d8c0"/>
      <rect x="438" y="170" width="2" height="6" fill="#e8d8c0"/>
      <rect x="436" y="174" width="4" height="2" fill="#e8d8c0"/>
      <!-- handle inner edge highlight + outer shadow -->
      <rect x="437" y="170" width="1" height="6" fill="#f4e8d0" opacity="0.55"/>
      <rect x="439" y="170" width="1" height="6" fill="#c8b8a0" opacity="0.7"/>
    </g>

    <!-- a folded dish towel hanging from the counter -->
    <g id="counter-towel" pointer-events="none">
      <rect x="420" y="190" width="14" height="22" fill="#a85040"/>
      <rect x="420" y="190" width="14" height="2" fill="#c87060" opacity="0.7"/>
      <rect x="420" y="200" width="14" height="2" fill="#7a3424" opacity="0.6"/>
      <rect x="420" y="208" width="14" height="2" fill="#7a3424" opacity="0.6"/>
    </g>
  </g>

  <!-- ============= -->
  <!-- WARM SPILL ON WALL/FLOOR (fridge light bleeding outwards) -->
  <!-- ============= -->
  <g id="fridge-spill" pointer-events="none">
    <rect x="-20" y="0" width="380" height="290" fill="url(#kFridgeSpill)" opacity="0.85">
      <animate attributeName="opacity" values="0.72;0.92;0.78;0.90;0.74" dur="9s" repeatCount="indefinite"/>
    </rect>
    <!-- floor reflection of fridge light -->
    <rect x="40" y="290" width="320" height="6" fill="#e8d4a8" opacity="0.18"/>
    <rect x="60" y="291" width="280" height="3" fill="#f0e0b8" opacity="0.22"/>
    <!-- subtle flicker streak -->
    <rect x="60" y="290" width="2" height="2" fill="#fff0c0" opacity="0.5">
      <animate attributeName="opacity" values="0.1;0.7;0.2;0.6;0.1" dur="3.6s" repeatCount="indefinite"/>
    </rect>
  </g>

  <!-- ============= -->
  <!-- FRIDGE BODY -->
  <!-- ============= -->
  <g id="fridge-body">
    <rect x="56" y="22" width="288" height="266" fill="url(#kFridgeBody)"/>
    <rect x="56" y="22" width="288" height="3" fill="#e0d4bc"/>
    <rect x="56" y="22" width="288" height="266" fill="none" stroke="#6a5644" stroke-width="2"/>
    <!-- right side shadow strip -->
    <rect x="334" y="22" width="10" height="266" fill="#5a4838" opacity="0.45"/>
    <!-- bottom shadow / feet line -->
    <rect x="56" y="286" width="288" height="2" fill="#3a2c20"/>
    <!-- fridge feet -->
    <rect x="64" y="286" width="6" height="6" fill="#2a1d12"/>
    <rect x="330" y="286" width="6" height="6" fill="#2a1d12"/>
    <!-- aged spots / discolouration -->
    <rect x="74" y="44" width="14" height="3" fill="#a89880" opacity="0.55"/>
    <rect x="320" y="220" width="14" height="3" fill="#a89880" opacity="0.55"/>
    <rect x="80" y="270" width="22" height="2" fill="#a89880" opacity="0.5"/>
  </g>

  <!-- ============= -->
  <!-- FRIDGE INTERIOR (top compartment, OPEN) -->
  <!-- ============= -->
  <g id="fridge-interior">
    <!-- inner cavity background -->
    <rect x="64" y="30" width="272" height="146" fill="url(#kInteriorWall)"/>
    <!-- impossible-depth darkening at the back -->
    <g id="impossible-depth" pointer-events="none">
      <rect x="64" y="30" width="272" height="146" fill="url(#kInteriorDepth)" opacity="0.85">
        <animate attributeName="opacity" values="0.72;0.92;0.78;0.90;0.72" dur="11s" repeatCount="indefinite"/>
      </rect>
      <!-- the deepest void rectangle -->
      <rect x="170" y="60" width="100" height="58" fill="#0a0808" opacity="0.55">
        <animate attributeName="opacity" values="0.45;0.70;0.50;0.65;0.45" dur="13s" repeatCount="indefinite"/>
      </rect>
      <rect x="194" y="76" width="52" height="32" fill="#000000" opacity="0.7">
        <animate attributeName="opacity" values="0.55;0.85;0.60;0.80;0.55" dur="17s" repeatCount="indefinite"/>
      </rect>
    </g>
    <!-- inner cavity walls (subtle) -->
    <rect x="64" y="30" width="272" height="2" fill="#888070" opacity="0.7"/>
    <rect x="64" y="30" width="2" height="146" fill="#888070" opacity="0.7"/>
    <rect x="334" y="30" width="2" height="146" fill="#888070" opacity="0.7"/>
    <rect x="64" y="174" width="272" height="2" fill="#888070" opacity="0.7"/>
    <!-- subtle condensation droplets on the back wall -->
    <g id="kCondensation" pointer-events="none">
      <rect x="146" y="48" width="1" height="2" fill="#e6f0f4" opacity="0.55"/>
      <rect x="158" y="62" width="1" height="2" fill="#e6f0f4" opacity="0.45"/>
      <rect x="180" y="40" width="1" height="2" fill="#e6f0f4" opacity="0.6"/>
      <rect x="196" y="56" width="1" height="2" fill="#e6f0f4" opacity="0.5"/>
      <rect x="218" y="48" width="1" height="2" fill="#e6f0f4" opacity="0.55"/>
      <rect x="240" y="62" width="1" height="2" fill="#e6f0f4" opacity="0.45"/>
      <rect x="262" y="44" width="1" height="2" fill="#e6f0f4" opacity="0.5"/>
      <rect x="282" y="58" width="1" height="2" fill="#e6f0f4" opacity="0.55"/>
      <rect x="304" y="50" width="1" height="2" fill="#e6f0f4" opacity="0.45"/>
      <rect x="320" y="64" width="1" height="2" fill="#e6f0f4" opacity="0.5"/>
    </g>
  </g>

  <!-- ============= -->
  <!-- INNER DOOR PANEL (folded flap on left of cavity) - door bins -->
  <!-- ============= -->
  <g id="door-bins">
    <rect x="64" y="30" width="58" height="146" fill="url(#kInnerDoor)"/>
    <rect x="64" y="30" width="58" height="2" fill="#c4baa6"/>
    <rect x="120" y="30" width="2" height="146" fill="#5a5448"/>
    <rect x="64" y="30" width="2" height="146" fill="#888070"/>

    <!-- BIN 1 (top): condiment bottles -->
    <g id="bin-condiments">
      <rect x="68" y="44" width="50" height="36" fill="#988e7a" opacity="0.7"/>
      <rect x="68" y="78" width="50" height="2" fill="#5a5448"/>
      <!-- ketchup -->
      <rect x="74" y="50" width="6" height="28" fill="#b84838"/>
      <rect x="76" y="50" width="2" height="28" fill="#d86048" opacity="0.55"/>
      <rect x="74" y="48" width="6" height="3" fill="#3a1a14"/>
      <!-- mustard -->
      <rect x="84" y="52" width="6" height="26" fill="#c89438"/>
      <rect x="86" y="52" width="2" height="26" fill="#e0a850" opacity="0.55"/>
      <rect x="84" y="50" width="6" height="3" fill="#3a2814"/>
      <!-- soy sauce -->
      <rect x="94" y="50" width="8" height="28" fill="#3a1808"/>
      <rect x="96" y="52" width="2" height="24" fill="#5a2818" opacity="0.5"/>
      <rect x="94" y="48" width="8" height="3" fill="#1a0804"/>
      <rect x="96" y="58" width="4" height="3" fill="#e8d8b8" opacity="0.7"/>
      <!-- hot sauce -->
      <rect x="106" y="54" width="8" height="24" fill="#7a2818"/>
      <rect x="106" y="50" width="8" height="5" fill="#3a1408"/>
      <rect x="107" y="58" width="3" height="14" fill="#a83828" opacity="0.6"/>
    </g>

    <!-- BIN 2 (middle): milk + jam + juice -->
    <g id="bin-milk">
      <rect x="68" y="92" width="50" height="36" fill="#988e7a" opacity="0.7"/>
      <rect x="68" y="126" width="50" height="2" fill="#5a5448"/>
      <!-- milk carton -->
      <rect x="74" y="98" width="14" height="28" fill="#e8e0c8"/>
      <polygon points="74,98 88,98 86,94 76,94" fill="#c8c0a8"/>
      <rect x="76" y="106" width="10" height="4" fill="#4a8aa8" opacity="0.7"/>
      <!-- small jam jar -->
      <rect x="92" y="106" width="10" height="20" fill="#8a3838"/>
      <rect x="92" y="104" width="10" height="3" fill="#3a1818"/>
      <rect x="93" y="108" width="2" height="14" fill="#a85050" opacity="0.5"/>
      <!-- juice carton -->
      <rect x="106" y="100" width="10" height="26" fill="#d4a838"/>
      <polygon points="106,100 116,100 114,96 108,96" fill="#a88828"/>
      <rect x="108" y="108" width="6" height="5" fill="#e8d8b8" opacity="0.6"/>
    </g>

    <!-- BIN 3 (bottom): a small mystery container -->
    <g id="bin-mystery">
      <rect x="68" y="142" width="50" height="30" fill="#988e7a" opacity="0.7"/>
      <rect x="68" y="170" width="50" height="2" fill="#5a5448"/>
      <!-- a softening stick of butter in foil -->
      <rect x="74" y="150" width="22" height="14" fill="#d8c8a0"/>
      <rect x="74" y="150" width="22" height="2" fill="#e8d8b0"/>
      <rect x="74" y="162" width="22" height="2" fill="#a89070" opacity="0.7"/>
      <!-- a tiny tupperware -->
      <rect x="100" y="152" width="14" height="14" fill="#d4c8b0" opacity="0.85"/>
      <rect x="100" y="152" width="14" height="2" fill="#5a8a48"/>
      <rect x="102" y="156" width="10" height="6" fill="#a83828" opacity="0.5"/>
    </g>
  </g>

  <!-- ============= -->
  <!-- MAIN SHELVES (right portion of cavity) -->
  <!-- ============= -->
  <g id="shelf-rails" pointer-events="none">
    <!-- shelf 1 (top) -->
    <rect x="124" y="80" width="208" height="3" fill="#5a5448"/>
    <rect x="124" y="80" width="208" height="1" fill="#888070" opacity="0.6"/>
    <!-- shelf 2 (middle) -->
    <rect x="124" y="124" width="208" height="3" fill="#5a5448"/>
    <rect x="124" y="124" width="208" height="1" fill="#888070" opacity="0.6"/>
  </g>

  <!-- Items on TOP SHELF (leftovers) -->
  <g id="shelf-top">
    <!-- container 1: square tupperware with pasta -->
    <g id="container-pasta">
      <rect x="130" y="50" width="38" height="30" fill="#d4c8b0" opacity="0.85"/>
      <rect x="130" y="50" width="38" height="3" fill="#a89880" opacity="0.7"/>
      <rect x="130" y="76" width="38" height="3" fill="#5a5448" opacity="0.85"/>
      <rect x="134" y="58" width="30" height="14" fill="#d4a868" opacity="0.85"/>
      <rect x="138" y="62" width="3" height="3" fill="#b88438" opacity="0.7"/>
      <rect x="148" y="60" width="3" height="3" fill="#b88438" opacity="0.7"/>
      <rect x="156" y="64" width="3" height="3" fill="#b88438" opacity="0.7"/>
      <rect x="142" y="66" width="3" height="3" fill="#a87428" opacity="0.7"/>
      <rect x="152" y="68" width="3" height="3" fill="#a87428" opacity="0.7"/>
    </g>
    <!-- container 2: round bowl with foil -->
    <g id="container-foil">
      <rect x="180" y="58" width="34" height="22" fill="#888880" opacity="0.85"/>
      <rect x="180" y="58" width="34" height="3" fill="#a8a8a0"/>
      <rect x="182" y="60" width="2" height="2" fill="#c8c8c0" opacity="0.6"/>
      <rect x="188" y="60" width="3" height="2" fill="#c8c8c0" opacity="0.4"/>
      <rect x="196" y="60" width="2" height="2" fill="#c8c8c0" opacity="0.5"/>
      <rect x="202" y="60" width="3" height="2" fill="#c8c8c0" opacity="0.4"/>
      <rect x="208" y="60" width="2" height="2" fill="#c8c8c0" opacity="0.5"/>
      <rect x="180" y="58" width="2" height="2" fill="#5a5a50" opacity="0.6"/>
      <rect x="212" y="58" width="2" height="2" fill="#5a5a50" opacity="0.6"/>
    </g>
    <!-- container 3: small lidded cup (yogurt) -->
    <g id="container-yogurt">
      <rect x="226" y="60" width="18" height="20" fill="#d4c8b0" opacity="0.9"/>
      <rect x="226" y="60" width="18" height="3" fill="#5a8a48"/>
      <rect x="226" y="60" width="18" height="1" fill="#7aaa58"/>
      <rect x="228" y="66" width="14" height="3" fill="#a85050" opacity="0.6"/>
    </g>
    <!-- container 4: tall mason jar with pickles -->
    <g id="container-pickles">
      <rect x="256" y="46" width="20" height="34" fill="#7a8a4a" opacity="0.55"/>
      <rect x="256" y="46" width="20" height="3" fill="#3a2814"/>
      <rect x="258" y="50" width="2" height="26" fill="#a8b878" opacity="0.55"/>
      <rect x="260" y="58" width="3" height="8" fill="#5a7438"/>
      <rect x="264" y="56" width="3" height="10" fill="#5a7438"/>
      <rect x="268" y="60" width="3" height="6" fill="#4a6428"/>
      <rect x="262" y="68" width="3" height="6" fill="#4a6428"/>
    </g>
    <!-- container 5: time-of-day swap (defaults to leftover plate) -->
    <g id="time-item">
      <!-- variant: morning - a sliced fruit bowl -->
      <g id="time-morning" class="time-variant" visibility="hidden">
        <rect x="288" y="62" width="36" height="18" fill="#bfae8c" opacity="0.85"/>
        <rect x="288" y="62" width="36" height="3" fill="#a89272"/>
        <rect x="294" y="66" width="6" height="6" fill="#d49830"/>
        <rect x="304" y="68" width="6" height="6" fill="#a83828"/>
        <rect x="314" y="66" width="6" height="6" fill="#5a8a48"/>
      </g>
      <!-- variant: afternoon - sandwich bag -->
      <g id="time-afternoon" class="time-variant" visibility="hidden">
        <rect x="288" y="60" width="36" height="20" fill="#d8d0bc" opacity="0.55"/>
        <rect x="290" y="64" width="32" height="14" fill="#c8a868" opacity="0.85"/>
        <rect x="292" y="66" width="28" height="3" fill="#5a3818" opacity="0.6"/>
        <rect x="294" y="72" width="24" height="3" fill="#7a8a4a" opacity="0.7"/>
      </g>
      <!-- variant: evening - chinese takeout box (default for evening/night) -->
      <g id="time-evening" class="time-variant">
        <rect x="288" y="56" width="32" height="24" fill="#e8e0c8"/>
        <rect x="288" y="56" width="32" height="3" fill="#d4cab0"/>
        <rect x="302" y="56" width="2" height="24" fill="#a89880" opacity="0.6"/>
        <rect x="294" y="62" width="20" height="3" fill="#b84838"/>
        <rect x="296" y="68" width="14" height="2" fill="#b84838" opacity="0.7"/>
        <rect x="298" y="72" width="10" height="2" fill="#5a4634" opacity="0.6"/>
      </g>
      <!-- variant: night - empty plate covered in foil -->
      <g id="time-night" class="time-variant" visibility="hidden">
        <rect x="288" y="64" width="34" height="16" fill="#888880" opacity="0.85"/>
        <rect x="288" y="64" width="34" height="3" fill="#a8a8a0"/>
        <rect x="294" y="66" width="3" height="2" fill="#c8c8c0" opacity="0.5"/>
        <rect x="304" y="66" width="3" height="2" fill="#c8c8c0" opacity="0.5"/>
        <rect x="314" y="66" width="3" height="2" fill="#c8c8c0" opacity="0.5"/>
      </g>
    </g>
  </g>

  <!-- Items on MIDDLE SHELF - focal: BUTTER TUB OF BEANS -->
  <g id="shelf-middle">
    <!-- BUTTER TUB OF BEANS (FOCAL POINT) -->
    <g id="butter-tub-beans">
      <!-- tub body -->
      <rect x="132" y="92" width="48" height="32" fill="#ecdcb6"/>
      <!-- yellow lid -->
      <rect x="130" y="90" width="52" height="6" fill="#d8a838"/>
      <rect x="130" y="90" width="52" height="2" fill="#f0c878"/>
      <rect x="130" y="94" width="52" height="2" fill="#a87820" opacity="0.7"/>
      <!-- side shadow on tub -->
      <rect x="176" y="96" width="4" height="28" fill="#a89880" opacity="0.7"/>
      <!-- handwritten "BEANS" hint via dot row -->
      <rect x="138" y="104" width="2" height="2" fill="#3a2814"/>
      <rect x="142" y="104" width="2" height="2" fill="#3a2814"/>
      <rect x="146" y="104" width="2" height="2" fill="#3a2814"/>
      <rect x="150" y="104" width="2" height="2" fill="#3a2814"/>
      <rect x="154" y="104" width="2" height="2" fill="#3a2814"/>
      <rect x="158" y="104" width="2" height="2" fill="#3a2814"/>
      <rect x="162" y="104" width="2" height="2" fill="#3a2814"/>
      <rect x="166" y="104" width="2" height="2" fill="#3a2814"/>
      <rect x="170" y="104" width="2" height="2" fill="#3a2814"/>
      <!-- beans visible through translucent body -->
      <rect x="136" y="110" width="3" height="3" fill="#5a3828" opacity="0.85"/>
      <rect x="142" y="112" width="3" height="3" fill="#4a2818" opacity="0.85"/>
      <rect x="148" y="110" width="3" height="3" fill="#5a3828" opacity="0.85"/>
      <rect x="154" y="113" width="3" height="3" fill="#5a3828" opacity="0.85"/>
      <rect x="160" y="111" width="3" height="3" fill="#4a2818" opacity="0.85"/>
      <rect x="166" y="112" width="3" height="3" fill="#5a3828" opacity="0.85"/>
      <rect x="138" y="116" width="3" height="3" fill="#5a3828" opacity="0.85"/>
      <rect x="146" y="118" width="3" height="3" fill="#4a2818" opacity="0.85"/>
      <rect x="154" y="119" width="3" height="3" fill="#5a3828" opacity="0.85"/>
      <rect x="162" y="117" width="3" height="3" fill="#5a3828" opacity="0.85"/>
      <rect x="170" y="118" width="3" height="3" fill="#4a2818" opacity="0.85"/>
    </g>

    <!-- a 2L soda bottle next to it -->
    <g id="soda-bottle">
      <rect x="190" y="86" width="14" height="38" fill="#3a2818" opacity="0.9"/>
      <rect x="192" y="88" width="2" height="34" fill="#7a4828" opacity="0.4"/>
      <rect x="190" y="86" width="14" height="6" fill="#1a1208"/>
      <rect x="193" y="82" width="8" height="4" fill="#c84838"/>
      <rect x="190" y="100" width="14" height="6" fill="#e8e0c8" opacity="0.85"/>
      <rect x="191" y="101" width="12" height="2" fill="#3a2818"/>
    </g>

    <!-- old plastic container stack -->
    <g id="container-stack">
      <rect x="214" y="98" width="34" height="26" fill="#bfae8c" opacity="0.85"/>
      <rect x="214" y="98" width="34" height="3" fill="#a89272"/>
      <rect x="214" y="118" width="34" height="3" fill="#5a5448" opacity="0.85"/>
      <!-- second stacked container with mismatched lid -->
      <rect x="216" y="86" width="30" height="14" fill="#bfae8c" opacity="0.85"/>
      <rect x="216" y="86" width="30" height="3" fill="#5a8a48"/>
      <rect x="218" y="92" width="26" height="6" fill="#a85040" opacity="0.55"/>
    </g>

    <!-- egg carton corner -->
    <g id="egg-carton">
      <rect x="260" y="106" width="48" height="18" fill="#c8b89c"/>
      <rect x="260" y="106" width="48" height="3" fill="#a89880"/>
      <rect x="262" y="111" width="3" height="3" fill="#5a4838" opacity="0.5"/>
      <rect x="270" y="111" width="3" height="3" fill="#5a4838" opacity="0.5"/>
      <rect x="278" y="111" width="3" height="3" fill="#5a4838" opacity="0.5"/>
      <rect x="286" y="111" width="3" height="3" fill="#5a4838" opacity="0.5"/>
      <rect x="294" y="111" width="3" height="3" fill="#5a4838" opacity="0.5"/>
      <rect x="302" y="111" width="3" height="3" fill="#5a4838" opacity="0.5"/>
      <rect x="262" y="116" width="3" height="3" fill="#5a4838" opacity="0.5"/>
      <rect x="270" y="116" width="3" height="3" fill="#5a4838" opacity="0.5"/>
      <rect x="278" y="116" width="3" height="3" fill="#5a4838" opacity="0.5"/>
      <rect x="286" y="116" width="3" height="3" fill="#5a4838" opacity="0.5"/>
    </g>

    <!-- small wedge of cheese in wrap -->
    <g id="cheese-wedge">
      <rect x="316" y="106" width="14" height="18" fill="#e8d8a8"/>
      <rect x="316" y="106" width="14" height="3" fill="#d4c898"/>
      <rect x="316" y="112" width="14" height="2" fill="#a89070" opacity="0.6"/>
    </g>
  </g>

  <!-- Items on BOTTOM (crisper drawer) -->
  <g id="shelf-bottom">
    <rect x="124" y="140" width="208" height="32" fill="#a8a08c" opacity="0.85"/>
    <rect x="124" y="140" width="208" height="3" fill="#c8c0ac" opacity="0.85"/>
    <rect x="124" y="169" width="208" height="3" fill="#5a5448" opacity="0.85"/>
    <!-- drawer handle indent -->
    <rect x="220" y="148" width="20" height="3" fill="#5a5448"/>
    <!-- veg poking out -->
    <rect x="134" y="146" width="6" height="3" fill="#5a7438" opacity="0.7"/>
    <rect x="142" y="148" width="5" height="2" fill="#a83828" opacity="0.7"/>
    <rect x="180" y="148" width="6" height="3" fill="#d49830" opacity="0.7"/>
    <rect x="200" y="146" width="6" height="3" fill="#5a7438" opacity="0.7"/>
    <rect x="252" y="148" width="5" height="2" fill="#a83828" opacity="0.7"/>
    <rect x="304" y="148" width="6" height="3" fill="#d49830" opacity="0.7"/>
  </g>

  <!-- ============= -->
  <!-- COLD FOG (with hidden text reveal) -->
  <!-- ============= -->
  <g id="cold-fog" pointer-events="none">
    <rect x="56" y="60" width="288" height="220" fill="url(#kColdFog)" opacity="0.55">
      <animate attributeName="opacity" values="0.40;0.72;0.46;0.66;0.50" dur="8s" repeatCount="indefinite"/>
    </rect>
    <rect x="100" y="170" width="46" height="6" fill="#d8e6ec" opacity="0.18">
      <animate attributeName="y" values="170;196;170" dur="11s" repeatCount="indefinite"/>
      <animate attributeName="opacity" values="0.04;0.24;0.04" dur="11s" repeatCount="indefinite"/>
    </rect>
    <rect x="200" y="174" width="58" height="6" fill="#d8e6ec" opacity="0.18">
      <animate attributeName="y" values="174;204;174" dur="13s" repeatCount="indefinite"/>
      <animate attributeName="opacity" values="0.04;0.22;0.04" dur="13s" repeatCount="indefinite"/>
    </rect>
    <rect x="276" y="172" width="40" height="6" fill="#d8e6ec" opacity="0.18">
      <animate attributeName="y" values="172;200;172" dur="15s" repeatCount="indefinite"/>
      <animate attributeName="opacity" values="0.04;0.22;0.04" dur="15s" repeatCount="indefinite"/>
    </rect>
    <!-- hidden text revealed by fog (cycles via opacity) -->
    <g id="fog-hidden-text" filter="url(#kSoftGlow)">
      <text x="200" y="160" font-family="monospace" font-size="9" fill="#e6f0f4" text-anchor="middle" opacity="0">
        stay a while
        <animate attributeName="opacity" values="0;0;0;0;0.72;0.85;0.72;0;0;0;0;0;0;0;0" dur="22s" repeatCount="indefinite"/>
      </text>
    </g>
  </g>

  <!-- ============= -->
  <!-- DIVIDER between fridge interior and freezer door -->
  <!-- ============= -->
  <rect x="56" y="176" width="288" height="2" fill="#5a4634"/>
  <rect x="56" y="178" width="288" height="2" fill="#9a8a74" opacity="0.6"/>

  <!-- ============= -->
  <!-- FREEZER DOOR (closed, lower portion) -->
  <!-- ============= -->
  <g id="freezer-door">
    <rect x="56" y="180" width="288" height="106" fill="url(#kFridgeBody)"/>
    <rect x="56" y="180" width="288" height="3" fill="#e8d8b8"/>
    <rect x="56" y="180" width="288" height="106" fill="none" stroke="#5a4634" stroke-width="2"/>
    <!-- handle (vertical bar on left side) -->
    <rect x="74" y="200" width="4" height="64" fill="#888070"/>
    <rect x="74" y="200" width="2" height="64" fill="#a8a090"/>
    <rect x="74" y="262" width="4" height="2" fill="#5a5448"/>
    <!-- subtle aged streaks -->
    <rect x="92" y="220" width="50" height="1" fill="#a89880" opacity="0.4"/>
    <rect x="200" y="270" width="40" height="1" fill="#a89880" opacity="0.4"/>
  </g>

  <!-- ============= -->
  <!-- MAGNETS & NOTES on freezer door -->
  <!-- ============= -->
  <g id="magnets-notes">
    <!-- magnet: heart -->
    <g id="magnet-heart">
      <rect x="100" y="194" width="14" height="12" fill="#c84838"/>
      <rect x="98" y="196" width="4" height="6" fill="#c84838"/>
      <rect x="112" y="196" width="4" height="6" fill="#c84838"/>
      <rect x="100" y="194" width="14" height="2" fill="#e86848" opacity="0.6"/>
    </g>

    <!-- magnet: little star -->
    <g id="magnet-star">
      <rect x="138" y="196" width="12" height="12" fill="#d4a838"/>
      <rect x="142" y="194" width="4" height="2" fill="#d4a838"/>
      <rect x="142" y="208" width="4" height="2" fill="#d4a838"/>
      <rect x="136" y="200" width="2" height="4" fill="#d4a838"/>
      <rect x="150" y="200" width="2" height="4" fill="#d4a838"/>
      <rect x="138" y="196" width="12" height="2" fill="#e8c468" opacity="0.6"/>
    </g>

    <!-- note 1: paper held by a small magnet (lined paper) -->
    <g id="note-1" transform="rotate(-3 196 222)">
      <rect x="168" y="206" width="56" height="32" fill="#e8d8b8"/>
      <rect x="168" y="206" width="56" height="3" fill="#d4c8a8"/>
      <rect x="172" y="214" width="40" height="1" fill="#5a4634" opacity="0.7"/>
      <rect x="172" y="218" width="36" height="1" fill="#5a4634" opacity="0.7"/>
      <rect x="172" y="222" width="44" height="1" fill="#5a4634" opacity="0.7"/>
      <rect x="172" y="226" width="32" height="1" fill="#5a4634" opacity="0.7"/>
      <rect x="172" y="230" width="38" height="1" fill="#5a4634" opacity="0.7"/>
      <rect x="172" y="234" width="20" height="1" fill="#5a4634" opacity="0.7"/>
      <rect x="190" y="204" width="6" height="6" fill="#486898"/>
    </g>

    <!-- magnet: photo magnet (tiny family photo) -->
    <g id="magnet-photo">
      <rect x="240" y="196" width="22" height="20" fill="#e8d8b8"/>
      <rect x="240" y="196" width="22" height="2" fill="#d4c8a8"/>
      <rect x="242" y="200" width="18" height="14" fill="#c8b890"/>
      <rect x="246" y="206" width="3" height="4" fill="#5a4634"/>
      <rect x="252" y="204" width="3" height="6" fill="#5a4634"/>
      <rect x="256" y="206" width="3" height="4" fill="#5a4634"/>
    </g>

    <!-- magnet: pizza place magnet -->
    <g id="magnet-pizza">
      <rect x="280" y="196" width="34" height="14" fill="#c84838"/>
      <rect x="280" y="196" width="34" height="2" fill="#e86848" opacity="0.6"/>
      <rect x="284" y="201" width="26" height="6" fill="#e8d8b8" opacity="0.85"/>
      <rect x="284" y="201" width="26" height="2" fill="#d4c8a8" opacity="0.7"/>
      <rect x="286" y="204" width="2" height="2" fill="#5a4634"/>
      <rect x="290" y="204" width="2" height="2" fill="#5a4634"/>
      <rect x="294" y="204" width="2" height="2" fill="#5a4634"/>
      <rect x="298" y="204" width="2" height="2" fill="#5a4634"/>
      <rect x="302" y="204" width="2" height="2" fill="#5a4634"/>
      <rect x="306" y="204" width="2" height="2" fill="#5a4634"/>
    </g>

    <!-- note 2: a child's smiley drawing -->
    <g id="note-drawing" transform="rotate(4 132 248)">
      <rect x="106" y="232" width="54" height="32" fill="#e8d8b8"/>
      <rect x="106" y="232" width="54" height="3" fill="#d4c8a8"/>
      <!-- crude smiley -->
      <rect x="124" y="240" width="2" height="2" fill="#3a2418"/>
      <rect x="134" y="240" width="2" height="2" fill="#3a2418"/>
      <rect x="124" y="246" width="2" height="2" fill="#3a2418"/>
      <rect x="126" y="248" width="8" height="2" fill="#3a2418"/>
      <rect x="134" y="246" width="2" height="2" fill="#3a2418"/>
      <rect x="128" y="244" width="6" height="2" fill="#a83828" opacity="0.7"/>
      <rect x="130" y="230" width="6" height="6" fill="#5a8a48"/>
    </g>

    <!-- a clip magnet holding a small note -->
    <g id="magnet-clip">
      <rect x="200" y="252" width="40" height="6" fill="#5a8a48"/>
      <rect x="200" y="252" width="40" height="2" fill="#7aaa68" opacity="0.6"/>
      <rect x="206" y="258" width="28" height="14" fill="#e8d8b8"/>
      <rect x="208" y="262" width="20" height="1" fill="#5a4634" opacity="0.7"/>
      <rect x="208" y="266" width="16" height="1" fill="#5a4634" opacity="0.7"/>
    </g>

    <!-- a takeout receipt magnet -->
    <g id="magnet-receipt">
      <rect x="284" y="246" width="22" height="32" fill="#e8e0c8"/>
      <rect x="284" y="246" width="22" height="2" fill="#d4cab0"/>
      <rect x="286" y="250" width="18" height="1" fill="#5a4634" opacity="0.6"/>
      <rect x="286" y="254" width="14" height="1" fill="#5a4634" opacity="0.6"/>
      <rect x="286" y="258" width="16" height="1" fill="#5a4634" opacity="0.6"/>
      <rect x="286" y="262" width="12" height="1" fill="#5a4634" opacity="0.6"/>
      <rect x="286" y="266" width="14" height="1" fill="#5a4634" opacity="0.6"/>
      <rect x="286" y="270" width="10" height="1" fill="#5a4634" opacity="0.6"/>
      <rect x="290" y="244" width="6" height="6" fill="#a85040"/>
    </g>

    <!-- IMPOSSIBLE ITEM: tiny floating moon (intermittent) -->
    <g id="impossible-moon" pointer-events="none" opacity="0" filter="url(#kSoftGlow)">
      <animate attributeName="opacity" values="0;0;0;0;0;0.65;0.85;0.65;0;0;0;0" dur="26s" repeatCount="indefinite"/>
      <rect x="320" y="232" width="14" height="14" fill="#e8e8d8"/>
      <rect x="318" y="234" width="2" height="10" fill="#e8e8d8"/>
      <rect x="334" y="234" width="2" height="10" fill="#e8e8d8"/>
      <rect x="320" y="230" width="10" height="2" fill="#e8e8d8"/>
      <rect x="320" y="246" width="10" height="2" fill="#e8e8d8"/>
      <rect x="324" y="236" width="2" height="2" fill="#a8a898" opacity="0.7"/>
      <rect x="328" y="240" width="2" height="2" fill="#a8a898" opacity="0.7"/>
    </g>
  </g>

  <!-- subtle dust motes drifting in fridge spill -->
  <g id="kDust" pointer-events="none" opacity="0.55">
    <rect x="240" y="40" width="1" height="1" fill="#f0d8a8" opacity="0.6">
      <animate attributeName="y" values="40;110;40" dur="13s" repeatCount="indefinite"/>
      <animate attributeName="opacity" values="0.0;0.6;0.0" dur="13s" repeatCount="indefinite"/>
    </rect>
    <rect x="296" y="34" width="1" height="1" fill="#f0d8a8" opacity="0.5">
      <animate attributeName="y" values="34;120;34" dur="17s" repeatCount="indefinite"/>
      <animate attributeName="opacity" values="0.0;0.5;0.0" dur="17s" repeatCount="indefinite"/>
    </rect>
    <rect x="180" y="46" width="1" height="1" fill="#f0d8a8" opacity="0.5">
      <animate attributeName="y" values="46;120;46" dur="19s" repeatCount="indefinite"/>
      <animate attributeName="opacity" values="0.0;0.5;0.0" dur="19s" repeatCount="indefinite"/>
    </rect>
  </g>

  <!-- soft warm light drift overlay (apt 1 tone: warmest, densest) -->
  <rect width="480" height="320" fill="#f4d8a8" opacity="0.05" pointer-events="none">
    <animate attributeName="opacity" values="0.04;0.10;0.04" dur="14s" repeatCount="indefinite"/>
  </rect>

  <!-- Edge vignette -->
  <rect width="480" height="320" fill="none" stroke="#0a0810" stroke-width="22" opacity="0.42" pointer-events="none"/>

  <!-- ============= -->
  <!-- INTERACTION HOTSPOTS (transparent, on top) -->
  <!-- ============= -->
  <rect id="hit-butter-tub" x="130" y="90" width="52" height="36" fill="transparent" pointer-events="all"/>
  <rect id="hit-pasta" x="130" y="50" width="38" height="32" fill="transparent" pointer-events="all"/>
  <rect id="hit-foil" x="180" y="58" width="34" height="22" fill="transparent" pointer-events="all"/>
  <rect id="hit-yogurt" x="226" y="60" width="18" height="22" fill="transparent" pointer-events="all"/>
  <rect id="hit-pickles" x="256" y="46" width="20" height="36" fill="transparent" pointer-events="all"/>
  <rect id="hit-time-item" x="288" y="56" width="36" height="28" fill="transparent" pointer-events="all"/>
  <rect id="hit-condiments" x="64" y="42" width="58" height="40" fill="transparent" pointer-events="all"/>
  <rect id="hit-milk-bin" x="64" y="92" width="58" height="36" fill="transparent" pointer-events="all"/>
  <rect id="hit-mystery-bin" x="64" y="142" width="58" height="32" fill="transparent" pointer-events="all"/>
  <rect id="hit-soda" x="188" y="80" width="18" height="46" fill="transparent" pointer-events="all"/>
  <rect id="hit-stack" x="214" y="84" width="34" height="40" fill="transparent" pointer-events="all"/>
  <rect id="hit-eggs" x="260" y="106" width="48" height="20" fill="transparent" pointer-events="all"/>
  <rect id="hit-cheese" x="316" y="106" width="14" height="20" fill="transparent" pointer-events="all"/>
  <rect id="hit-crisper" x="124" y="140" width="208" height="32" fill="transparent" pointer-events="all"/>
  <rect id="hit-fog" x="120" y="60" width="200" height="100" fill="transparent" pointer-events="all"/>

  <rect id="hit-magnet-heart" x="96" y="192" width="22" height="18" fill="transparent" pointer-events="all"/>
  <rect id="hit-magnet-star" x="134" y="192" width="20" height="20" fill="transparent" pointer-events="all"/>
  <rect id="hit-note-1" x="166" y="204" width="60" height="38" fill="transparent" pointer-events="all"/>
  <rect id="hit-magnet-photo" x="240" y="194" width="22" height="22" fill="transparent" pointer-events="all"/>
  <rect id="hit-magnet-pizza" x="280" y="194" width="34" height="18" fill="transparent" pointer-events="all"/>
  <rect id="hit-note-drawing" x="104" y="230" width="60" height="38" fill="transparent" pointer-events="all"/>
  <rect id="hit-clip" x="198" y="250" width="44" height="26" fill="transparent" pointer-events="all"/>
  <rect id="hit-receipt" x="282" y="244" width="26" height="36" fill="transparent" pointer-events="all"/>
  <rect id="hit-impossible" x="316" y="228" width="22" height="22" fill="transparent" pointer-events="all"/>

  <rect id="hit-counter" x="350" y="178" width="130" height="112" fill="transparent" pointer-events="all"/>
  <!-- mug hotspot sits above hit-counter so it wins on the strip where the base touches the counter top -->
  <rect id="hit-mug" x="416" y="162" width="26" height="20" fill="transparent" pointer-events="all"/>
  <!-- moka pot hotspot — lifted to cover the post-translate silhouette + a bit of the steam plume -->
  <rect id="hit-moka" x="380" y="138" width="36" height="44" fill="transparent" pointer-events="all"/>
</svg>
