<svg xmlns="http://www.w3.org/2000/svg" viewBox="0 0 480 320" shape-rendering="crispEdges">
  <title>Closet three memory fragment (apartment four) - preserved travel</title>
  <desc>Looking straight into a tightly framed travel closet. The top shelf carries a hardshell suitcase laid flat with a small luggage tag, a tidy stack of folded jackets, and a soft duffel weekender with a small toiletries pouch on top. A hanging rod runs across the wall below the shelf with three hangers - a long charcoal coat, a cream jacket, a slate blazer - plus an olive backpack hung by its top strap. A small black hat hooks off the right wall and a long maroon scarf drapes from a small hook beside it. A low shoe rack along the bottom holds four pairs of muted shoes. Along the very floor, a thin warm strip of light bleeds in from beneath the closet door. A pair of slippers sits near the door and a folded carry tote leans on the opposite floor corner. Tiny dust on top of the luggage marks time that has passed without movement. Nothing animates.</desc>

  <defs>
    <linearGradient id="co43Wall" x1="0" y1="0" x2="0" y2="1">
      <stop offset="0%"   stop-color="#e6e0d2"/>
      <stop offset="65%"  stop-color="#d2cab4"/>
      <stop offset="100%" stop-color="#a8a08c"/>
    </linearGradient>
    <linearGradient id="co43ShelfWood" x1="0" y1="0" x2="0" y2="1">
      <stop offset="0%"   stop-color="#caba9c"/>
      <stop offset="100%" stop-color="#7a6c54"/>
    </linearGradient>

    <linearGradient id="co43Hardshell" x1="0" y1="0" x2="0" y2="1">
      <stop offset="0%"   stop-color="#7a8a96"/>
      <stop offset="100%" stop-color="#3a4a58"/>
    </linearGradient>
    <linearGradient id="co43Duffel" x1="0" y1="0" x2="0" y2="1">
      <stop offset="0%"   stop-color="#bca890"/>
      <stop offset="100%" stop-color="#7a6c54"/>
    </linearGradient>
    <linearGradient id="co43JacketStack" x1="0" y1="0" x2="0" y2="1">
      <stop offset="0%"   stop-color="#dcd2bc"/>
      <stop offset="100%" stop-color="#9a8c70"/>
    </linearGradient>

    <linearGradient id="co43LongCoat" x1="0" y1="0" x2="0" y2="1">
      <stop offset="0%"   stop-color="#7a7c80"/>
      <stop offset="100%" stop-color="#3a3c44"/>
    </linearGradient>
    <linearGradient id="co43CreamCoat" x1="0" y1="0" x2="0" y2="1">
      <stop offset="0%"   stop-color="#f0e6cc"/>
      <stop offset="100%" stop-color="#a89878"/>
    </linearGradient>
    <linearGradient id="co43SlateCoat" x1="0" y1="0" x2="0" y2="1">
      <stop offset="0%"   stop-color="#9aa8b4"/>
      <stop offset="100%" stop-color="#4a5460"/>
    </linearGradient>
    <linearGradient id="co43Backpack" x1="0" y1="0" x2="0" y2="1">
      <stop offset="0%"   stop-color="#8a987c"/>
      <stop offset="100%" stop-color="#4a5840"/>
    </linearGradient>
    <linearGradient id="co43Scarf" x1="0" y1="0" x2="0" y2="1">
      <stop offset="0%"   stop-color="#a48080"/>
      <stop offset="100%" stop-color="#5a3c3c"/>
    </linearGradient>

    <linearGradient id="co43ShoeBrown" x1="0" y1="0" x2="0" y2="1">
      <stop offset="0%"   stop-color="#9c7e5a"/>
      <stop offset="100%" stop-color="#4a3624"/>
    </linearGradient>
    <linearGradient id="co43ShoeWhite" x1="0" y1="0" x2="0" y2="1">
      <stop offset="0%"   stop-color="#f0ecdc"/>
      <stop offset="100%" stop-color="#a89878"/>
    </linearGradient>
    <linearGradient id="co43ShoeBlack" x1="0" y1="0" x2="0" y2="1">
      <stop offset="0%"   stop-color="#3a3a40"/>
      <stop offset="100%" stop-color="#0e0e14"/>
    </linearGradient>
    <linearGradient id="co43ShoeBeige" x1="0" y1="0" x2="0" y2="1">
      <stop offset="0%"   stop-color="#c8b094"/>
      <stop offset="100%" stop-color="#7a6244"/>
    </linearGradient>

    <linearGradient id="co43Tote" x1="0" y1="0" x2="0" y2="1">
      <stop offset="0%"   stop-color="#c4b8a0"/>
      <stop offset="100%" stop-color="#7a705a"/>
    </linearGradient>

    <radialGradient id="co43Light" cx="50%" cy="0%" r="65%">
      <stop offset="0%"   stop-color="#fff4d4" stop-opacity="0.30"/>
      <stop offset="55%"  stop-color="#f8e8c4" stop-opacity="0.10"/>
      <stop offset="100%" stop-color="#f8e8c4" stop-opacity="0"/>
    </radialGradient>

    <linearGradient id="co43DoorLight" x1="0" y1="0" x2="0" y2="1">
      <stop offset="0%"   stop-color="#fce8b8" stop-opacity="0"/>
      <stop offset="60%"  stop-color="#fce8b8" stop-opacity="0.45"/>
      <stop offset="100%" stop-color="#fff4d4" stop-opacity="0.85"/>
    </linearGradient>

    <linearGradient id="co43SidesL" x1="0" y1="0" x2="1" y2="0">
      <stop offset="0%"   stop-color="#22242a" stop-opacity="0.20"/>
      <stop offset="100%" stop-color="#22242a" stop-opacity="0"/>
    </linearGradient>
    <linearGradient id="co43SidesR" x1="1" y1="0" x2="0" y2="0">
      <stop offset="0%"   stop-color="#22242a" stop-opacity="0.20"/>
      <stop offset="100%" stop-color="#22242a" stop-opacity="0"/>
    </linearGradient>

    <radialGradient id="co43Vignette" cx="50%" cy="55%" r="72%">
      <stop offset="58%"  stop-color="#000000" stop-opacity="0"/>
      <stop offset="100%" stop-color="#1a1c20" stop-opacity="0.40"/>
    </radialGradient>
  </defs>

  <!-- ============= WALL ============= -->
  <rect width="480" height="320" fill="url(#co43Wall)"/>

  <!-- ceiling shadow -->
  <rect x="0" y="0" width="480" height="6" fill="#7a6c54" opacity="0.42" pointer-events="none"/>
  <rect x="0" y="6" width="480" height="1" fill="#3a2e1c" opacity="0.5" pointer-events="none"/>

  <!-- side closet trim -->
  <rect x="0"   y="0" width="14" height="320" fill="#a89878" opacity="0.55" pointer-events="none"/>
  <rect x="466" y="0" width="14" height="320" fill="#a89878" opacity="0.55" pointer-events="none"/>
  <rect x="14"  y="0" width="1"  height="320" fill="#5a4a30" opacity="0.55" pointer-events="none"/>
  <rect x="465" y="0" width="1"  height="320" fill="#5a4a30" opacity="0.55" pointer-events="none"/>

  <!-- soft overhead light pool -->
  <rect x="0" y="0" width="480" height="200" fill="url(#co43Light)" pointer-events="none"/>

  <!-- ============= TOP SHELF ITEMS ============= -->

  <!-- hardshell suitcase laid flat -->
  <g id="co43-suitcase-art">
    <!-- shadow on shelf below -->
    <rect x="40" y="78" width="172" height="2" fill="#1a160c" opacity="0.36"/>
    <!-- body -->
    <rect x="40" y="40" width="170" height="38" fill="url(#co43Hardshell)"/>
    <rect x="40" y="40" width="170" height="38" fill="none" stroke="#1a2026" stroke-width="1"/>
    <!-- top edge highlight -->
    <rect x="40" y="40" width="170" height="2" fill="#9aacb6"/>
    <!-- corner caps -->
    <rect x="40"  y="40" width="6" height="6" fill="#1a2026"/>
    <rect x="204" y="40" width="6" height="6" fill="#1a2026"/>
    <rect x="40"  y="72" width="6" height="6" fill="#1a2026"/>
    <rect x="204" y="72" width="6" height="6" fill="#1a2026"/>
    <!-- front-face center seam -->
    <rect x="124" y="42" width="1" height="34" fill="#1a2026" opacity="0.65"/>
    <!-- two latches -->
    <rect x="80"  y="56" width="14" height="6" fill="#cabd9c"/>
    <rect x="80"  y="56" width="14" height="1" fill="#fcf4dc"/>
    <rect x="80"  y="61" width="14" height="1" fill="#3a2e1c"/>
    <rect x="156" y="56" width="14" height="6" fill="#cabd9c"/>
    <rect x="156" y="56" width="14" height="1" fill="#fcf4dc"/>
    <rect x="156" y="61" width="14" height="1" fill="#3a2e1c"/>
    <!-- retracted handle on top -->
    <rect x="110" y="36" width="30" height="4" fill="#3a4048"/>
    <rect x="110" y="36" width="30" height="1" fill="#5a6068"/>
    <!-- subtle horizontal seam line -->
    <rect x="42" y="56" width="166" height="1" fill="#1a2026" opacity="0.32"/>
    <!-- specular highlight -->
    <rect x="46" y="44" width="1" height="30" fill="#ffffff" opacity="0.32"/>
  </g>

  <!-- luggage tag tied to handle (small) -->
  <g id="co43-suitcase-tag-art" pointer-events="none">
    <rect x="142" y="34" width="2" height="6" fill="#5a4a30"/>
    <rect x="138" y="40" width="14" height="14" fill="#dcc890"/>
    <rect x="138" y="40" width="14" height="14" fill="none" stroke="#7a5a36" stroke-width="0.7"/>
    <rect x="140" y="44" width="10" height="1" fill="#5a4a30"/>
    <rect x="140" y="47" width="8"  height="1" fill="#5a4a30" opacity="0.7"/>
    <rect x="140" y="50" width="9"  height="1" fill="#5a4a30" opacity="0.7"/>
  </g>

  <!-- tiny static dust on top of suitcase (preserved time) -->
  <g pointer-events="none" opacity="0.65">
    <rect x="64"  y="42" width="1" height="1" fill="#d4cdb8"/>
    <rect x="92"  y="42" width="1" height="1" fill="#d4cdb8"/>
    <rect x="120" y="42" width="1" height="1" fill="#d4cdb8"/>
    <rect x="156" y="42" width="1" height="1" fill="#d4cdb8"/>
    <rect x="184" y="42" width="1" height="1" fill="#d4cdb8"/>
    <rect x="78"  y="43" width="1" height="1" fill="#d4cdb8"/>
    <rect x="170" y="43" width="1" height="1" fill="#d4cdb8"/>
  </g>

  <!-- folded jacket stack (top shelf) -->
  <g id="co43-folded-stack-art">
    <rect x="220" y="78" width="60" height="2" fill="#1a160c" opacity="0.30"/>
    <rect x="220" y="48" width="60" height="6" fill="url(#co43JacketStack)"/>
    <rect x="220" y="48" width="60" height="1" fill="#fcf4e0"/>
    <rect x="220" y="54" width="60" height="1" fill="#9a8c70" opacity="0.55"/>
    <rect x="220" y="56" width="60" height="6" fill="url(#co43JacketStack)"/>
    <rect x="220" y="56" width="60" height="1" fill="#fcf4e0"/>
    <rect x="220" y="62" width="60" height="1" fill="#9a8c70" opacity="0.55"/>
    <rect x="220" y="64" width="60" height="6" fill="url(#co43JacketStack)"/>
    <rect x="220" y="64" width="60" height="1" fill="#fcf4e0"/>
    <rect x="220" y="70" width="60" height="1" fill="#9a8c70" opacity="0.55"/>
    <rect x="220" y="72" width="60" height="6" fill="url(#co43JacketStack)"/>
    <rect x="220" y="72" width="60" height="1" fill="#fcf4e0"/>
    <rect x="220" y="78" width="60" height="0" fill="url(#co43JacketStack)"/>
    <rect x="280" y="48" width="1" height="30" fill="#9a8c70" opacity="0.65"/>
    <rect x="220" y="48" width="60" height="30" fill="none" stroke="#7a6c54" stroke-width="0.6" opacity="0.55"/>
  </g>

  <!-- duffel bag (top shelf) -->
  <g id="co43-duffel-art">
    <rect x="288" y="78" width="124" height="2" fill="#1a160c" opacity="0.36"/>
    <!-- body -->
    <rect x="290" y="46" width="120" height="32" fill="url(#co43Duffel)"/>
    <rect x="290" y="46" width="120" height="32" fill="none" stroke="#3a2e1c" stroke-width="1"/>
    <!-- top edge highlight -->
    <rect x="290" y="46" width="120" height="2" fill="#d4c8b0"/>
    <!-- top zipper -->
    <rect x="290" y="56" width="120" height="1" fill="#5a4a30" opacity="0.7"/>
    <rect x="296" y="55" width="2"   height="3" fill="#3a2e1c"/>
    <rect x="328" y="55" width="2"   height="3" fill="#3a2e1c"/>
    <rect x="356" y="55" width="2"   height="3" fill="#3a2e1c"/>
    <rect x="388" y="55" width="2"   height="3" fill="#3a2e1c"/>
    <!-- two top handles -->
    <path d="M312,46 Q322,38 332,46" fill="none" stroke="#5a4a30" stroke-width="2"/>
    <path d="M368,46 Q378,38 388,46" fill="none" stroke="#5a4a30" stroke-width="2"/>
    <!-- shoulder strap draped over -->
    <rect x="290" y="62" width="120" height="3" fill="#5a4a30"/>
    <rect x="290" y="62" width="120" height="1" fill="#7a6c54"/>
    <!-- side end cap -->
    <ellipse cx="290" cy="62" rx="3" ry="14" fill="#9a8868" opacity="0.85"/>
    <ellipse cx="410" cy="62" rx="3" ry="14" fill="#9a8868" opacity="0.85"/>
  </g>

  <!-- toiletries pouch on top of duffel -->
  <g id="co43-pouch-art">
    <rect x="324" y="34" width="42" height="14" fill="#9a8068"/>
    <rect x="324" y="34" width="42" height="14" fill="none" stroke="#5a4a30" stroke-width="0.7"/>
    <rect x="324" y="34" width="42" height="2"  fill="#bba282"/>
    <!-- zipper -->
    <rect x="324" y="40" width="42" height="1" fill="#5a4a30" opacity="0.7"/>
    <rect x="328" y="39" width="2"  height="3" fill="#3a2e1c"/>
    <rect x="358" y="39" width="2"  height="3" fill="#3a2e1c"/>
    <!-- small static dust on pouch -->
    <rect x="338" y="36" width="1" height="1" fill="#d4cdb8" opacity="0.55"/>
    <rect x="350" y="36" width="1" height="1" fill="#d4cdb8" opacity="0.55"/>
  </g>

  <!-- tiny static dust on top of duffel -->
  <g pointer-events="none" opacity="0.55">
    <rect x="304" y="48" width="1" height="1" fill="#d4cdb8"/>
    <rect x="382" y="48" width="1" height="1" fill="#d4cdb8"/>
    <rect x="402" y="48" width="1" height="1" fill="#d4cdb8"/>
  </g>

  <!-- ============= TOP SHELF BOARD ============= -->
  <g id="co43-top-shelf-art" pointer-events="none">
    <rect x="16" y="80" width="448" height="8" fill="url(#co43ShelfWood)"/>
    <rect x="16" y="80" width="448" height="1" fill="#e0d4b4"/>
    <rect x="16" y="87" width="448" height="1" fill="#3a2e1c"/>
    <rect x="16" y="88" width="448" height="3" fill="#1a160c" opacity="0.32"/>
  </g>

  <!-- ============= HANGING ROD + BRACKETS ============= -->
  <g id="co43-rod-art" pointer-events="none">
    <!-- left bracket -->
    <rect x="20" y="92" width="6" height="2"  fill="#5a4a30"/>
    <rect x="20" y="94" width="2" height="8"  fill="#5a4a30"/>
    <!-- right bracket -->
    <rect x="454" y="92" width="6" height="2" fill="#5a4a30"/>
    <rect x="458" y="94" width="2" height="8" fill="#5a4a30"/>
    <!-- rod -->
    <rect x="20" y="98" width="440" height="3" fill="#7a6c54"/>
    <rect x="20" y="98" width="440" height="1" fill="#a8987c"/>
    <rect x="20" y="100" width="440" height="1" fill="#3a2e1c" opacity="0.7"/>
  </g>

  <!-- ============= HANGING ITEMS ============= -->

  <!-- long charcoal coat (hanger 1) -->
  <g id="co43-coat-long-art">
    <!-- hanger wire -->
    <path d="M70,98 L46,108 L94,108 Z" fill="none" stroke="#4a4030" stroke-width="1"/>
    <rect x="68" y="94" width="4" height="6" fill="#3a2e1c"/>
    <!-- hanger bar -->
    <rect x="38" y="106" width="64" height="2" fill="#5a4a30"/>
    <!-- shoulders/body trapezoid -->
    <polygon points="42,108 98,108 110,210 30,210" fill="url(#co43LongCoat)"/>
    <polygon points="42,108 98,108 110,210 30,210" fill="none" stroke="#1a2024" stroke-width="0.7"/>
    <!-- center seam -->
    <rect x="69" y="110" width="1" height="98" fill="#1a2024" opacity="0.55"/>
    <!-- collar -->
    <polygon points="58,108 70,108 70,118 58,116" fill="#5a5e64"/>
    <polygon points="70,108 82,108 82,116 70,118" fill="#5a5e64"/>
    <!-- two small front buttons -->
    <rect x="68" y="138" width="2" height="2" fill="#1a2024"/>
    <rect x="68" y="160" width="2" height="2" fill="#1a2024"/>
    <!-- subtle vertical fold -->
    <rect x="55" y="115" width="1" height="92" fill="#1a2024" opacity="0.32"/>
    <rect x="85" y="115" width="1" height="92" fill="#1a2024" opacity="0.32"/>
  </g>

  <!-- cream jacket (hanger 2, mid length) -->
  <g id="co43-coat-cream-art">
    <path d="M150,98 L126,108 L174,108 Z" fill="none" stroke="#4a4030" stroke-width="1"/>
    <rect x="148" y="94" width="4" height="6" fill="#3a2e1c"/>
    <rect x="118" y="106" width="64" height="2" fill="#5a4a30"/>
    <polygon points="122,108 178,108 188,176 112,176" fill="url(#co43CreamCoat)"/>
    <polygon points="122,108 178,108 188,176 112,176" fill="none" stroke="#7a6c54" stroke-width="0.7"/>
    <rect x="149" y="110" width="1" height="64" fill="#7a6c54" opacity="0.55"/>
    <polygon points="138,108 150,108 150,118 138,116" fill="#bcaa88"/>
    <polygon points="150,108 162,108 162,116 150,118" fill="#bcaa88"/>
    <rect x="148" y="134" width="2" height="2" fill="#7a6c54"/>
    <rect x="148" y="152" width="2" height="2" fill="#7a6c54"/>
    <rect x="135" y="115" width="1" height="58" fill="#7a6c54" opacity="0.30"/>
    <rect x="165" y="115" width="1" height="58" fill="#7a6c54" opacity="0.30"/>
  </g>

  <!-- slate blazer (hanger 3, mid length) -->
  <g id="co43-coat-slate-art">
    <path d="M230,98 L206,108 L254,108 Z" fill="none" stroke="#4a4030" stroke-width="1"/>
    <rect x="228" y="94" width="4" height="6" fill="#3a2e1c"/>
    <rect x="198" y="106" width="64" height="2" fill="#5a4a30"/>
    <polygon points="202,108 258,108 268,176 192,176" fill="url(#co43SlateCoat)"/>
    <polygon points="202,108 258,108 268,176 192,176" fill="none" stroke="#2a3440" stroke-width="0.7"/>
    <rect x="229" y="110" width="1" height="64" fill="#2a3440" opacity="0.55"/>
    <polygon points="218,108 230,108 230,118 218,116" fill="#5a6e7a"/>
    <polygon points="230,108 242,108 242,116 230,118" fill="#5a6e7a"/>
    <!-- breast pocket -->
    <rect x="244" y="138" width="14" height="3" fill="none" stroke="#2a3440" stroke-width="0.6" opacity="0.7"/>
    <rect x="215" y="115" width="1" height="58" fill="#2a3440" opacity="0.30"/>
    <rect x="245" y="115" width="1" height="58" fill="#2a3440" opacity="0.30"/>
  </g>

  <!-- olive backpack hanging from a hook on the rod -->
  <g id="co43-backpack-art">
    <!-- hook + strap loop -->
    <rect x="320" y="94" width="4" height="6" fill="#3a2e1c"/>
    <path d="M322,100 L322,118 M322,118 Q316,120 322,124" fill="none" stroke="#4a5840" stroke-width="2"/>
    <!-- top strap -->
    <rect x="316" y="118" width="14" height="6" fill="#5a6850"/>
    <!-- main body -->
    <rect x="290" y="124" width="68" height="80" fill="url(#co43Backpack)"/>
    <rect x="290" y="124" width="68" height="80" fill="none" stroke="#2c3624" stroke-width="1"/>
    <!-- top zipper -->
    <rect x="290" y="132" width="68" height="1" fill="#2c3624" opacity="0.85"/>
    <rect x="296" y="131" width="2" height="3" fill="#1a200e"/>
    <rect x="350" y="131" width="2" height="3" fill="#1a200e"/>
    <!-- front pocket -->
    <rect x="298" y="148" width="52" height="40" fill="#7a8868"/>
    <rect x="298" y="148" width="52" height="40" fill="none" stroke="#2c3624" stroke-width="0.7"/>
    <rect x="298" y="148" width="52" height="2"  fill="#94a884"/>
    <!-- pocket zipper -->
    <rect x="298" y="158" width="52" height="1" fill="#2c3624" opacity="0.85"/>
    <rect x="320" y="157" width="2"  height="3" fill="#1a200e"/>
    <!-- side mesh suggestion -->
    <rect x="354" y="148" width="4" height="40" fill="#7a8868" opacity="0.85"/>
    <rect x="290" y="148" width="4" height="40" fill="#7a8868" opacity="0.85"/>
    <!-- shoulder straps drooping -->
    <rect x="296" y="124" width="6" height="20" fill="#4a5840"/>
    <rect x="346" y="124" width="6" height="20" fill="#4a5840"/>
    <!-- bottom shadow band -->
    <rect x="290" y="200" width="68" height="4" fill="#2c3624" opacity="0.55"/>
  </g>

  <!-- hat hooked on right wall -->
  <g id="co43-hat-art">
    <!-- side hook -->
    <rect x="432" y="106" width="4" height="2" fill="#3a2e1c"/>
    <rect x="436" y="108" width="2" height="6" fill="#3a2e1c"/>
    <!-- hat brim (front view) -->
    <ellipse cx="412" cy="148" rx="32" ry="6" fill="#3a3a40"/>
    <!-- hat crown -->
    <rect x="386" y="124" width="52" height="22" fill="#3a3a40"/>
    <rect x="386" y="124" width="52" height="22" fill="none" stroke="#0e0e14" stroke-width="0.6"/>
    <!-- band -->
    <rect x="386" y="140" width="52" height="3" fill="#1a1a20"/>
    <rect x="386" y="140" width="52" height="1" fill="#5a5a64"/>
    <!-- top -->
    <ellipse cx="412" cy="124" rx="26" ry="3" fill="#5a5a64"/>
    <ellipse cx="412" cy="124" rx="22" ry="2" fill="#3a3a40"/>
  </g>

  <!-- maroon scarf draped from a small hook -->
  <g id="co43-scarf-art">
    <rect x="396" y="106" width="2" height="4" fill="#3a2e1c"/>
    <!-- scarf ribbon -->
    <rect x="380" y="110" width="36" height="100" fill="url(#co43Scarf)"/>
    <rect x="380" y="110" width="36" height="100" fill="none" stroke="#3a1c1c" stroke-width="0.6" opacity="0.7"/>
    <!-- folds -->
    <rect x="386" y="112" width="1" height="96" fill="#3a1c1c" opacity="0.32"/>
    <rect x="396" y="112" width="1" height="96" fill="#3a1c1c" opacity="0.32"/>
    <rect x="406" y="112" width="1" height="96" fill="#3a1c1c" opacity="0.32"/>
    <!-- fringe bottom -->
    <rect x="380" y="210" width="2" height="6" fill="#a48080"/>
    <rect x="384" y="210" width="2" height="6" fill="#a48080"/>
    <rect x="388" y="210" width="2" height="6" fill="#a48080"/>
    <rect x="392" y="210" width="2" height="6" fill="#a48080"/>
    <rect x="396" y="210" width="2" height="6" fill="#a48080"/>
    <rect x="400" y="210" width="2" height="6" fill="#a48080"/>
    <rect x="404" y="210" width="2" height="6" fill="#a48080"/>
    <rect x="408" y="210" width="2" height="6" fill="#a48080"/>
    <rect x="412" y="210" width="2" height="6" fill="#a48080"/>
  </g>

  <!-- ============= LOW SHOE SHELF BOARD ============= -->
  <g id="co43-shoe-shelf-art" pointer-events="none">
    <rect x="16" y="240" width="448" height="6" fill="url(#co43ShelfWood)"/>
    <rect x="16" y="240" width="448" height="1" fill="#e0d4b4"/>
    <rect x="16" y="245" width="448" height="1" fill="#3a2e1c"/>
    <rect x="16" y="246" width="448" height="3" fill="#1a160c" opacity="0.32"/>
  </g>

  <!-- ============= SHOES (4 pairs aligned) ============= -->

  <!-- pair 1: brown loafers -->
  <g id="co43-shoe-loafers-art">
    <!-- left loafer -->
    <path d="M40,238 L40,228 Q44,222 60,222 L86,222 Q92,224 92,232 L92,238 Z" fill="url(#co43ShoeBrown)"/>
    <path d="M40,238 L92,238" stroke="#1a0e04" stroke-width="0.6"/>
    <rect x="62" y="226" width="14" height="2" fill="#3a2414" opacity="0.85"/>
    <!-- right loafer -->
    <path d="M98,238 L98,228 Q102,222 118,222 L144,222 Q150,224 150,232 L150,238 Z" fill="url(#co43ShoeBrown)"/>
    <path d="M98,238 L150,238" stroke="#1a0e04" stroke-width="0.6"/>
    <rect x="120" y="226" width="14" height="2" fill="#3a2414" opacity="0.85"/>
  </g>

  <!-- pair 2: white sneakers -->
  <g id="co43-shoe-sneakers-art">
    <path d="M156,238 L156,226 Q162,218 178,218 L202,218 Q210,222 210,232 L210,238 Z" fill="url(#co43ShoeWhite)"/>
    <rect x="156" y="234" width="54" height="4" fill="#dcd6c4"/>
    <rect x="156" y="234" width="54" height="1" fill="#fcf6e8"/>
    <!-- laces hint -->
    <rect x="174" y="222" width="14" height="1" fill="#9a8c70"/>
    <rect x="174" y="226" width="14" height="1" fill="#9a8c70"/>
    <rect x="174" y="230" width="14" height="1" fill="#9a8c70"/>
    <path d="M214,238 L214,226 Q220,218 236,218 L260,218 Q268,222 268,232 L268,238 Z" fill="url(#co43ShoeWhite)"/>
    <rect x="214" y="234" width="54" height="4" fill="#dcd6c4"/>
    <rect x="214" y="234" width="54" height="1" fill="#fcf6e8"/>
    <rect x="232" y="222" width="14" height="1" fill="#9a8c70"/>
    <rect x="232" y="226" width="14" height="1" fill="#9a8c70"/>
    <rect x="232" y="230" width="14" height="1" fill="#9a8c70"/>
  </g>

  <!-- pair 3: black flats -->
  <g id="co43-shoe-flats-art">
    <path d="M276,238 L276,232 Q282,226 296,226 L320,226 Q328,230 328,236 L328,238 Z" fill="url(#co43ShoeBlack)"/>
    <path d="M276,238 L328,238" stroke="#000004" stroke-width="0.6"/>
    <rect x="296" y="228" width="10" height="2" fill="#5a5a64" opacity="0.6"/>
    <path d="M334,238 L334,232 Q340,226 354,226 L378,226 Q386,230 386,236 L386,238 Z" fill="url(#co43ShoeBlack)"/>
    <path d="M334,238 L386,238" stroke="#000004" stroke-width="0.6"/>
    <rect x="354" y="228" width="10" height="2" fill="#5a5a64" opacity="0.6"/>
  </g>

  <!-- pair 4: beige boots -->
  <g id="co43-shoe-boots-art">
    <!-- left boot -->
    <rect x="394" y="216" width="22" height="22" fill="url(#co43ShoeBeige)"/>
    <rect x="394" y="216" width="22" height="22" fill="none" stroke="#4a3624" stroke-width="0.7"/>
    <rect x="394" y="216" width="22" height="2"  fill="#dcc69e"/>
    <rect x="394" y="234" width="22" height="4"  fill="#3a2814"/>
    <rect x="394" y="220" width="22" height="1"  fill="#7a6244" opacity="0.7"/>
    <rect x="394" y="226" width="22" height="1"  fill="#7a6244" opacity="0.7"/>
    <!-- right boot -->
    <rect x="420" y="216" width="22" height="22" fill="url(#co43ShoeBeige)"/>
    <rect x="420" y="216" width="22" height="22" fill="none" stroke="#4a3624" stroke-width="0.7"/>
    <rect x="420" y="216" width="22" height="2"  fill="#dcc69e"/>
    <rect x="420" y="234" width="22" height="4"  fill="#3a2814"/>
    <rect x="420" y="220" width="22" height="1"  fill="#7a6244" opacity="0.7"/>
    <rect x="420" y="226" width="22" height="1"  fill="#7a6244" opacity="0.7"/>
  </g>

  <!-- ============= FLOOR ============= -->
  <rect y="246" width="480" height="74" fill="#bcb098" pointer-events="none" opacity="0.92"/>
  <rect y="246" width="480" height="2"  fill="#5a4a30" opacity="0.55" pointer-events="none"/>
  <rect y="280" width="480" height="40" fill="#a89a82" pointer-events="none"/>

  <!-- folded carry tote leaning bottom-left -->
  <g id="co43-tote-art">
    <rect x="20" y="316" width="86" height="2" fill="#1a160c" opacity="0.40"/>
    <rect x="22" y="282" width="80" height="34" fill="url(#co43Tote)"/>
    <rect x="22" y="282" width="80" height="34" fill="none" stroke="#4a4030" stroke-width="1"/>
    <rect x="22" y="282" width="80" height="2"  fill="#dcd0b4"/>
    <!-- handle (folded) -->
    <path d="M44,282 Q62,272 80,282" fill="none" stroke="#4a4030" stroke-width="1.5"/>
    <!-- tote folds -->
    <rect x="40" y="284" width="1" height="30" fill="#5a4a30" opacity="0.42"/>
    <rect x="60" y="284" width="1" height="30" fill="#5a4a30" opacity="0.42"/>
    <rect x="80" y="284" width="1" height="30" fill="#5a4a30" opacity="0.42"/>
    <!-- mini tag -->
    <rect x="62" y="298" width="14" height="6" fill="#dcc890"/>
    <rect x="62" y="298" width="14" height="6" fill="none" stroke="#7a5a36" stroke-width="0.5"/>
  </g>

  <!-- slippers near the door (bottom-right) -->
  <g id="co43-slippers-art">
    <rect x="372" y="316" width="78" height="2" fill="#1a160c" opacity="0.40"/>
    <!-- slipper L -->
    <path d="M376,316 L376,304 Q380,298 394,298 L412,298 Q416,300 416,308 L416,316 Z" fill="#a89878"/>
    <path d="M376,316 L416,316" stroke="#4a3a24" stroke-width="0.6"/>
    <ellipse cx="396" cy="302" rx="14" ry="3" fill="#bcaa88"/>
    <!-- slipper R -->
    <path d="M420,316 L420,304 Q424,298 438,298 L450,298 Q452,300 452,308 L452,316 Z" fill="#a89878"/>
    <path d="M420,316 L452,316" stroke="#4a3a24" stroke-width="0.6"/>
    <ellipse cx="436" cy="302" rx="12" ry="3" fill="#bcaa88"/>
  </g>

  <!-- ============= UNDER-DOOR LIGHT STRIP ============= -->
  <g id="co43-doorlight-art" pointer-events="none">
    <!-- the warm halo hugging the floor -->
    <rect x="20" y="306" width="440" height="14" fill="url(#co43DoorLight)" opacity="0.85"/>
    <!-- the brightest hairline at the very bottom -->
    <rect x="20" y="318" width="440" height="2"  fill="#fff4d4" opacity="0.85"/>
    <rect x="20" y="320" width="440" height="1"  fill="#fffcec"/>
  </g>

  <!-- ============= DRIFTING DUST (very slow breath, lucid-memory motion) ============= -->
  <g pointer-events="none" opacity="0.40">
    <ellipse cx="232" cy="22"  rx="1.2" ry="1.2" fill="#fce8c8">
      <animate attributeName="cy" values="22;25;22" dur="36s" repeatCount="indefinite"/>
      <animate attributeName="opacity" values="0.78;1;0.78" dur="36s" repeatCount="indefinite"/>
    </ellipse>
    <ellipse cx="384" cy="116" rx="1.2" ry="1.2" fill="#fce8c8">
      <animate attributeName="cy" values="116;112;116" dur="44s" begin="-11s" repeatCount="indefinite"/>
      <animate attributeName="opacity" values="0.82;1;0.82" dur="44s" begin="-11s" repeatCount="indefinite"/>
    </ellipse>
    <ellipse cx="58"  cy="200" rx="1.2" ry="1.2" fill="#fce8c8">
      <animate attributeName="cy" values="200;204;200" dur="40s" begin="-22s" repeatCount="indefinite"/>
      <animate attributeName="opacity" values="0.78;1;0.78" dur="40s" begin="-22s" repeatCount="indefinite"/>
    </ellipse>
  </g>

  <!-- ============= LUCID MEMORY LAYER (warm bleed + breathing haze) ============= -->
  <defs>
    <radialGradient id="co43WarmBleed" cx="50%" cy="92%" r="55%">
      <stop offset="0%"   stop-color="#fce0a8" stop-opacity="0.22"/>
      <stop offset="100%" stop-color="#fce0a8" stop-opacity="0"/>
    </radialGradient>
    <radialGradient id="co43Haze" cx="50%" cy="50%" r="70%">
      <stop offset="0%"   stop-color="#fff4d4" stop-opacity="0.05"/>
      <stop offset="60%"  stop-color="#fff4d4" stop-opacity="0.02"/>
      <stop offset="100%" stop-color="#fff4d4" stop-opacity="0"/>
    </radialGradient>
  </defs>
  <rect x="0" y="0" width="480" height="320" fill="url(#co43WarmBleed)" pointer-events="none">
    <animate attributeName="opacity" values="0.78;1;0.78" dur="26s" repeatCount="indefinite"/>
  </rect>
  <rect x="0" y="0" width="480" height="320" fill="url(#co43Haze)" pointer-events="none">
    <animate attributeName="opacity" values="0.6;1;0.6" dur="21s" repeatCount="indefinite"/>
  </rect>

  <!-- ============= EDGE DARKENING + OUTER VIGNETTE ============= -->
  <rect x="0"   y="0" width="38" height="320" fill="url(#co43SidesL)" pointer-events="none"/>
  <rect x="442" y="0" width="38" height="320" fill="url(#co43SidesR)" pointer-events="none"/>
  <rect x="0" y="0" width="480" height="320" fill="url(#co43Vignette)" pointer-events="none"/>

  <!-- ============= INTERACTIVE HOTSPOTS (placed last, transparent) -->
  <!-- order matters: more specific hotspots are placed AFTER broader ones so they receive clicks -->
  <g id="co43-hotspots" fill="transparent" stroke="none">
    <!-- broad first -->
    <rect id="hit-wall"        x="20"  y="2"   width="440" height="34"/>
    <rect id="hit-floor"       x="20"  y="280" width="440" height="24"/>
    <rect id="hit-doorlight"   x="20"  y="306" width="440" height="14"/>

    <rect id="hit-shelf-top"   x="16"  y="80"  width="448" height="8"/>
    <rect id="hit-rod"         x="20"  y="96"  width="440" height="6"/>
    <rect id="hit-shelf-shoes" x="16"  y="240" width="448" height="6"/>

    <!-- top shelf items -->
    <rect id="hit-suitcase"      x="38"  y="36"  width="174" height="44"/>
    <rect id="hit-folded-stack"  x="220" y="46"  width="60"  height="34"/>
    <rect id="hit-duffel"        x="288" y="38"  width="124" height="42"/>
    <rect id="hit-pouch"         x="324" y="32"  width="42"  height="14"/>
    <rect id="hit-suitcase-tag"  x="136" y="32"  width="18"  height="22"/>

    <!-- hanging items -->
    <rect id="hit-coat-long"   x="28"  y="100" width="86"  height="112"/>
    <rect id="hit-coat-cream"  x="110" y="100" width="80"  height="78"/>
    <rect id="hit-coat-slate"  x="190" y="100" width="80"  height="78"/>
    <rect id="hit-backpack"    x="288" y="98"  width="74"  height="108"/>
    <rect id="hit-hat"         x="380" y="116" width="64"  height="40"/>
    <rect id="hit-scarf"       x="378" y="106" width="40"  height="114"/>

    <!-- shoes -->
    <rect id="hit-shoe-loafers"  x="38"  y="218" width="116" height="22"/>
    <rect id="hit-shoe-sneakers" x="154" y="216" width="118" height="24"/>
    <rect id="hit-shoe-flats"    x="274" y="224" width="116" height="16"/>
    <rect id="hit-shoe-boots"    x="392" y="214" width="54"  height="26"/>

    <!-- floor items -->
    <rect id="hit-tote"        x="20"  y="278" width="86"  height="40"/>
    <rect id="hit-slippers"    x="372" y="294" width="82"  height="24"/>
  </g>
</svg>
