<svg width="614" height="768" viewBox="0 0 614 768" fill="none" xmlns="http://www.w3.org/2000/svg">
<rect x="4" y="4" width="602" height="752" fill="white" stroke="#A1E1FC" stroke-width="2"/>
<rect x="4" y="4" width="302" height="266" fill="#F5F5F5" stroke="#A1E1FC" stroke-width="2"/>
<rect x="304" y="4" width="302" height="350" fill="#F5F5F5" stroke="#A1E1FC" stroke-width="2"/>
<rect x="304" y="353" width="302" height="204" fill="#F5F5F5" stroke="#A1E1FC" stroke-width="2"/>
<rect x="4" y="270" width="136" height="204" fill="#F5F5F5" stroke="#A1E1FC" stroke-width="2"/>
<mask id="path-6-inside-1_2004_41" fill="white">
<path d="M305 554H607V757H137V554H139V269H305V554Z"/>
</mask>
<path d="M305 554H607V757H137V554H139V269H305V554Z" fill="#F5F5F5"/>
<path d="M305 554H303V556H305V554ZM607 554H609V552H607V554ZM607 757V759H609V757H607ZM137 757H135V759H137V757ZM137 554V552H135V554H137ZM139 554V556H141V554H139ZM139 269V267H137V269H139ZM305 269H307V267H305V269ZM305 554V556H607V554V552H305V554ZM607 554H605V757H607H609V554H607ZM607 757V755H137V757V759H607V757ZM137 757H139V554H137H135V757H137ZM137 554V556H139V554V552H137V554ZM139 554H141V269H139H137V554H139ZM139 269V271H305V269V267H139V269ZM305 269H303V554H305H307V269H305Z" fill="#A1E1FC" mask="url(#path-6-inside-1_2004_41)"/>
<rect x="4" y="472" width="136" height="94" fill="#F5F5F5" stroke="#A1E1FC" stroke-width="2"/>
<rect x="4" y="564" width="136" height="192" fill="#F5F5F5" stroke="#A1E1FC" stroke-width="2"/>
<g filter="url(#filter0_d_2004_41)">
<line x1="113" y1="5" x2="202" y2="5" stroke="#00B3FF" stroke-width="8" stroke-linecap="square"/>
</g>
<g filter="url(#filter1_d_2004_41)">
<line x1="419" y1="4" x2="508" y2="4" stroke="#00B3FF" stroke-width="8" stroke-linecap="square"/>
</g>
<g filter="url(#filter2_d_2004_41)">
<line x1="244" y1="756" x2="333" y2="756" stroke="#00B3FF" stroke-width="8" stroke-linecap="square"/>
</g>
<g filter="url(#filter3_d_2004_41)">
<line x1="444" y1="756" x2="533" y2="756" stroke="#00B3FF" stroke-width="8" stroke-linecap="square"/>
</g>
<g filter="url(#filter4_d_2004_41)">
<line x1="606" y1="407" x2="606" y2="492" stroke="#00B3FF" stroke-width="8" stroke-linecap="square"/>
</g>
<line x1="139" y1="488" x2="139" y2="543" stroke="url(#paint0_linear_2004_41)" stroke-width="8" stroke-linecap="round"/>
<line x1="305" y1="412" x2="305" y2="498" stroke="url(#paint1_linear_2004_41)" stroke-width="8" stroke-linecap="round"/>
<line x1="180" y1="270" x2="258" y2="270" stroke="#54CCFF" stroke-width="8" stroke-linecap="round"/>
<line x1="305" y1="278" x2="305" y2="332" stroke="#54CCFF" stroke-width="8" stroke-linecap="round"/>
<line x1="139" y1="392" x2="139" y2="446" stroke="#54CCFF" stroke-width="8" stroke-linecap="round"/>
<line x1="140" y1="589" x2="140" y2="643" stroke="#54CCFF" stroke-width="8" stroke-linecap="round"/>
<line x1="4" y1="489" x2="4" y2="543" stroke="#54CCFF" stroke-width="8" stroke-linecap="round"/>
<defs>
<filter id="filter0_d_2004_41" x="105" y="1" width="105" height="16" filterUnits="userSpaceOnUse" color-interpolation-filters="sRGB">
<feFlood flood-opacity="0" result="BackgroundImageFix"/>
<feColorMatrix in="SourceAlpha" type="matrix" values="0 0 0 0 0 0 0 0 0 0 0 0 0 0 0 0 0 0 127 0" result="hardAlpha"/>
<feOffset dy="4"/>
<feGaussianBlur stdDeviation="2"/>
<feComposite in2="hardAlpha" operator="out"/>
<feColorMatrix type="matrix" values="0 0 0 0 0 0 0 0 0 0 0 0 0 0 0 0 0 0 0.25 0"/>
<feBlend mode="normal" in2="BackgroundImageFix" result="effect1_dropShadow_2004_41"/>
<feBlend mode="normal" in="SourceGraphic" in2="effect1_dropShadow_2004_41" result="shape"/>
</filter>
<filter id="filter1_d_2004_41" x="411" y="0" width="105" height="16" filterUnits="userSpaceOnUse" color-interpolation-filters="sRGB">
<feFlood flood-opacity="0" result="BackgroundImageFix"/>
<feColorMatrix in="SourceAlpha" type="matrix" values="0 0 0 0 0 0 0 0 0 0 0 0 0 0 0 0 0 0 127 0" result="hardAlpha"/>
<feOffset dy="4"/>
<feGaussianBlur stdDeviation="2"/>
<feComposite in2="hardAlpha" operator="out"/>
<feColorMatrix type="matrix" values="0 0 0 0 0 0 0 0 0 0 0 0 0 0 0 0 0 0 0.25 0"/>
<feBlend mode="normal" in2="BackgroundImageFix" result="effect1_dropShadow_2004_41"/>
<feBlend mode="normal" in="SourceGraphic" in2="effect1_dropShadow_2004_41" result="shape"/>
</filter>
<filter id="filter2_d_2004_41" x="236" y="752" width="105" height="16" filterUnits="userSpaceOnUse" color-interpolation-filters="sRGB">
<feFlood flood-opacity="0" result="BackgroundImageFix"/>
<feColorMatrix in="SourceAlpha" type="matrix" values="0 0 0 0 0 0 0 0 0 0 0 0 0 0 0 0 0 0 127 0" result="hardAlpha"/>
<feOffset dy="4"/>
<feGaussianBlur stdDeviation="2"/>
<feComposite in2="hardAlpha" operator="out"/>
<feColorMatrix type="matrix" values="0 0 0 0 0 0 0 0 0 0 0 0 0 0 0 0 0 0 0.25 0"/>
<feBlend mode="normal" in2="BackgroundImageFix" result="effect1_dropShadow_2004_41"/>
<feBlend mode="normal" in="SourceGraphic" in2="effect1_dropShadow_2004_41" result="shape"/>
</filter>
<filter id="filter3_d_2004_41" x="436" y="752" width="105" height="16" filterUnits="userSpaceOnUse" color-interpolation-filters="sRGB">
<feFlood flood-opacity="0" result="BackgroundImageFix"/>
<feColorMatrix in="SourceAlpha" type="matrix" values="0 0 0 0 0 0 0 0 0 0 0 0 0 0 0 0 0 0 127 0" result="hardAlpha"/>
<feOffset dy="4"/>
<feGaussianBlur stdDeviation="2"/>
<feComposite in2="hardAlpha" operator="out"/>
<feColorMatrix type="matrix" values="0 0 0 0 0 0 0 0 0 0 0 0 0 0 0 0 0 0 0.25 0"/>
<feBlend mode="normal" in2="BackgroundImageFix" result="effect1_dropShadow_2004_41"/>
<feBlend mode="normal" in="SourceGraphic" in2="effect1_dropShadow_2004_41" result="shape"/>
</filter>
<filter id="filter4_d_2004_41" x="598" y="403" width="16" height="101" filterUnits="userSpaceOnUse" color-interpolation-filters="sRGB">
<feFlood flood-opacity="0" result="BackgroundImageFix"/>
<feColorMatrix in="SourceAlpha" type="matrix" values="0 0 0 0 0 0 0 0 0 0 0 0 0 0 0 0 0 0 127 0" result="hardAlpha"/>
<feOffset dy="4"/>
<feGaussianBlur stdDeviation="2"/>
<feComposite in2="hardAlpha" operator="out"/>
<feColorMatrix type="matrix" values="0 0 0 0 0 0 0 0 0 0 0 0 0 0 0 0 0 0 0.25 0"/>
<feBlend mode="normal" in2="BackgroundImageFix" result="effect1_dropShadow_2004_41"/>
<feBlend mode="normal" in="SourceGraphic" in2="effect1_dropShadow_2004_41" result="shape"/>
</filter>
<linearGradient id="paint0_linear_2004_41" x1="134.5" y1="484" x2="134.5" y2="547" gradientUnits="userSpaceOnUse">
<stop stop-color="#00B3FF"/>
<stop offset="1" stop-color="#006C99"/>
</linearGradient>
<linearGradient id="paint1_linear_2004_41" x1="300.5" y1="408" x2="300.5" y2="502" gradientUnits="userSpaceOnUse">
<stop stop-color="#00B3FF"/>
<stop offset="1" stop-color="#006C99"/>
</linearGradient>
</defs>
</svg>
