<svg xmlns="http://www.w3.org/2000/svg" viewBox="0 0 480 320" shape-rendering="crispEdges">
  <title>Bedroom three memory fragment (apartment two) - softly between identities</title>
  <desc>A bedroom that has slowly become something else, kept by someone who loves it. A daybed with cream linens and a small plush bear from the room's former life. A nightstand with a warm-shaded lamp pouring an amber pool across the room. Stacked books with a teacup. A houseplant. A window framed by sheer curtains showing a different soft scene each visit. A faded wallpaper border the room never quite let go of. String lights draped across the top wall, glow-in-the-dark stars beside them, a child's crayon drawing in a frame. A gentle glow patch on the wall hides a faded growth-chart pencil mark behind it. The doorway shifts position by a few pixels between visits. Two soft moving boxes with friendly handwritten labels. The room feels caught between identities, lit by lamplight, kept warm by everything that hasn't been thrown out yet.</desc>

  <defs>
    <linearGradient id="b3Wall" x1="0" y1="0" x2="0" y2="1">
      <stop offset="0%"   stop-color="#f0dcc4"/>
      <stop offset="60%"  stop-color="#e0c4b0"/>
      <stop offset="100%" stop-color="#c8a89c"/>
    </linearGradient>
    <linearGradient id="b3Floor" x1="0" y1="0" x2="0" y2="1">
      <stop offset="0%"   stop-color="#a87858"/>
      <stop offset="100%" stop-color="#684838"/>
    </linearGradient>
    <radialGradient id="b3LampPool" cx="50%" cy="50%" r="60%">
      <stop offset="0%"   stop-color="#f8d088" stop-opacity="0.55"/>
      <stop offset="50%"  stop-color="#f0a868" stop-opacity="0.18"/>
      <stop offset="100%" stop-color="#f0a868" stop-opacity="0"/>
    </radialGradient>
    <radialGradient id="b3LampShade" cx="50%" cy="20%" r="80%">
      <stop offset="0%"   stop-color="#fde8b8"/>
      <stop offset="100%" stop-color="#d89868"/>
    </radialGradient>
    <radialGradient id="b3GlowPatch" cx="50%" cy="50%" r="50%">
      <stop offset="0%"   stop-color="#fde0a8" stop-opacity="0.55"/>
      <stop offset="60%"  stop-color="#f0c098" stop-opacity="0.20"/>
      <stop offset="100%" stop-color="#f0c098" stop-opacity="0"/>
    </radialGradient>
    <linearGradient id="b3Daybed" x1="0" y1="0" x2="0" y2="1">
      <stop offset="0%"   stop-color="#b888a0"/>
      <stop offset="100%" stop-color="#6a4858"/>
    </linearGradient>
    <linearGradient id="b3Throw" x1="0" y1="0" x2="0" y2="1">
      <stop offset="0%"   stop-color="#e0a8b0"/>
      <stop offset="100%" stop-color="#a87080"/>
    </linearGradient>
    <linearGradient id="b3Nightstand" x1="0" y1="0" x2="0" y2="1">
      <stop offset="0%"   stop-color="#b08868"/>
      <stop offset="100%" stop-color="#684838"/>
    </linearGradient>
    <linearGradient id="b3Box" x1="0" y1="0" x2="0" y2="1">
      <stop offset="0%"   stop-color="#d8b898"/>
      <stop offset="100%" stop-color="#a88060"/>
    </linearGradient>

    <!-- the three window scenes (a different soft view each visit) -->
    <linearGradient id="b3SkyDusk" x1="0" y1="0" x2="0" y2="1">
      <stop offset="0%"   stop-color="#f8c890"/>
      <stop offset="55%"  stop-color="#f0a878"/>
      <stop offset="100%" stop-color="#a86878"/>
    </linearGradient>
    <linearGradient id="b3SkySnow" x1="0" y1="0" x2="0" y2="1">
      <stop offset="0%"   stop-color="#384868"/>
      <stop offset="100%" stop-color="#1a2238"/>
    </linearGradient>
    <linearGradient id="b3SkyDawn" x1="0" y1="0" x2="0" y2="1">
      <stop offset="0%"   stop-color="#f8d0d8"/>
      <stop offset="55%"  stop-color="#e8b8c8"/>
      <stop offset="100%" stop-color="#b89cc0"/>
    </linearGradient>

    <linearGradient id="b3SidesL" x1="0" y1="0" x2="1" y2="0">
      <stop offset="0%"   stop-color="#1a1208" stop-opacity="0.40"/>
      <stop offset="100%" stop-color="#1a1208" stop-opacity="0"/>
    </linearGradient>
    <linearGradient id="b3SidesR" x1="1" y1="0" x2="0" y2="0">
      <stop offset="0%"   stop-color="#1a1208" stop-opacity="0.40"/>
      <stop offset="100%" stop-color="#1a1208" stop-opacity="0"/>
    </linearGradient>

    <pattern id="b3FloralPattern" x="0" y="0" width="32" height="22" patternUnits="userSpaceOnUse">
      <rect x="6" y="8"  width="2" height="2" fill="#c87898"/>
      <rect x="4" y="10" width="2" height="2" fill="#c87898"/>
      <rect x="6" y="10" width="2" height="2" fill="#a85878"/>
      <rect x="8" y="10" width="2" height="2" fill="#c87898"/>
      <rect x="6" y="12" width="2" height="2" fill="#c87898"/>
      <rect x="22" y="10" width="2" height="2" fill="#a8a878"/>
      <rect x="20" y="12" width="2" height="2" fill="#a8a878"/>
      <rect x="22" y="12" width="2" height="2" fill="#7a8858"/>
      <rect x="24" y="12" width="2" height="2" fill="#a8a878"/>
    </pattern>

    <clipPath id="b3WindowClip">
      <rect x="306" y="76" width="98" height="118"/>
    </clipPath>
  </defs>

  <!-- ============= WALL & FLOOR ============= -->
  <rect width="480" height="320" fill="url(#b3Wall)"/>

  <!-- ceiling line -->
  <rect x="0" y="0" width="480" height="3" fill="#a8806b" opacity="0.6"/>

  <!-- ============= WALLPAPER BORDER (faded floral; the room's former identity hint) ============= -->
  <g id="b3-wallpaper" pointer-events="none">
    <rect x="0" y="6"  width="480" height="20" fill="#f4d8d0" opacity="0.55"/>
    <rect x="0" y="6"  width="480" height="20" fill="url(#b3FloralPattern)" opacity="0.85"/>
    <rect x="0" y="6"  width="480" height="1"  fill="#c89890" opacity="0.65"/>
    <rect x="0" y="25" width="480" height="1"  fill="#c89890" opacity="0.65"/>
  </g>

  <!-- ============= STRING LIGHTS draped across the top wall ============= -->
  <g id="b3-string-lights" pointer-events="none">
    <!-- the cord, sketched as a gentle drape with short rect segments -->
    <rect x="20"  y="34" width="40" height="1" fill="#3a2818" opacity="0.7"/>
    <rect x="60"  y="36" width="40" height="1" fill="#3a2818" opacity="0.7"/>
    <rect x="100" y="40" width="40" height="1" fill="#3a2818" opacity="0.7"/>
    <rect x="140" y="44" width="40" height="1" fill="#3a2818" opacity="0.7"/>
    <rect x="180" y="46" width="40" height="1" fill="#3a2818" opacity="0.7"/>
    <rect x="220" y="44" width="40" height="1" fill="#3a2818" opacity="0.7"/>
    <rect x="260" y="40" width="40" height="1" fill="#3a2818" opacity="0.7"/>
    <rect x="300" y="36" width="40" height="1" fill="#3a2818" opacity="0.7"/>
    <rect x="340" y="40" width="40" height="1" fill="#3a2818" opacity="0.7"/>
    <rect x="380" y="46" width="40" height="1" fill="#3a2818" opacity="0.7"/>
    <rect x="420" y="50" width="40" height="1" fill="#3a2818" opacity="0.7"/>

    <!-- the warm bulbs (with a slow soft pulse) -->
    <g id="b3-string-bulbs">
      <rect x="40"  y="34" width="3" height="3" fill="#fde0a0">
        <animate attributeName="opacity" values="0.85;1;0.85" dur="4.2s" repeatCount="indefinite"/>
      </rect>
      <rect x="80"  y="38" width="3" height="3" fill="#fde0a0">
        <animate attributeName="opacity" values="0.7;0.95;0.7" dur="5.0s" repeatCount="indefinite"/>
      </rect>
      <rect x="120" y="42" width="3" height="3" fill="#fde0a0">
        <animate attributeName="opacity" values="0.85;1;0.85" dur="4.6s" repeatCount="indefinite"/>
      </rect>
      <rect x="160" y="46" width="3" height="3" fill="#fde0a0">
        <animate attributeName="opacity" values="0.75;1;0.75" dur="5.4s" repeatCount="indefinite"/>
      </rect>
      <rect x="200" y="48" width="3" height="3" fill="#fde0a0">
        <animate attributeName="opacity" values="0.85;1;0.85" dur="4.8s" repeatCount="indefinite"/>
      </rect>
      <rect x="240" y="46" width="3" height="3" fill="#fde0a0">
        <animate attributeName="opacity" values="0.7;0.95;0.7" dur="5.2s" repeatCount="indefinite"/>
      </rect>
      <rect x="280" y="42" width="3" height="3" fill="#fde0a0">
        <animate attributeName="opacity" values="0.85;1;0.85" dur="4.4s" repeatCount="indefinite"/>
      </rect>
      <rect x="320" y="38" width="3" height="3" fill="#fde0a0">
        <animate attributeName="opacity" values="0.75;1;0.75" dur="5.6s" repeatCount="indefinite"/>
      </rect>
      <rect x="360" y="42" width="3" height="3" fill="#fde0a0">
        <animate attributeName="opacity" values="0.85;1;0.85" dur="4.2s" repeatCount="indefinite"/>
      </rect>
      <rect x="400" y="48" width="3" height="3" fill="#fde0a0">
        <animate attributeName="opacity" values="0.7;0.95;0.7" dur="5.0s" repeatCount="indefinite"/>
      </rect>
      <rect x="440" y="52" width="3" height="3" fill="#fde0a0">
        <animate attributeName="opacity" values="0.85;1;0.85" dur="4.8s" repeatCount="indefinite"/>
      </rect>
    </g>
  </g>

  <!-- ============= GLOW STARS (childhood remnant; tiny pixel stars on the wall) ============= -->
  <g id="b3-stars" pointer-events="none">
    <g opacity="0.8">
      <rect x="60"  y="80"  width="2" height="2" fill="#fde8a8"/>
      <rect x="58"  y="82"  width="6" height="1" fill="#fde8a8" opacity="0.6"/>
      <rect x="60"  y="84"  width="2" height="1" fill="#fde8a8" opacity="0.6"/>
    </g>
    <g opacity="0.7">
      <rect x="170" y="62"  width="2" height="2" fill="#fde8a8"/>
      <rect x="168" y="64"  width="6" height="1" fill="#fde8a8" opacity="0.55"/>
    </g>
    <g opacity="0.85">
      <rect x="240" y="92"  width="2" height="2" fill="#fde8a8"/>
      <rect x="238" y="94"  width="6" height="1" fill="#fde8a8" opacity="0.6"/>
      <rect x="240" y="96"  width="2" height="1" fill="#fde8a8" opacity="0.6"/>
    </g>
    <g opacity="0.7">
      <rect x="278" y="50"  width="2" height="2" fill="#fde8a8"/>
      <rect x="276" y="52"  width="6" height="1" fill="#fde8a8" opacity="0.55"/>
    </g>
  </g>

  <!-- ============= FRAMED CRAYON DRAWING (top-left wall; trace of room's former life) ============= -->
  <g id="b3-frame" pointer-events="none">
    <rect x="92"  y="58" width="62" height="50" fill="#a8704a"/>
    <rect x="92"  y="58" width="62" height="2"  fill="#c89070"/>
    <rect x="92"  y="58" width="2"  height="50" fill="#c89070"/>
    <rect x="152" y="58" width="2"  height="50" fill="#684830"/>
    <rect x="92"  y="106" width="62" height="2" fill="#684830"/>
    <!-- matte/cream paper -->
    <rect x="96"  y="62" width="54" height="42" fill="#f4e4c8"/>
    <!-- a small soft sunset-over-hills landscape; intimate, dreamlike -->
    <!-- sky bands (peach to dusty pink) -->
    <rect x="96"  y="62" width="54" height="10" fill="#f4d4b0"/>
    <rect x="96"  y="72" width="54" height="8"  fill="#f0b098"/>
    <rect x="96"  y="80" width="54" height="6"  fill="#e8a0a0"/>
    <!-- thin cloud streaks -->
    <rect x="100" y="67" width="16" height="1" fill="#fdf0d8" opacity="0.75"/>
    <rect x="128" y="69" width="18" height="1" fill="#fdf0d8" opacity="0.75"/>
    <rect x="104" y="74" width="12" height="1" fill="#fdf0d8" opacity="0.55"/>
    <!-- a tiny far-off bird -->
    <rect x="106" y="71" width="2" height="1" fill="#684060" opacity="0.75"/>
    <rect x="108" y="70" width="1" height="1" fill="#684060" opacity="0.75"/>
    <rect x="109" y="71" width="2" height="1" fill="#684060" opacity="0.75"/>
    <!-- low sun sitting on the horizon -->
    <rect x="118" y="78" width="8" height="6" fill="#fde8a8"/>
    <rect x="116" y="80" width="2" height="2" fill="#fde8a8" opacity="0.65"/>
    <rect x="126" y="80" width="2" height="2" fill="#fde8a8" opacity="0.65"/>
    <rect x="120" y="80" width="4" height="4" fill="#fdf6c8"/>
    <!-- distant lavender hills (stepped silhouette) -->
    <rect x="96"  y="86" width="54" height="4"  fill="#a890a8"/>
    <rect x="100" y="84" width="14" height="2"  fill="#a890a8"/>
    <rect x="124" y="84" width="14" height="2"  fill="#a890a8"/>
    <!-- nearer plum hills (stepped silhouette) -->
    <rect x="96"  y="90" width="54" height="14" fill="#785070"/>
    <rect x="106" y="88" width="14" height="2"  fill="#785070"/>
    <rect x="128" y="86" width="16" height="4"  fill="#785070"/>
    <!-- a tiny tree silhouette atop the near hill -->
    <rect x="135" y="82" width="2" height="6" fill="#3a2030"/>
    <rect x="133" y="80" width="6" height="3" fill="#3a2030"/>
  </g>

  <!-- ============= DOORWAY (3 subtle horizontal positions; only one visible per visit) ============= -->
  <g id="b3-doorway-a" pointer-events="none">
    <rect x="190" y="80"  width="58" height="142" fill="#684838"/>
    <rect x="190" y="80"  width="58" height="2"   fill="#a8806b"/>
    <rect x="190" y="80"  width="2"  height="142" fill="#a8806b"/>
    <rect x="246" y="80"  width="2"  height="142" fill="#382818"/>
    <!-- the dark sliver of the next room -->
    <rect x="192" y="82"  width="54" height="138" fill="#2a1f1a"/>
    <!-- a faint warm glow leaking from the next room -->
    <rect x="216" y="100" width="1"  height="100" fill="#f8d088" opacity="0.30"/>
    <rect x="218" y="100" width="1"  height="100" fill="#f8d088" opacity="0.18"/>
    <rect x="222" y="100" width="1"  height="100" fill="#f8d088" opacity="0.14"/>
  </g>
  <g id="b3-doorway-b" pointer-events="none" visibility="hidden">
    <rect x="200" y="80"  width="58" height="142" fill="#684838"/>
    <rect x="200" y="80"  width="58" height="2"   fill="#a8806b"/>
    <rect x="200" y="80"  width="2"  height="142" fill="#a8806b"/>
    <rect x="256" y="80"  width="2"  height="142" fill="#382818"/>
    <rect x="202" y="82"  width="54" height="138" fill="#2a1f1a"/>
    <rect x="226" y="100" width="1"  height="100" fill="#f8d088" opacity="0.30"/>
    <rect x="228" y="100" width="1"  height="100" fill="#f8d088" opacity="0.18"/>
    <rect x="232" y="100" width="1"  height="100" fill="#f8d088" opacity="0.14"/>
  </g>
  <g id="b3-doorway-c" pointer-events="none" visibility="hidden">
    <rect x="182" y="80"  width="58" height="142" fill="#684838"/>
    <rect x="182" y="80"  width="58" height="2"   fill="#a8806b"/>
    <rect x="182" y="80"  width="2"  height="142" fill="#a8806b"/>
    <rect x="238" y="80"  width="2"  height="142" fill="#382818"/>
    <rect x="184" y="82"  width="54" height="138" fill="#2a1f1a"/>
    <rect x="208" y="100" width="1"  height="100" fill="#f8d088" opacity="0.30"/>
    <rect x="210" y="100" width="1"  height="100" fill="#f8d088" opacity="0.18"/>
    <rect x="214" y="100" width="1"  height="100" fill="#f8d088" opacity="0.14"/>
  </g>

  <!-- ============= GLOW PATCH on wall (warm pulse; on hover, the growth-chart line beneath it surfaces) ============= -->
  <g id="b3-growth-chart" pointer-events="none" opacity="0">
    <!-- a faint horizontal pencil line + a tiny tick mark + a child's name in pencil -->
    <rect x="58"  y="138" width="38" height="1" fill="#684838"/>
    <rect x="80"  y="135" width="1"  height="6" fill="#684838"/>
    <rect x="62"  y="142" width="2"  height="1" fill="#684838"/>
    <rect x="65"  y="142" width="2"  height="1" fill="#684838"/>
    <rect x="68"  y="142" width="1"  height="1" fill="#684838"/>
    <rect x="70"  y="142" width="2"  height="1" fill="#684838"/>
  </g>
  <g id="b3-glow-patch">
    <ellipse cx="78" cy="138" rx="36" ry="22" fill="url(#b3GlowPatch)" pointer-events="none">
      <animate attributeName="opacity" values="0.65;0.9;0.65" dur="6s" repeatCount="indefinite"/>
    </ellipse>
  </g>

  <!-- ============= WINDOW (frame + rotating scenery + mullions + sheer curtains) ============= -->
  <!-- exterior frame border (warm wood) -->
  <g id="b3-window-frame" pointer-events="none">
    <rect x="300" y="70" width="110" height="130" fill="#684838"/>
    <rect x="300" y="70" width="110" height="2"   fill="#a8806b"/>
    <rect x="300" y="70" width="2"   height="130" fill="#a8806b"/>
    <rect x="408" y="70" width="2"   height="130" fill="#382818"/>
    <rect x="300" y="198" width="110" height="2"  fill="#382818"/>
    <!-- inner sill -->
    <rect x="302" y="194" width="106" height="4" fill="#a8806b"/>
  </g>

  <!-- the three soft window scenes (clipped to the inner pane) -->
  <g clip-path="url(#b3WindowClip)">
    <!-- scene A: dusk city -->
    <g id="b3-window-a" pointer-events="none">
      <rect x="306" y="76" width="98" height="118" fill="url(#b3SkyDusk)"/>
      <!-- soft sun glow near the horizon -->
      <ellipse cx="354" cy="160" rx="44" ry="14" fill="#f8e0a8" opacity="0.45"/>
      <!-- rooftop silhouettes -->
      <rect x="306" y="170" width="22" height="24" fill="#3a2820"/>
      <rect x="328" y="158" width="14" height="36" fill="#3a2820"/>
      <rect x="342" y="172" width="20" height="22" fill="#3a2820"/>
      <rect x="362" y="164" width="12" height="30" fill="#3a2820"/>
      <rect x="374" y="174" width="18" height="20" fill="#3a2820"/>
      <rect x="392" y="168" width="12" height="26" fill="#3a2820"/>
      <!-- a tiny lit window on a far rooftop -->
      <rect x="334" y="170" width="2" height="2" fill="#f8d088"/>
      <rect x="380" y="180" width="2" height="2" fill="#f8d088"/>
    </g>
    <!-- scene B: soft snow at night -->
    <g id="b3-window-b" pointer-events="none" visibility="hidden">
      <rect x="306" y="76" width="98" height="118" fill="url(#b3SkySnow)"/>
      <!-- distant low building outlines (deep blue) -->
      <rect x="306" y="174" width="98" height="20" fill="#1a2238"/>
      <rect x="316" y="166" width="20" height="28" fill="#1a2238"/>
      <rect x="354" y="170" width="16" height="24" fill="#1a2238"/>
      <rect x="380" y="164" width="14" height="30" fill="#1a2238"/>
      <!-- a few warm windows in the distance -->
      <rect x="320" y="178" width="2" height="2" fill="#f8d088"/>
      <rect x="358" y="180" width="2" height="2" fill="#f8d088"/>
      <!-- snowflakes (animated drift) -->
      <rect x="320" y="80"  width="1" height="1" fill="#f8f8f0">
        <animate attributeName="y" values="80;192;80" dur="11s" repeatCount="indefinite"/>
      </rect>
      <rect x="350" y="100" width="2" height="2" fill="#f8f8f0">
        <animate attributeName="y" values="100;192;100" dur="14s" repeatCount="indefinite"/>
      </rect>
      <rect x="378" y="92"  width="1" height="1" fill="#f8f8f0">
        <animate attributeName="y" values="92;192;92"   dur="9s"  repeatCount="indefinite"/>
      </rect>
      <rect x="334" y="118" width="1" height="1" fill="#f8f8f0">
        <animate attributeName="y" values="118;192;118" dur="12s" repeatCount="indefinite"/>
      </rect>
      <rect x="364" y="78"  width="2" height="2" fill="#f8f8f0">
        <animate attributeName="y" values="78;192;78"   dur="15s" repeatCount="indefinite"/>
      </rect>
      <rect x="312" y="130" width="1" height="1" fill="#f8f8f0">
        <animate attributeName="y" values="130;192;130" dur="10s" repeatCount="indefinite"/>
      </rect>
      <rect x="396" y="110" width="1" height="1" fill="#f8f8f0">
        <animate attributeName="y" values="110;192;110" dur="13s" repeatCount="indefinite"/>
      </rect>
    </g>
    <!-- scene C: gentle dawn -->
    <g id="b3-window-c" pointer-events="none" visibility="hidden">
      <rect x="306" y="76" width="98" height="118" fill="url(#b3SkyDawn)"/>
      <!-- soft cloud streaks -->
      <rect x="312" y="100" width="50" height="3" fill="#f8e8e8" opacity="0.75"/>
      <rect x="360" y="118" width="44" height="2" fill="#f8e8e8" opacity="0.7"/>
      <rect x="320" y="132" width="40" height="2" fill="#f8e8e8" opacity="0.7"/>
      <rect x="372" y="146" width="30" height="2" fill="#f8e8e8" opacity="0.65"/>
      <!-- faint horizon -->
      <rect x="306" y="180" width="98" height="14" fill="#a888a8" opacity="0.6"/>
      <rect x="306" y="178" width="98" height="2"  fill="#c898b8" opacity="0.6"/>
      <!-- a single distant bird (two pixels) -->
      <rect x="350" y="120" width="2" height="1" fill="#684860" opacity="0.65"/>
      <rect x="352" y="119" width="1" height="1" fill="#684860" opacity="0.65"/>
      <rect x="354" y="120" width="2" height="1" fill="#684860" opacity="0.65"/>
    </g>
  </g>

  <!-- mullions (the cross frame visible over the scene) -->
  <g pointer-events="none">
    <rect x="306" y="132" width="98" height="2" fill="#684838"/>
    <rect x="354" y="76"  width="2"  height="118" fill="#684838"/>
  </g>

  <!-- sheer curtains (gauzy panels framing the window) -->
  <g id="b3-curtains" pointer-events="none">
    <!-- left panel -->
    <rect x="288" y="68" width="14" height="138" fill="#f4ecd8" opacity="0.78"/>
    <rect x="288" y="68" width="14" height="138" fill="#f4ecd8" opacity="0.32"/>
    <!-- vertical fold lines on the left panel -->
    <rect x="292" y="68" width="1" height="138" fill="#d8c8b0" opacity="0.5"/>
    <rect x="297" y="68" width="1" height="138" fill="#d8c8b0" opacity="0.4"/>
    <!-- curtain rod (small bar overhanging the window) -->
    <rect x="284" y="66" width="142" height="2" fill="#684838"/>
    <rect x="282" y="64" width="3"   height="6" fill="#a8806b"/>
    <rect x="425" y="64" width="3"   height="6" fill="#a8806b"/>
    <!-- right panel -->
    <rect x="408" y="68" width="14" height="138" fill="#f4ecd8" opacity="0.78"/>
    <rect x="408" y="68" width="14" height="138" fill="#f4ecd8" opacity="0.32"/>
    <rect x="412" y="68" width="1" height="138" fill="#d8c8b0" opacity="0.5"/>
    <rect x="417" y="68" width="1" height="138" fill="#d8c8b0" opacity="0.4"/>
  </g>

  <!-- ============= LAMP POOL OF LIGHT (focal warmth across the central area) ============= -->
  <ellipse cx="240" cy="218" rx="220" ry="120" fill="url(#b3LampPool)" pointer-events="none">
    <animate attributeName="opacity" values="0.85;1;0.92;1;0.88" dur="9s" repeatCount="indefinite"/>
  </ellipse>

  <!-- ============= FLOOR ============= -->
  <rect x="0" y="222" width="480" height="3"  fill="#684838"/>
  <rect x="0" y="222" width="480" height="1"  fill="#a8806b"/>
  <rect x="0" y="225" width="480" height="95" fill="url(#b3Floor)"/>
  <!-- floorboard seams -->
  <rect x="0"   y="280" width="480" height="1" fill="#3a2818" opacity="0.5"/>
  <rect x="80"  y="225" width="1"   height="95" fill="#3a2818" opacity="0.4"/>
  <rect x="200" y="225" width="1"   height="95" fill="#3a2818" opacity="0.4"/>
  <rect x="320" y="225" width="1"   height="95" fill="#3a2818" opacity="0.4"/>
  <rect x="420" y="225" width="1"   height="95" fill="#3a2818" opacity="0.4"/>

  <!-- ============= SOFT RUG under the daybed area ============= -->
  <g id="b3-rug" pointer-events="none">
    <rect x="14"  y="244" width="190" height="44" fill="#c8a888"/>
    <rect x="14"  y="244" width="190" height="2"  fill="#e0c8a8"/>
    <rect x="14"  y="286" width="190" height="2"  fill="#a07858"/>
    <!-- soft horizontal stripes -->
    <rect x="14"  y="252" width="190" height="2" fill="#e0c8a8" opacity="0.55"/>
    <rect x="14"  y="262" width="190" height="2" fill="#a07858" opacity="0.55"/>
    <rect x="14"  y="272" width="190" height="2" fill="#e0c8a8" opacity="0.55"/>
    <rect x="14"  y="282" width="190" height="2" fill="#a07858" opacity="0.55"/>
    <!-- fringe at the ends -->
    <rect x="12"  y="248" width="2" height="3" fill="#e0c8a8"/>
    <rect x="12"  y="256" width="2" height="3" fill="#e0c8a8"/>
    <rect x="12"  y="264" width="2" height="3" fill="#e0c8a8"/>
    <rect x="12"  y="272" width="2" height="3" fill="#e0c8a8"/>
    <rect x="12"  y="280" width="2" height="3" fill="#e0c8a8"/>
    <rect x="204" y="248" width="2" height="3" fill="#e0c8a8"/>
    <rect x="204" y="256" width="2" height="3" fill="#e0c8a8"/>
    <rect x="204" y="264" width="2" height="3" fill="#e0c8a8"/>
    <rect x="204" y="272" width="2" height="3" fill="#e0c8a8"/>
    <rect x="204" y="280" width="2" height="3" fill="#e0c8a8"/>
  </g>

  <!-- ============= DAYBED (left third; low platform with cream linens, plush bear, folded throw) ============= -->
  <g id="b3-daybed" pointer-events="none">
    <!-- platform/frame -->
    <rect x="20"  y="216" width="180" height="34" fill="url(#b3Daybed)"/>
    <rect x="20"  y="216" width="180" height="2"  fill="#d8a8c0"/>
    <rect x="20"  y="248" width="180" height="2"  fill="#3a2030"/>
    <!-- legs -->
    <rect x="22"  y="250" width="6" height="14" fill="#3a2030"/>
    <rect x="192" y="250" width="6" height="14" fill="#3a2030"/>
    <!-- mattress (cream) -->
    <rect x="24"  y="200" width="172" height="18" fill="#f0e0c8"/>
    <rect x="24"  y="200" width="172" height="2"  fill="#fdeed8"/>
    <rect x="24"  y="216" width="172" height="2"  fill="#c8a890"/>
    <!-- a couple of quilted stitches -->
    <rect x="60"  y="208" width="2" height="2" fill="#c8a890" opacity="0.7"/>
    <rect x="100" y="208" width="2" height="2" fill="#c8a890" opacity="0.7"/>
    <rect x="140" y="208" width="2" height="2" fill="#c8a890" opacity="0.7"/>
    <!-- pillow -->
    <rect x="30"  y="184" width="58" height="20" fill="#f8eedc"/>
    <rect x="30"  y="184" width="58" height="2"  fill="#fdf6e6"/>
    <rect x="30"  y="202" width="58" height="2"  fill="#c8b8a0"/>
    <rect x="30"  y="184" width="2"  height="20" fill="#fdf6e6"/>
    <rect x="86"  y="184" width="2"  height="20" fill="#c8b8a0"/>
    <!-- a pillow embroidery hint (a tiny heart) -->
    <rect x="54" y="192" width="2" height="2" fill="#c87898" opacity="0.7"/>
    <rect x="58" y="192" width="2" height="2" fill="#c87898" opacity="0.7"/>
    <rect x="56" y="194" width="2" height="2" fill="#c87898" opacity="0.7"/>

    <!-- folded throw at the foot (dusty pink with stripes) -->
    <rect x="146" y="194" width="50" height="22" fill="url(#b3Throw)"/>
    <rect x="146" y="194" width="50" height="2"  fill="#f0c8d0"/>
    <rect x="146" y="214" width="50" height="2"  fill="#88506a"/>
    <rect x="146" y="200" width="50" height="1"  fill="#f0c8d0" opacity="0.6"/>
    <rect x="146" y="207" width="50" height="1"  fill="#f0c8d0" opacity="0.6"/>
    <!-- fringe along the bottom of the folded throw -->
    <rect x="148" y="216" width="2" height="3" fill="#f0c8d0"/>
    <rect x="156" y="216" width="2" height="3" fill="#f0c8d0"/>
    <rect x="164" y="216" width="2" height="3" fill="#f0c8d0"/>
    <rect x="172" y="216" width="2" height="3" fill="#f0c8d0"/>
    <rect x="180" y="216" width="2" height="3" fill="#f0c8d0"/>
    <rect x="188" y="216" width="2" height="3" fill="#f0c8d0"/>
  </g>

  <!-- ============= PLUSH BEAR (sitting at the head of the bed; childhood remnant) ============= -->
  <g id="b3-plush" pointer-events="none">
    <!-- body -->
    <rect x="96"  y="190" width="22" height="14" fill="#c88858"/>
    <rect x="96"  y="190" width="22" height="2"  fill="#dca878"/>
    <rect x="96"  y="202" width="22" height="2"  fill="#7a4828"/>
    <!-- belly (lighter patch) -->
    <rect x="102" y="194" width="10" height="8" fill="#dca878"/>
    <!-- arms -->
    <rect x="92"  y="194" width="4"  height="8" fill="#a87038"/>
    <rect x="118" y="194" width="4"  height="8" fill="#a87038"/>
    <!-- head -->
    <rect x="98"  y="176" width="18" height="14" fill="#c88858"/>
    <rect x="98"  y="176" width="18" height="2"  fill="#dca878"/>
    <rect x="98"  y="188" width="18" height="2"  fill="#7a4828"/>
    <!-- ears -->
    <rect x="98"  y="172" width="4"  height="4"  fill="#a87038"/>
    <rect x="112" y="172" width="4"  height="4"  fill="#a87038"/>
    <rect x="100" y="174" width="2"  height="2"  fill="#dca878"/>
    <rect x="114" y="174" width="2"  height="2"  fill="#dca878"/>
    <!-- snout + face -->
    <rect x="104" y="184" width="6"  height="3"  fill="#dca878"/>
    <rect x="106" y="186" width="2"  height="1"  fill="#3a2018"/>
    <!-- eyes -->
    <rect x="102" y="181" width="2"  height="2"  fill="#3a2018"/>
    <rect x="110" y="181" width="2"  height="2"  fill="#3a2018"/>
    <!-- a small ribbon / bow at the neck (warm pink) -->
    <rect x="104" y="190" width="6"  height="2"  fill="#c87898"/>
    <rect x="106" y="188" width="2"  height="2"  fill="#c87898"/>
  </g>

  <!-- ============= NIGHTSTAND + LAMP + BOOKS + MUG + PLANT ============= -->
  <!-- nightstand (small chest) -->
  <g id="b3-nightstand" pointer-events="none">
    <rect x="216" y="208" width="64" height="40" fill="url(#b3Nightstand)"/>
    <rect x="216" y="208" width="64" height="2"  fill="#d8a878"/>
    <rect x="216" y="246" width="64" height="2"  fill="#3a2818"/>
    <rect x="216" y="208" width="2"  height="40" fill="#d8a878"/>
    <rect x="278" y="208" width="2"  height="40" fill="#3a2818"/>
    <!-- one drawer -->
    <rect x="220" y="216" width="56" height="14" fill="#8a6038"/>
    <rect x="220" y="216" width="56" height="2"  fill="#a87838"/>
    <rect x="220" y="228" width="56" height="2"  fill="#3a2818"/>
    <!-- drawer pull -->
    <rect x="244" y="222" width="8"  height="2"  fill="#d8b878"/>
    <!-- legs -->
    <rect x="218" y="248" width="4"  height="14" fill="#3a2818"/>
    <rect x="274" y="248" width="4"  height="14" fill="#3a2818"/>
  </g>

  <!-- LAMP (the warm light source) -->
  <g id="b3-lamp">
    <!-- under-shade glow sliver (warmer near the bulb) -->
    <ellipse cx="240" cy="200" rx="36" ry="10" fill="#fde8b8" opacity="0.55" pointer-events="none"/>
    <!-- shade (trapezoid) -->
    <polygon points="218,170 262,170 268,200 212,200" fill="url(#b3LampShade)" pointer-events="none"/>
    <polygon points="218,170 262,170 268,200 212,200" fill="none" stroke="#a87838" stroke-width="1" pointer-events="none"/>
    <!-- a soft cream trim band along the bottom of the shade -->
    <rect x="212" y="196" width="56" height="3" fill="#fde8b8" pointer-events="none"/>
    <!-- pole -->
    <rect x="237" y="200" width="6" height="6" fill="#a87838" pointer-events="none"/>
    <rect x="234" y="206" width="12" height="2" fill="#684838" pointer-events="none"/>
  </g>

  <!-- BOOKS stacked on the floor next to the nightstand (out from under the lamp) -->
  <g id="b3-books" pointer-events="none">
    <!-- bottom book (teal) sitting on the floor -->
    <rect x="288" y="258" width="34" height="6" fill="#5a8888"/>
    <rect x="288" y="258" width="34" height="1" fill="#7aa8a8"/>
    <rect x="288" y="263" width="34" height="1" fill="#3a5868"/>
    <rect x="290" y="260" width="14" height="2" fill="#3a5868" opacity="0.6"/>
    <!-- middle book (ochre) -->
    <rect x="290" y="252" width="32" height="6" fill="#c89858"/>
    <rect x="290" y="252" width="32" height="1" fill="#e8b878"/>
    <rect x="290" y="257" width="32" height="1" fill="#785828"/>
    <rect x="292" y="254" width="14" height="2" fill="#785828" opacity="0.6"/>
    <!-- top book (dusty rose) -->
    <rect x="292" y="246" width="28" height="6" fill="#c88898"/>
    <rect x="292" y="246" width="28" height="1" fill="#e8a8b8"/>
    <rect x="292" y="251" width="28" height="1" fill="#785868"/>
    <rect x="294" y="248" width="12" height="2" fill="#785868" opacity="0.6"/>
    <!-- a small contact shadow under the stack -->
    <ellipse cx="305" cy="265" rx="20" ry="2" fill="#3a2818" opacity="0.5"/>
  </g>

  <!-- MUG on top of the floor book stack (3 positional variants; rotates per visit) -->
  <g id="b3-mug-a" pointer-events="none">
    <rect x="300" y="236" width="14" height="10" fill="#fde8c8"/>
    <rect x="300" y="236" width="14" height="2"  fill="#fdf6e6"/>
    <rect x="300" y="244" width="14" height="2"  fill="#c8a888"/>
    <rect x="314" y="238" width="3"  height="6"  fill="none" stroke="#fde8c8" stroke-width="1"/>
    <!-- a tiny steam wisp -->
    <rect x="305" y="230" width="1" height="4" fill="#f0e0d0" opacity="0.55">
      <animate attributeName="opacity" values="0.2;0.65;0.2" dur="3.4s" repeatCount="indefinite"/>
    </rect>
    <rect x="308" y="228" width="1" height="6" fill="#f0e0d0" opacity="0.45">
      <animate attributeName="opacity" values="0.15;0.55;0.15" dur="4.0s" repeatCount="indefinite"/>
    </rect>
  </g>
  <g id="b3-mug-b" pointer-events="none" visibility="hidden">
    <rect x="306" y="236" width="14" height="10" fill="#fde8c8"/>
    <rect x="306" y="236" width="14" height="2"  fill="#fdf6e6"/>
    <rect x="306" y="244" width="14" height="2"  fill="#c8a888"/>
    <rect x="320" y="238" width="3"  height="6"  fill="none" stroke="#fde8c8" stroke-width="1"/>
    <rect x="311" y="230" width="1" height="4" fill="#f0e0d0" opacity="0.55">
      <animate attributeName="opacity" values="0.2;0.65;0.2" dur="3.4s" repeatCount="indefinite"/>
    </rect>
    <rect x="314" y="228" width="1" height="6" fill="#f0e0d0" opacity="0.45">
      <animate attributeName="opacity" values="0.15;0.55;0.15" dur="4.0s" repeatCount="indefinite"/>
    </rect>
  </g>
  <g id="b3-mug-c" pointer-events="none" visibility="hidden">
    <rect x="294" y="236" width="14" height="10" fill="#fde8c8"/>
    <rect x="294" y="236" width="14" height="2"  fill="#fdf6e6"/>
    <rect x="294" y="244" width="14" height="2"  fill="#c8a888"/>
    <rect x="308" y="238" width="3"  height="6"  fill="none" stroke="#fde8c8" stroke-width="1"/>
    <rect x="299" y="230" width="1" height="4" fill="#f0e0d0" opacity="0.55">
      <animate attributeName="opacity" values="0.2;0.65;0.2" dur="3.4s" repeatCount="indefinite"/>
    </rect>
    <rect x="302" y="228" width="1" height="6" fill="#f0e0d0" opacity="0.45">
      <animate attributeName="opacity" values="0.15;0.55;0.15" dur="4.0s" repeatCount="indefinite"/>
    </rect>
  </g>

  <!-- HOUSEPLANT (small pot on the floor; nudged right to make room for the floor book stack) -->
  <g id="b3-plant" pointer-events="none">
    <!-- pot -->
    <rect x="336" y="232" width="22" height="18" fill="#a87858"/>
    <rect x="336" y="232" width="22" height="2"  fill="#c89878"/>
    <rect x="336" y="248" width="22" height="2"  fill="#684838"/>
    <rect x="336" y="232" width="2"  height="18" fill="#c89878"/>
    <rect x="356" y="232" width="2"  height="18" fill="#684838"/>
    <!-- soil -->
    <rect x="338" y="232" width="18" height="3"  fill="#3a2818"/>
    <!-- leaves -->
    <rect x="344" y="222" width="3"  height="10" fill="#7a9858"/>
    <rect x="342" y="220" width="3"  height="6"  fill="#5a7838"/>
    <rect x="348" y="218" width="3"  height="6"  fill="#88a868"/>
    <rect x="338" y="226" width="3"  height="6"  fill="#5a7838"/>
    <rect x="352" y="224" width="3"  height="8"  fill="#7a9858"/>
    <rect x="350" y="220" width="2"  height="4"  fill="#88a868"/>
    <rect x="346" y="216" width="2"  height="6"  fill="#88a868"/>
  </g>

  <!-- ============= MOVING BOXES (small, soft, friendly handwriting; nudged right to clear the new book stack) ============= -->
  <g id="b3-boxes" pointer-events="none">
    <!-- bottom box -->
    <rect x="372" y="246" width="50" height="34" fill="url(#b3Box)"/>
    <rect x="372" y="246" width="50" height="2"  fill="#e8c898"/>
    <rect x="372" y="278" width="50" height="2"  fill="#684830"/>
    <rect x="372" y="246" width="2"  height="34" fill="#e8c898"/>
    <rect x="420" y="246" width="2"  height="34" fill="#684830"/>
    <!-- soft tape -->
    <rect x="372" y="260" width="50" height="3"  fill="#f4e4c8" opacity="0.7"/>
    <!-- handwritten label: "winter" (just a few pixel strokes, friendly) -->
    <rect x="378" y="252" width="2" height="4" fill="#3a2818"/>
    <rect x="378" y="252" width="4" height="1" fill="#3a2818"/>
    <rect x="384" y="252" width="2" height="4" fill="#3a2818"/>
    <rect x="386" y="254" width="2" height="2" fill="#3a2818"/>
    <rect x="390" y="252" width="1" height="4" fill="#3a2818"/>
    <rect x="393" y="252" width="2" height="4" fill="#3a2818"/>
    <rect x="395" y="252" width="2" height="1" fill="#3a2818"/>
    <rect x="395" y="255" width="2" height="1" fill="#3a2818"/>
    <rect x="399" y="252" width="2" height="4" fill="#3a2818"/>
    <rect x="399" y="252" width="4" height="1" fill="#3a2818"/>
    <rect x="399" y="255" width="3" height="1" fill="#3a2818"/>

    <!-- top box (smaller, slightly rotated) -->
    <g transform="rotate(-2 397 232)">
      <rect x="380" y="222" width="36" height="22" fill="url(#b3Box)"/>
      <rect x="380" y="222" width="36" height="2"  fill="#e8c898"/>
      <rect x="380" y="242" width="36" height="2"  fill="#684830"/>
      <rect x="380" y="222" width="2"  height="22" fill="#e8c898"/>
      <rect x="414" y="222" width="2"  height="22" fill="#684830"/>
      <!-- a small heart drawn on it -->
      <rect x="392" y="230" width="2" height="2" fill="#a85878"/>
      <rect x="396" y="230" width="2" height="2" fill="#a85878"/>
      <rect x="394" y="232" width="2" height="2" fill="#a85878"/>
    </g>
  </g>

  <!-- ============= LIGHT WASH from the lamp pool, re-applied on top of foreground objects subtly ============= -->
  <ellipse cx="240" cy="220" rx="160" ry="60" fill="#fde0a8" opacity="0.10" pointer-events="none"/>

  <!-- ============= DUST MOTES catching the lamp light (sparse, warm) ============= -->
  <g id="b3-dust" pointer-events="none">
    <rect x="180" y="120" width="2" height="2" fill="#fde8b8" opacity="0">
      <animate attributeName="y"       values="120;240;120" dur="14s" repeatCount="indefinite"/>
      <animate attributeName="opacity" values="0;0.65;0"    dur="14s" repeatCount="indefinite"/>
    </rect>
    <rect x="260" y="80"  width="2" height="2" fill="#fde8b8" opacity="0">
      <animate attributeName="y"       values="80;240;80"   dur="22s" repeatCount="indefinite"/>
      <animate attributeName="opacity" values="0;0.55;0"    dur="22s" repeatCount="indefinite"/>
    </rect>
    <rect x="220" y="140" width="1" height="1" fill="#fde8b8" opacity="0">
      <animate attributeName="y"       values="140;240;140" dur="18s" repeatCount="indefinite"/>
      <animate attributeName="opacity" values="0;0.7;0"     dur="18s" repeatCount="indefinite"/>
    </rect>
    <rect x="148" y="100" width="1" height="1" fill="#fde8b8" opacity="0">
      <animate attributeName="y"       values="100;240;100" dur="20s" repeatCount="indefinite"/>
      <animate attributeName="opacity" values="0;0.55;0"    dur="20s" repeatCount="indefinite"/>
    </rect>
  </g>

  <!-- side darkening (subtle vignette to keep the focal pool centered) -->
  <rect x="0"   y="0" width="34" height="320" fill="url(#b3SidesL)" pointer-events="none"/>
  <rect x="446" y="0" width="34" height="320" fill="url(#b3SidesR)" pointer-events="none"/>

  <!-- soft outer vignette -->
  <rect width="480" height="320" fill="none" stroke="#3a2418" stroke-width="20" opacity="0.45" pointer-events="none"/>

  <!-- ============= INTERACTION HOTSPOTS ============= -->
  <g id="b3-hotspots">
    <rect id="hit-stars"        x="48"  y="46"  width="246" height="56"  fill="transparent" pointer-events="all"/>
    <rect id="hit-string-lights" x="14"  y="30"  width="450" height="22"  fill="transparent" pointer-events="all"/>
    <rect id="hit-frame"        x="88"  y="54"  width="70"  height="58"  fill="transparent" pointer-events="all"/>
    <rect id="hit-glow-patch"   x="44"  y="118" width="68"  height="44"  fill="transparent" pointer-events="all"/>
    <rect id="hit-doorway"      x="178" y="76"  width="84"  height="148" fill="transparent" pointer-events="all"/>
    <rect id="hit-window"       x="296" y="64"  width="132" height="142" fill="transparent" pointer-events="all"/>
    <rect id="hit-curtains"     x="282" y="64"  width="20"  height="146" fill="transparent" pointer-events="all"/>
    <rect id="hit-plush"        x="90"  y="170" width="32"  height="38"  fill="transparent" pointer-events="all"/>
    <rect id="hit-daybed"       x="20"  y="180" width="180" height="84"  fill="transparent" pointer-events="all"/>
    <rect id="hit-lamp"         x="208" y="166" width="64"  height="44"  fill="transparent" pointer-events="all"/>
    <rect id="hit-books"        x="284" y="244" width="42"  height="22"  fill="transparent" pointer-events="all"/>
    <rect id="hit-mug"          x="288" y="226" width="36"  height="22"  fill="transparent" pointer-events="all"/>
    <rect id="hit-plant"        x="334" y="208" width="28"  height="44"  fill="transparent" pointer-events="all"/>
    <rect id="hit-rug"          x="14"  y="244" width="190" height="46"  fill="transparent" pointer-events="all"/>
    <rect id="hit-boxes"        x="370" y="218" width="58"  height="68"  fill="transparent" pointer-events="all"/>
  </g>
</svg>
