<svg xmlns="http://www.w3.org/2000/svg" viewBox="0 0 480 320" shape-rendering="crispEdges">
  <title>Foyer memory fragment (apartment two)</title>
  <desc>Cropped vignette: the apartment two front door at an anxious, transitional moment. A packed duffel waits on the floor. Shoes are scattered, kicked off in a hurry. A small stack of moving boxes leans against the wall. Keys hang on a hook. A warm light spills from beneath the door - the color cycles between visits. The apartment number subtly changes. The hallway outside the peephole is never the same twice.</desc>

  <defs>
    <!-- cooler, more anxious palette than apt one's foyer -->
    <linearGradient id="fyWall" x1="0" y1="0" x2="0" y2="1">
      <stop offset="0%"  stop-color="#4a5868"/>
      <stop offset="55%" stop-color="#363e4c"/>
      <stop offset="100%" stop-color="#1a1e28"/>
    </linearGradient>
    <linearGradient id="fyFloor" x1="0" y1="0" x2="0" y2="1">
      <stop offset="0%" stop-color="#3a2a20"/>
      <stop offset="100%" stop-color="#10080a"/>
    </linearGradient>
    <linearGradient id="fyDoor" x1="0" y1="0" x2="1" y2="0">
      <stop offset="0%"  stop-color="#5a6878"/>
      <stop offset="50%" stop-color="#46586a"/>
      <stop offset="100%" stop-color="#34424e"/>
    </linearGradient>
    <linearGradient id="fyDoorPanel" x1="0" y1="0" x2="0" y2="1">
      <stop offset="0%"  stop-color="#34424e"/>
      <stop offset="100%" stop-color="#222c36"/>
    </linearGradient>
    <linearGradient id="fyFrame" x1="0" y1="0" x2="0" y2="1">
      <stop offset="0%"  stop-color="#3a2418"/>
      <stop offset="100%" stop-color="#1a100a"/>
    </linearGradient>
    <linearGradient id="fyDuffel" x1="0" y1="0" x2="0" y2="1">
      <stop offset="0%"  stop-color="#5a6068"/>
      <stop offset="100%" stop-color="#222830"/>
    </linearGradient>
    <linearGradient id="fyBox" x1="0" y1="0" x2="0" y2="1">
      <stop offset="0%"  stop-color="#b8865a"/>
      <stop offset="100%" stop-color="#583a20"/>
    </linearGradient>
    <radialGradient id="fyUnderGlow" cx="50%" cy="0%" r="80%">
      <stop offset="0%"   stop-color="#f4c878" stop-opacity="0.85"/>
      <stop offset="60%"  stop-color="#a87838" stop-opacity="0.40"/>
      <stop offset="100%" stop-color="#000000" stop-opacity="0"/>
    </radialGradient>
    <linearGradient id="fySidesL" x1="0" y1="0" x2="1" y2="0">
      <stop offset="0%"   stop-color="#000000" stop-opacity="0.50"/>
      <stop offset="100%" stop-color="#000000" stop-opacity="0"/>
    </linearGradient>
    <linearGradient id="fySidesR" x1="1" y1="0" x2="0" y2="0">
      <stop offset="0%"   stop-color="#000000" stop-opacity="0.50"/>
      <stop offset="100%" stop-color="#000000" stop-opacity="0"/>
    </linearGradient>
  </defs>

  <!-- ============= WALL & FLOOR ============= -->
  <rect width="480" height="320" fill="url(#fyWall)"/>

  <!-- subtle wall texture (vertical stripes + tape-ghost rectangles) -->
  <g id="fy-wall-tex" pointer-events="none" opacity="0.30">
    <rect x="40"  y="0" width="1" height="278" fill="#5a6878"/>
    <rect x="80"  y="0" width="1" height="278" fill="#5a6878"/>
    <rect x="120" y="0" width="1" height="278" fill="#5a6878"/>
    <rect x="380" y="0" width="1" height="278" fill="#5a6878"/>
    <rect x="420" y="0" width="1" height="278" fill="#5a6878"/>
    <rect x="460" y="0" width="1" height="278" fill="#5a6878"/>
    <!-- discoloration patches near doorframe -->
    <rect x="120" y="140" width="32" height="60" fill="#1a1e28" opacity="0.18"/>
    <rect x="350" y="140" width="32" height="60" fill="#1a1e28" opacity="0.18"/>
    <!-- a small tape ghost where something used to hang -->
    <rect x="56" y="78"  width="22" height="2" fill="#a89880" opacity="0.4"/>
    <rect x="56" y="100" width="22" height="2" fill="#a89880" opacity="0.4"/>
  </g>

  <!-- side darkening (tight cinematic crop) -->
  <rect x="0"   y="0" width="36" height="320" fill="url(#fySidesL)"/>
  <rect x="444" y="0" width="36" height="320" fill="url(#fySidesR)"/>

  <!-- ceiling shadow line -->
  <rect x="0" y="0" width="480" height="4" fill="#1a100a" opacity="0.6"/>
  <rect x="0" y="4" width="480" height="2" fill="#3a2418" opacity="0.4"/>

  <!-- baseboard + floor -->
  <rect x="0" y="278" width="480" height="4"  fill="#5a3a26"/>
  <rect x="0" y="278" width="480" height="2"  fill="#7a5236"/>
  <rect x="0" y="282" width="480" height="38" fill="url(#fyFloor)"/>
  <rect x="0"   y="296" width="480" height="1" fill="#0e0a06" opacity="0.55"/>
  <rect x="0"   y="312" width="480" height="1" fill="#0e0a06" opacity="0.45"/>
  <rect x="120" y="282" width="1"  height="38" fill="#0e0a06" opacity="0.45"/>
  <rect x="240" y="282" width="1"  height="38" fill="#0e0a06" opacity="0.45"/>
  <rect x="360" y="282" width="1"  height="38" fill="#0e0a06" opacity="0.45"/>

  <!-- ============= WARM LIGHT POOL ON THE FLOOR (from under the door) ============= -->
  <g id="fy-floor-spill" pointer-events="none">
    <rect x="100" y="282" width="280" height="36" fill="url(#fyUnderGlow)" opacity="0.85">
      <animate attributeName="opacity" values="0.7;0.95;0.78;0.92;0.74;0.9" dur="7.2s" repeatCount="indefinite"/>
    </rect>
  </g>

  <!-- ============= DOOR FRAME (jamb + header) ============= -->
  <g id="fy-frame">
    <rect x="148" y="32"  width="204" height="10"  fill="url(#fyFrame)"/>
    <rect x="148" y="32"  width="204" height="2"   fill="#5a3826"/>
    <rect x="148" y="32"  width="6"   height="246" fill="url(#fyFrame)"/>
    <rect x="148" y="32"  width="2"   height="246" fill="#5a3826" opacity="0.7"/>
    <rect x="346" y="32"  width="6"   height="246" fill="url(#fyFrame)"/>
    <rect x="350" y="32"  width="2"   height="246" fill="#1a100a" opacity="0.7"/>
    <!-- shadow above the door (header lip) -->
    <rect x="154" y="42"  width="192" height="2"   fill="#000000" opacity="0.55"/>
  </g>

  <!-- ============= THE DOOR ============= -->
  <g id="fy-door">
    <g id="fy-door-shaker">
      <!-- subtle "knock" shake every once in a while -->
      <animateTransform attributeName="transform" type="translate"
        values="0 0; 0 0; 0 0; 0 0; 0 0; -0.6 0; 0.4 0; -0.4 0; 0 0; 0 0; 0 0; 0 0; 0 0; 0 0; 0 0; 0 0"
        dur="22s" repeatCount="indefinite"/>

      <rect x="154" y="40"  width="192" height="240" fill="url(#fyDoor)"/>
      <rect x="154" y="40"  width="192" height="3"   fill="#7a8898"/>
      <rect x="154" y="276" width="192" height="3"   fill="#1a2230" opacity="0.7"/>
      <rect x="154" y="40"  width="192" height="240" fill="none" stroke="#1a2230" stroke-width="1"/>
      <rect x="344" y="40"  width="2"   height="240" fill="#1a2230" opacity="0.6"/>

      <!-- 4 raised PANELS (top-left, top-right, bottom-left, bottom-right) -->
      <g id="fy-panel-tl">
        <rect x="166" y="56" width="78" height="78" fill="url(#fyDoorPanel)"/>
        <rect x="166" y="56" width="78" height="1"  fill="#7a8898"/>
        <rect x="166" y="56" width="1"  height="78" fill="#7a8898"/>
        <rect x="166" y="133" width="78" height="1" fill="#1a2230"/>
        <rect x="243" y="56"  width="1" height="78" fill="#1a2230"/>
      </g>
      <g id="fy-panel-tr">
        <rect x="256" y="56" width="78" height="78" fill="url(#fyDoorPanel)"/>
        <rect x="256" y="56" width="78" height="1"  fill="#7a8898"/>
        <rect x="256" y="56" width="1"  height="78" fill="#7a8898"/>
        <rect x="256" y="133" width="78" height="1" fill="#1a2230"/>
        <rect x="333" y="56"  width="1" height="78" fill="#1a2230"/>
      </g>
      <!-- mid rail -->
      <rect x="156" y="138" width="188" height="6" fill="#34424e"/>
      <rect x="156" y="138" width="188" height="1" fill="#7a8898"/>
      <rect x="156" y="143" width="188" height="1" fill="#1a2230"/>
      <g id="fy-panel-bl">
        <rect x="166" y="152" width="78" height="112" fill="url(#fyDoorPanel)"/>
        <rect x="166" y="152" width="78" height="1"   fill="#7a8898"/>
        <rect x="166" y="152" width="1"  height="112" fill="#7a8898"/>
        <rect x="166" y="263" width="78" height="1"   fill="#1a2230"/>
        <rect x="243" y="152" width="1"  height="112" fill="#1a2230"/>
      </g>
      <g id="fy-panel-br">
        <rect x="256" y="152" width="78" height="112" fill="url(#fyDoorPanel)"/>
        <rect x="256" y="152" width="78" height="1"   fill="#7a8898"/>
        <rect x="256" y="152" width="1"  height="112" fill="#7a8898"/>
        <rect x="256" y="263" width="78" height="1"   fill="#1a2230"/>
        <rect x="333" y="152" width="1"  height="112" fill="#1a2230"/>
      </g>

      <!-- KICK PLATE -->
      <rect x="156" y="266" width="188" height="10" fill="#a89880"/>
      <rect x="156" y="266" width="188" height="2"  fill="#c8b89c"/>
      <rect x="156" y="274" width="188" height="2"  fill="#5a4838" opacity="0.6"/>
      <rect x="160" y="270" width="2" height="2" fill="#5a4838"/>
      <rect x="338" y="270" width="2" height="2" fill="#5a4838"/>

      <!-- subtle wear scuffs near doorknob -->
      <rect x="290" y="180" width="36" height="2" fill="#1a2230" opacity="0.25"/>
      <rect x="298" y="186" width="22" height="1" fill="#1a2230" opacity="0.25"/>

      <!-- PEEPHOLE -->
      <g id="fy-peephole">
        <rect x="244" y="92" width="12" height="12" fill="#1a100a"/>
        <rect x="244" y="92" width="12" height="12" fill="none" stroke="#a88848" stroke-width="2"/>
        <rect x="246" y="94" width="8"  height="8"  fill="#0a0608"/>
        <!-- inner glint, slow pulse (something looking back) -->
        <rect x="248" y="96" width="2" height="2" fill="#f4c878" opacity="0.45">
          <animate attributeName="opacity" values="0.15;0.55;0.20;0.50;0.18" dur="4.4s" repeatCount="indefinite"/>
        </rect>
      </g>

      <!-- CHAIN LOCK (engaged this time - it's pulled taut across the gap to the wall side) -->
      <g id="fy-chain-lock">
        <!-- slide rail mounted on the door -->
        <rect x="158" y="116" width="44" height="8" fill="#7a7a82"/>
        <rect x="158" y="116" width="44" height="2" fill="#a8a8b0"/>
        <rect x="158" y="122" width="44" height="2" fill="#3a3a44" opacity="0.7"/>
        <rect x="164" y="119" width="32" height="2" fill="#1a1a22"/>
        <rect x="186" y="117" width="6"  height="6" fill="#c8c8d2"/>
        <rect x="186" y="117" width="6"  height="1" fill="#ecece8"/>
        <!-- the chain pulled across, engaged into the wall mount -->
        <rect x="200" y="120" width="3" height="2" fill="#a8a8b0"/>
        <rect x="204" y="120" width="3" height="2" fill="#a8a8b0"/>
        <rect x="208" y="120" width="3" height="2" fill="#a8a8b0"/>
        <rect x="212" y="120" width="3" height="2" fill="#a8a8b0"/>
        <rect x="216" y="120" width="3" height="2" fill="#a8a8b0"/>
        <rect x="220" y="120" width="3" height="2" fill="#a8a8b0"/>
        <rect x="224" y="120" width="3" height="2" fill="#a8a8b0"/>
        <rect x="228" y="120" width="3" height="2" fill="#a8a8b0"/>
        <rect x="232" y="120" width="3" height="2" fill="#a8a8b0"/>
        <rect x="236" y="120" width="3" height="2" fill="#a8a8b0"/>
        <rect x="240" y="120" width="3" height="2" fill="#a8a8b0"/>
        <!-- wall-side mount the chain is hooked into -->
        <rect x="244" y="118" width="6" height="6" fill="#7a7a82"/>
        <rect x="244" y="118" width="6" height="1" fill="#a8a8b0"/>
        <!-- subtle chain rattle -->
        <animateTransform attributeName="transform" type="translate"
          values="0 0; 0 0; 0 0; 0 0; 0 0.5; 0 -0.4; 0 0.4; 0 0; 0 0; 0 0; 0 0; 0 0; 0 0; 0 0; 0 0"
          dur="22s" repeatCount="indefinite"/>
      </g>

      <!-- DOORKNOB -->
      <g id="fy-knob">
        <rect x="318" y="186" width="22" height="22" fill="#a88848"/>
        <rect x="318" y="186" width="22" height="2"  fill="#d8b878"/>
        <rect x="318" y="206" width="22" height="2"  fill="#5a4828" opacity="0.7"/>
        <rect x="322" y="190" width="14" height="14" fill="#c8a868"/>
        <rect x="322" y="190" width="14" height="2"  fill="#ecd098"/>
        <rect x="322" y="202" width="14" height="2"  fill="#7a5828" opacity="0.7"/>
        <rect x="324" y="192" width="2"  height="2"  fill="#fff4d8"/>
      </g>
    </g>

    <!-- ============= LIGHT SEEPING UNDER THE DOOR (color cycles for magical realism) ============= -->
    <g id="fy-under-door" pointer-events="none">
      <rect id="fy-under-strip-warm"  class="fy-under-strip" x="154" y="276" width="192" height="3" fill="#f4c878" opacity="0.95"/>
      <rect id="fy-under-strip-cool"  class="fy-under-strip" x="154" y="276" width="192" height="3" fill="#88c0e8" opacity="0" visibility="hidden"/>
      <rect id="fy-under-strip-green" class="fy-under-strip" x="154" y="276" width="192" height="3" fill="#a8e0a8" opacity="0" visibility="hidden"/>
      <rect id="fy-under-strip-red"   class="fy-under-strip" x="154" y="276" width="192" height="3" fill="#f48868" opacity="0" visibility="hidden"/>
      <!-- subtle flicker on top -->
      <rect x="154" y="276" width="192" height="3" fill="#ffffff" opacity="0.10">
        <animate attributeName="opacity" values="0.04;0.18;0.06;0.14;0.05" dur="3.4s" repeatCount="indefinite"/>
      </rect>
    </g>
  </g>

  <!-- ============= LEFT-UPPER: small brass HOOK with KEYS ============= -->
  <g id="fy-key-hook">
    <rect x="80" y="148" width="16" height="6" fill="#3a2418"/>
    <rect x="80" y="148" width="16" height="2" fill="#5a3826"/>
    <rect x="86" y="154" width="3"  height="6" fill="#a88848"/>
    <rect x="84" y="158" width="7"  height="2" fill="#a88848"/>
  </g>

  <g id="fy-keys">
    <!-- key ring -->
    <rect x="84" y="162" width="6" height="6" fill="none" stroke="#a89880" stroke-width="1"/>
    <!-- key 1 (long brass, left) -->
    <rect x="78" y="168" width="3" height="14" fill="#c8a868"/>
    <rect x="76" y="168" width="7" height="4"  fill="#c8a868"/>
    <rect x="76" y="168" width="7" height="1"  fill="#e8c888"/>
    <rect x="78" y="180" width="3" height="2"  fill="#c8a868"/>
    <rect x="79" y="176" width="2" height="2"  fill="#a88848"/>
    <!-- key 2 (silver, center) -->
    <rect x="86" y="168" width="3" height="16" fill="#a8a8b8"/>
    <rect x="84" y="168" width="7" height="3"  fill="#a8a8b8"/>
    <rect x="84" y="168" width="7" height="1"  fill="#c8c8d8"/>
    <rect x="86" y="182" width="3" height="2"  fill="#a8a8b8"/>
    <!-- key 3 (small bronze, right) -->
    <rect x="92" y="168" width="3" height="11" fill="#9a6838"/>
    <rect x="90" y="168" width="7" height="3"  fill="#9a6838"/>
    <rect x="90" y="168" width="7" height="1"  fill="#bb8858"/>
    <!-- a small enamel keychain trinket dangling -->
    <rect x="98" y="170" width="6" height="6" fill="#a85040"/>
    <rect x="98" y="170" width="6" height="1" fill="#c87060"/>
    <rect x="98" y="175" width="6" height="1" fill="#681818"/>
    <!-- subtle sway -->
    <animateTransform attributeName="transform" type="rotate"
      values="0 87 162; 0.6 87 162; 0 87 162; -0.5 87 162; 0 87 162"
      dur="11s" repeatCount="indefinite"/>
  </g>

  <!-- ============= LEFT-FLOOR: PACKED DUFFEL BAG ============= -->
  <g id="fy-duffel">
    <!-- main oblong body (sits on the floor) -->
    <rect x="40"  y="248" width="92" height="36" fill="url(#fyDuffel)"/>
    <!-- rounded ends via stair-step pixels -->
    <rect x="38"  y="252" width="2" height="28" fill="url(#fyDuffel)"/>
    <rect x="36"  y="256" width="2" height="20" fill="url(#fyDuffel)"/>
    <rect x="132" y="252" width="2" height="28" fill="url(#fyDuffel)"/>
    <rect x="134" y="256" width="2" height="20" fill="url(#fyDuffel)"/>
    <!-- top-edge highlight + bottom shadow -->
    <rect x="40" y="248" width="92" height="1" fill="#7a8088"/>
    <rect x="40" y="282" width="92" height="2" fill="#10141a"/>
    <!-- horizontal zipper seam down the middle -->
    <rect x="40" y="262" width="92" height="2" fill="#1a2028" opacity="0.85"/>
    <rect x="40" y="263" width="92" height="1" fill="#a8b0b8" opacity="0.5"/>
    <!-- zipper pull -->
    <rect x="86" y="259" width="4" height="6" fill="#3a4048"/>
    <rect x="86" y="259" width="4" height="1" fill="#a8b0b8"/>
    <!-- end pocket (small zippered pocket on the left) -->
    <rect x="46" y="258" width="22" height="20" fill="#3a4048" opacity="0.7"/>
    <rect x="46" y="258" width="22" height="1"  fill="#5a6068"/>
    <rect x="46" y="277" width="22" height="1"  fill="#10141a"/>
    <rect x="46" y="266" width="22" height="1"  fill="#1a2028" opacity="0.85"/>
    <!-- two looped handles at the top -->
    <path d="M 60 248 Q 64 230 78 230 Q 92 230 96 248" fill="none" stroke="#1a2028" stroke-width="3"/>
    <path d="M 60 248 Q 64 230 78 230 Q 92 230 96 248" fill="none" stroke="#3a4048" stroke-width="1"/>
    <!-- a long shoulder strap dragging across the floor -->
    <path d="M 130 254 Q 150 270 168 286 Q 152 296 138 290" fill="none" stroke="#1a2028" stroke-width="3"/>
    <path d="M 130 254 Q 150 270 168 286 Q 152 296 138 290" fill="none" stroke="#3a4048" stroke-width="1"/>
    <!-- a luggage tag dangling on a string -->
    <line x1="120" y1="248" x2="124" y2="240" stroke="#1a2028" stroke-width="1"/>
    <rect x="118" y="240" width="12" height="9" fill="#dccfb8"/>
    <rect x="118" y="240" width="12" height="2" fill="#ecdfb8"/>
    <rect x="120" y="244" width="8"  height="1" fill="#3a2418" opacity="0.7"/>
    <rect x="120" y="246" width="6"  height="1" fill="#3a2418" opacity="0.6"/>
    <!-- a small reflective patch on the side (suitcase aesthetics) -->
    <rect x="98" y="270" width="8" height="3" fill="#a8b0b8" opacity="0.55"/>
  </g>

  <!-- ============= RIGHT-WALL: stack of 2 MOVING BOXES against the wall ============= -->
  <g id="fy-boxes">
    <!-- bottom box (larger, on the floor) -->
    <rect x="376" y="216" width="86" height="64" fill="url(#fyBox)"/>
    <rect x="376" y="216" width="86" height="2"  fill="#d8a878"/>
    <rect x="376" y="278" width="86" height="2"  fill="#3a2010"/>
    <rect x="376" y="216" width="2"  height="64" fill="#d8a878"/>
    <rect x="460" y="216" width="2"  height="64" fill="#3a2010"/>
    <!-- packing tape strip -->
    <rect x="376" y="244" width="86" height="3" fill="#a89878" opacity="0.8"/>
    <rect x="376" y="244" width="86" height="1" fill="#c8b898" opacity="0.85"/>
    <rect x="376" y="246" width="86" height="1" fill="#785a3a" opacity="0.85"/>
    <!-- sharpie label -->
    <rect x="384" y="226" width="38" height="2" fill="#1a1008"/>
    <rect x="384" y="232" width="28" height="2" fill="#1a1008"/>
    <rect x="384" y="238" width="32" height="2" fill="#1a1008"/>
    <!-- FRAGILE stamp -->
    <rect x="424" y="226" width="32" height="6" fill="#a83838" opacity="0.85"/>
    <rect x="424" y="226" width="32" height="1" fill="#c85858"/>
    <rect x="424" y="231" width="32" height="1" fill="#681818"/>

    <!-- top box (smaller, slightly tilted, flaps half-open) -->
    <g transform="rotate(-2 412 192)">
      <rect x="386" y="170" width="64" height="46" fill="url(#fyBox)"/>
      <rect x="386" y="170" width="64" height="2" fill="#d8a878"/>
      <rect x="386" y="214" width="64" height="2" fill="#3a2010"/>
      <rect x="386" y="170" width="2"  height="46" fill="#d8a878"/>
      <rect x="448" y="170" width="2"  height="46" fill="#3a2010"/>
      <!-- top flaps half-open -->
      <polygon points="386,170 450,170 444,160 392,160" fill="#583a20"/>
      <polygon points="386,170 450,170 444,160 392,160" fill="none" stroke="#3a2010" stroke-width="1"/>
      <!-- sharpie label -->
      <rect x="394" y="180" width="36" height="2" fill="#1a1008"/>
      <rect x="394" y="186" width="22" height="2" fill="#1a1008"/>
    </g>
  </g>

  <!-- ============= SCATTERED SHOES (kicked off, not lined up) ============= -->
  <g id="fy-shoes">
    <!-- shoe 1: a sneaker on its side, left of the doormat, rotated -->
    <g id="fy-shoe-1" transform="rotate(-18 380 296)">
      <rect x="370" y="290" width="22" height="8" fill="#dccfb8"/>
      <rect x="370" y="288" width="22" height="2" fill="#ecdfb8"/>
      <rect x="370" y="298" width="22" height="2" fill="#7a6848" opacity="0.7"/>
      <rect x="374" y="284" width="14" height="6" fill="#a85040"/>
      <rect x="374" y="284" width="14" height="1" fill="#c87060"/>
      <rect x="378" y="286" width="6"  height="1" fill="#1a100a"/>
    </g>
    <!-- shoe 2: matching sneaker, FLIPPED (kicked off carelessly) -->
    <g id="fy-shoe-2" transform="rotate(22 416 304)">
      <rect x="406" y="298" width="22" height="6" fill="#dccfb8"/>
      <rect x="406" y="304" width="22" height="2" fill="#7a6848" opacity="0.7"/>
      <rect x="410" y="294" width="14" height="6" fill="#a85040"/>
      <rect x="410" y="294" width="14" height="1" fill="#c87060"/>
      <rect x="414" y="296" width="6"  height="1" fill="#1a100a"/>
    </g>
    <!-- shoe 3: a single dress shoe well away from the others (its pair is missing) -->
    <g id="fy-shoe-3" transform="rotate(8 256 308)">
      <rect x="246" y="302" width="20" height="6" fill="#3a2418"/>
      <rect x="246" y="302" width="20" height="1" fill="#5a3826"/>
      <rect x="246" y="308" width="20" height="2" fill="#1a100a" opacity="0.7"/>
      <rect x="250" y="299" width="12" height="3" fill="#3a2418"/>
    </g>
    <!-- shoe 4: a boot tipped onto its side -->
    <g id="fy-shoe-4" transform="rotate(-22 200 304)">
      <!-- foot bed -->
      <rect x="184" y="298" width="32" height="10" fill="#5a3826"/>
      <rect x="184" y="298" width="32" height="1"  fill="#7a5236"/>
      <rect x="184" y="308" width="32" height="2"  fill="#1a100a" opacity="0.7"/>
      <!-- shaft of the boot -->
      <rect x="200" y="284" width="14" height="14" fill="#5a3826"/>
      <rect x="200" y="284" width="14" height="1"  fill="#7a5236"/>
      <rect x="213" y="284" width="1"  height="14" fill="#1a100a"/>
    </g>
  </g>

  <!-- ============= small DOORMAT at the threshold (worn-out, half-erased text) ============= -->
  <g id="fy-mat" pointer-events="none">
    <rect x="172" y="294" width="156" height="14" fill="#3a2820"/>
    <rect x="172" y="294" width="156" height="2"  fill="#5a3a28"/>
    <rect x="172" y="306" width="156" height="2"  fill="#1a100a" opacity="0.7"/>
    <rect x="172" y="298" width="156" height="1" fill="#1a100a" opacity="0.4"/>
    <rect x="172" y="302" width="156" height="1" fill="#1a100a" opacity="0.4"/>
    <rect x="184" y="294" width="1" height="14" fill="#1a100a" opacity="0.5"/>
    <rect x="216" y="294" width="1" height="14" fill="#1a100a" opacity="0.5"/>
    <rect x="248" y="294" width="1" height="14" fill="#1a100a" opacity="0.5"/>
    <rect x="280" y="294" width="1" height="14" fill="#1a100a" opacity="0.5"/>
    <rect x="312" y="294" width="1" height="14" fill="#1a100a" opacity="0.5"/>
    <!-- partially worn-off greeting -->
    <text x="250" y="304" text-anchor="middle"
      font-family="'Courier New', monospace" font-size="6" fill="#3a2418" opacity="0.45">W-LCO-E</text>
  </g>

  <!-- ============= DUST MOTES drifting in the warm under-door spill =============
       larger, brighter motes with a longer vertical drift so the dustiness actually reads.
       a mix of 2x2 highlights and 1x1 ambient particles, tinted toward the warm sodium
       cast bleeding under the door. -->
  <g id="fy-dust" pointer-events="none">
    <!-- bright leading motes (2x2, full opacity at peak) -->
    <rect x="178" y="220" width="2" height="2" fill="#ffe8b0" opacity="0">
      <animate attributeName="y"       values="220;300;220" dur="11s" repeatCount="indefinite"/>
      <animate attributeName="opacity" values="0;0.95;0"    dur="11s" repeatCount="indefinite"/>
    </rect>
    <rect x="214" y="200" width="2" height="2" fill="#ffe8b0" opacity="0">
      <animate attributeName="y"       values="200;300;200" dur="14s" repeatCount="indefinite"/>
      <animate attributeName="opacity" values="0;0.95;0"    dur="14s" repeatCount="indefinite"/>
    </rect>
    <rect x="248" y="180" width="2" height="2" fill="#ffe8b0" opacity="0">
      <animate attributeName="y"       values="180;300;180" dur="16s" repeatCount="indefinite"/>
      <animate attributeName="opacity" values="0;0.90;0"    dur="16s" repeatCount="indefinite"/>
    </rect>
    <rect x="282" y="210" width="2" height="2" fill="#ffe8b0" opacity="0">
      <animate attributeName="y"       values="210;300;210" dur="13s" repeatCount="indefinite"/>
      <animate attributeName="opacity" values="0;0.95;0"    dur="13s" repeatCount="indefinite"/>
    </rect>
    <rect x="320" y="190" width="2" height="2" fill="#ffe8b0" opacity="0">
      <animate attributeName="y"       values="190;300;190" dur="17s" repeatCount="indefinite"/>
      <animate attributeName="opacity" values="0;0.90;0"    dur="17s" repeatCount="indefinite"/>
    </rect>
    <rect x="350" y="222" width="2" height="2" fill="#ffe8b0" opacity="0">
      <animate attributeName="y"       values="222;300;222" dur="12s" repeatCount="indefinite"/>
      <animate attributeName="opacity" values="0;0.90;0"    dur="12s" repeatCount="indefinite"/>
    </rect>

    <!-- ambient softer motes (1x1, longer drift, slightly desaturated amber) -->
    <rect x="166" y="248" width="1" height="1" fill="#f4d8a8" opacity="0">
      <animate attributeName="y"       values="248;300;248" dur="9s"  repeatCount="indefinite"/>
      <animate attributeName="opacity" values="0;0.85;0"    dur="9s"  repeatCount="indefinite"/>
    </rect>
    <rect x="196" y="170" width="1" height="1" fill="#f4d8a8" opacity="0">
      <animate attributeName="y"       values="170;300;170" dur="19s" repeatCount="indefinite"/>
      <animate attributeName="opacity" values="0;0.80;0"    dur="19s" repeatCount="indefinite"/>
    </rect>
    <rect x="232" y="232" width="1" height="1" fill="#f4d8a8" opacity="0">
      <animate attributeName="y"       values="232;300;232" dur="10s" repeatCount="indefinite"/>
      <animate attributeName="opacity" values="0;0.85;0"    dur="10s" repeatCount="indefinite"/>
    </rect>
    <rect x="266" y="158" width="1" height="1" fill="#f4d8a8" opacity="0">
      <animate attributeName="y"       values="158;300;158" dur="22s" repeatCount="indefinite"/>
      <animate attributeName="opacity" values="0;0.75;0"    dur="22s" repeatCount="indefinite"/>
    </rect>
    <rect x="298" y="244" width="1" height="1" fill="#f4d8a8" opacity="0">
      <animate attributeName="y"       values="244;300;244" dur="8s"  repeatCount="indefinite"/>
      <animate attributeName="opacity" values="0;0.85;0"    dur="8s"  repeatCount="indefinite"/>
    </rect>
    <rect x="334" y="170" width="1" height="1" fill="#f4d8a8" opacity="0">
      <animate attributeName="y"       values="170;300;170" dur="20s" repeatCount="indefinite"/>
      <animate attributeName="opacity" values="0;0.80;0"    dur="20s" repeatCount="indefinite"/>
    </rect>
    <rect x="368" y="252" width="1" height="1" fill="#f4d8a8" opacity="0">
      <animate attributeName="y"       values="252;300;252" dur="9s"  repeatCount="indefinite"/>
      <animate attributeName="opacity" values="0;0.85;0"    dur="9s"  repeatCount="indefinite"/>
    </rect>

    <!-- a couple of slow-drift larger flecks deeper in the room (read as "in the air") -->
    <rect x="222" y="146" width="2" height="2" fill="#ffd890" opacity="0">
      <animate attributeName="y"       values="146;306;146" dur="26s" repeatCount="indefinite"/>
      <animate attributeName="opacity" values="0;0.70;0"    dur="26s" repeatCount="indefinite"/>
    </rect>
    <rect x="312" y="138" width="2" height="2" fill="#ffd890" opacity="0">
      <animate attributeName="y"       values="138;306;138" dur="28s" repeatCount="indefinite"/>
      <animate attributeName="opacity" values="0;0.70;0"    dur="28s" repeatCount="indefinite"/>
    </rect>
  </g>

  <!-- Edge vignette -->
  <rect width="480" height="320" fill="none" stroke="#0a0810" stroke-width="22" opacity="0.45" pointer-events="none"/>

  <!-- ============= INTERACTION HOTSPOTS (transparent, on top of everything) ============= -->
  <g id="fy-hotspots">
    <rect id="hit-door"       x="154" y="40"  width="192" height="240" fill="transparent" pointer-events="all"/>
    <rect id="hit-peephole"   x="240" y="88"  width="20"  height="20"  fill="transparent" pointer-events="all"/>
    <rect id="hit-chain"      x="156" y="114" width="98"  height="14"  fill="transparent" pointer-events="all"/>
    <rect id="hit-knob"       x="316" y="184" width="26"  height="26"  fill="transparent" pointer-events="all"/>
    <rect id="hit-kickplate"  x="156" y="266" width="188" height="12"  fill="transparent" pointer-events="all"/>
    <rect id="hit-under-door" x="154" y="274" width="192" height="10"  fill="transparent" pointer-events="all"/>
    <rect id="hit-mat"        x="172" y="292" width="156" height="18"  fill="transparent" pointer-events="all"/>
    <rect id="hit-keys"       x="74"  y="160" width="34"  height="28"  fill="transparent" pointer-events="all"/>
    <rect id="hit-key-hook"   x="78"  y="146" width="20"  height="14"  fill="transparent" pointer-events="all"/>
    <rect id="hit-duffel"     x="34"  y="228" width="140" height="68"  fill="transparent" pointer-events="all"/>
    <rect id="hit-boxes"      x="374" y="156" width="92"  height="124" fill="transparent" pointer-events="all"/>
    <rect id="hit-shoes"      x="170" y="280" width="260" height="32"  fill="transparent" pointer-events="all"/>
  </g>
</svg>
